<svg xmlns="http://www.w3.org/2000/svg" xmlns:xlink="http://www.w3.org/1999/xlink" viewBox="0 0 135.5 106.1"><defs><style>.cls-1{fill:#fff;}.cls-2{isolation:isolate;}.cls-3{fill:#010101;}.cls-4{fill:url(#linear-gradient);}.cls-5{fill:url(#linear-gradient-2);}</style><linearGradient id="linear-gradient" x1="-482.22" y1="751.08" x2="-462.75" y2="770.55" gradientTransform="matrix(-1, 0, 0, 1, -406.28, -734)" gradientUnits="userSpaceOnUse"><stop offset="0.13" stop-color="#ffd359"/><stop offset="0.33" stop-color="#ffcd4e"/><stop offset="0.68" stop-color="#fdbe31"/><stop offset="0.94" stop-color="#fcb017"/></linearGradient><linearGradient id="linear-gradient-2" x1="44.49" y1="744.22" x2="87.89" y2="787.62" gradientTransform="translate(0 -734)" xlink:href="#linear-gradient"/></defs><g id="Layer_2" data-name="Layer 2"><g id="Layer_1-2" data-name="Layer 1"><polygon class="cls-1" points="56.45 63.57 45 46.65 42.62 20.24 53.6 6.78 68.7 3.26 82.3 7.65 90.3 21.41 90.3 32.24 82.3 48.7 72.18 56.24 56.45 63.57"/><g id="Layer_2-2" data-name="Layer 2"><g id="Layer_1-2-2" data-name="Layer 1-2"><g class="cls-2"><path class="cls-3" d="M3.9,75.8A23.79,23.79,0,0,1,9,75.2a8.13,8.13,0,0,1,5.4,1.7,5.62,5.62,0,0,1,2,4.7A8.67,8.67,0,0,1,13.7,88a9.93,9.93,0,0,1-6.6,2.2,11.24,11.24,0,0,1-2-.2L3.6,99H0Zm1.8,11a10.07,10.07,0,0,0,1.9.2,4.94,4.94,0,0,0,5.2-5c0-2.5-1.6-3.4-3.7-3.4a8.75,8.75,0,0,0-2,.2Z"/></g><g class="cls-2"><path class="cls-3" d="M16.4,99l2.9-17H23L20.1,99Zm3.5-21.6a2.3,2.3,0,0,1,2.2-2.5,2.06,2.06,0,0,1,2,2.2,2.23,2.23,0,0,1-2.3,2.4A1.84,1.84,0,0,1,19.9,77.4Z"/></g><g class="cls-2"><path class="cls-3" d="M34.4,98.4a9.67,9.67,0,0,1-4.4.9c-3.8,0-6.2-2.7-6.2-6.8,0-5.9,4.1-11,9.8-11a7.07,7.07,0,0,1,3.1.7l-.9,3.2a4.9,4.9,0,0,0-2.3-.5c-3.6,0-5.8,3.6-5.8,7.2,0,2.6,1.3,4,3.4,4a7.27,7.27,0,0,0,3.3-.8Z"/></g><g class="cls-2"><path class="cls-3" d="M37.1,99l4.2-24.8h3.6L42.3,89.4h.1c.5-.6,1-1.3,1.4-1.8L48.4,82h4.5l-6.6,7,4.4,10H46.6l-3.1-7.8-1.8,1.9-1,5.9Z"/></g><g class="cls-2"><path class="cls-3" d="M68.7,82l-2,11.8c-.3,2-.6,3.8-.8,5.3H62.7l.3-3h-.1c-1.5,2.2-3.4,3.4-5.3,3.4-2.2,0-4-1.3-4-4.8a16.9,16.9,0,0,1,.3-3l1.6-9.5h3.7l-1.6,9.3a10.38,10.38,0,0,0-.3,2.3c0,1.4.5,2.4,2,2.4,1.7,0,3.7-2.2,4.3-5.8L65,82.1h3.7Z"/></g><g class="cls-2"><path class="cls-3" d="M69.1,106l3-17.6c.3-2,.7-4.6.9-6.3h3.3L76,84.9h.1a6.37,6.37,0,0,1,5.2-3.2c3.3,0,4.8,3,4.8,6.3,0,5.9-3.7,11.5-8.9,11.5a5.9,5.9,0,0,1-3.1-.7H74l-1.2,7.3H69.1Zm5.5-10.6a3.74,3.74,0,0,0,2.5.8c2.8,0,5.2-4.2,5.2-8,0-1.6-.6-3.3-2.4-3.3s-3.9,2.3-4.5,6.3Z"/></g><g class="cls-2"><path class="cls-3" d="M92.9,75.7a26.76,26.76,0,0,1,4.3-.5c2.4,0,4.1.6,5.2,1.9a4.66,4.66,0,0,1,1,3.3c0,3-2.5,5.4-5.3,6v.1a5.27,5.27,0,0,1,4,5.3,7,7,0,0,1-2.6,5.4,11,11,0,0,1-6.9,1.9,25,25,0,0,1-4.2-.3ZM90.3,97.6a22.82,22.82,0,0,0,2.7.2c3.9,0,7.6-1.6,7.6-6.1,0-3-2.6-4.6-5.4-4.6H92.3Zm2.3-11.8H95c3.8,0,6.8-2.1,6.8-5.5,0-2.6-1.9-3.7-4.9-3.7a15.57,15.57,0,0,0-2.7.2Z"/></g><g class="cls-2"><path class="cls-3" d="M119.1,88.9c0,4.6-3.4,10.5-8.9,10.5-4.2,0-6.2-3.4-6.2-6.9,0-5.4,3.7-10.7,8.9-10.7C117.4,81.9,119.1,85.5,119.1,88.9Zm-13.5,3.5c0,3.2,1.9,5.6,4.8,5.6,3.8,0,7-4.7,7-9.2,0-2.2-1-5.7-4.7-5.7C108.6,83.2,105.6,87.8,105.6,92.4Z"/></g><g class="cls-2"><path class="cls-3" d="M135.5,88.9c0,4.6-3.4,10.5-8.9,10.5-4.2,0-6.2-3.4-6.2-6.9,0-5.4,3.7-10.7,8.9-10.7C133.8,81.9,135.5,85.5,135.5,88.9ZM122,92.4c0,3.2,1.9,5.6,4.8,5.6,3.8,0,7-4.7,7-9.2,0-2.2-1-5.7-4.7-5.7C125,83.2,122,87.8,122,92.4Z"/></g><path class="cls-4" d="M66.2,40.6A13.75,13.75,0,1,0,52.4,26.9,13.68,13.68,0,0,0,66.2,40.6Z"/><path class="cls-5" d="M66.2,0A27.68,27.68,0,0,0,38.5,27.6v.1c0,6.1,3.3,13.7,7.7,21-.9-22.2-.9-20-.9-22.2A20.85,20.85,0,1,1,66.2,47.3c-7,0-11.7-2.5-14.5-6.7,0,0,.4,14.6,1.2,17.9l2.6,3.8c4.3,5.8,8.2,10.3,9.9,12.2a1.12,1.12,0,0,0,1.6.1l.1-.1c4.6-5.4,26.8-32.2,26.8-46.8A27.76,27.76,0,0,0,66.2,0Z"/></g></g></g></g></svg>