<svg xmlns="http://www.w3.org/2000/svg" xmlns:xlink="http://www.w3.org/1999/xlink" viewBox="0 0 177.46 52"><defs><style>.cls-1{fill:#fff;}.cls-2{isolation:isolate;}.cls-3{fill:#010101;}.cls-4{fill:url(#linear-gradient);}.cls-5{fill:url(#linear-gradient-2);}</style><linearGradient id="linear-gradient" x1="-438.06" y1="745.86" x2="-424.54" y2="759.38" gradientTransform="matrix(-1, 0, 0, 1, -412.06, -734)" gradientUnits="userSpaceOnUse"><stop offset="0.13" stop-color="#ffd359"/><stop offset="0.33" stop-color="#ffcd4e"/><stop offset="0.68" stop-color="#fdbe31"/><stop offset="0.94" stop-color="#fcb017"/></linearGradient><linearGradient id="linear-gradient-2" x1="4.16" y1="741.1" x2="34.29" y2="771.24" gradientTransform="translate(0 -734)" xlink:href="#linear-gradient"/></defs><g id="Layer_2" data-name="Layer 2"><g id="Layer_1-2" data-name="Layer 1"><polygon class="cls-1" points="12.47 44.15 4.51 32.39 2.86 14.05 10.49 4.71 20.97 2.27 30.42 5.32 35.97 14.87 35.97 22.39 30.42 33.82 23.39 39.05 12.47 44.15"/><g class="cls-2"><path class="cls-3" d="M45.86,16.3a23.79,23.79,0,0,1,5.1-.6,8.13,8.13,0,0,1,5.4,1.7,5.62,5.62,0,0,1,2,4.7,8.67,8.67,0,0,1-2.7,6.4,9.93,9.93,0,0,1-6.6,2.2,11.24,11.24,0,0,1-2-.2l-1.5,9H42Zm1.8,11a10.07,10.07,0,0,0,1.9.2,4.94,4.94,0,0,0,5.2-5c0-2.5-1.6-3.4-3.7-3.4a8.75,8.75,0,0,0-2,.2Z"/></g><g class="cls-2"><path class="cls-3" d="M58.36,39.5l2.9-17H65l-2.9,17Zm3.5-21.6a2.3,2.3,0,0,1,2.2-2.5,2.06,2.06,0,0,1,2,2.2,2.23,2.23,0,0,1-2.3,2.4A1.84,1.84,0,0,1,61.86,17.9Z"/></g><g class="cls-2"><path class="cls-3" d="M76.36,38.9a9.67,9.67,0,0,1-4.4.9c-3.8,0-6.2-2.7-6.2-6.8,0-5.9,4.1-11,9.8-11a7.07,7.07,0,0,1,3.1.7l-.9,3.2a4.9,4.9,0,0,0-2.3-.5c-3.6,0-5.8,3.6-5.8,7.2,0,2.6,1.3,4,3.4,4a7.27,7.27,0,0,0,3.3-.8Z"/></g><g class="cls-2"><path class="cls-3" d="M79.06,39.5l4.2-24.8h3.6l-2.6,15.2h.1c.5-.6,1-1.3,1.4-1.8l4.6-5.6h4.5l-6.6,7,4.4,10h-4.1l-3.1-7.8-1.8,1.9-1,5.9Z"/></g><g class="cls-2"><path class="cls-3" d="M110.66,22.5l-2,11.8c-.3,2-.6,3.8-.8,5.3h-3.2l.3-3h-.1c-1.5,2.2-3.4,3.4-5.3,3.4-2.2,0-4-1.3-4-4.8a16.9,16.9,0,0,1,.3-3l1.6-9.5h3.7L99.56,32a10.38,10.38,0,0,0-.3,2.3c0,1.4.5,2.4,2,2.4,1.7,0,3.7-2.2,4.3-5.8l1.4-8.3h3.7Z"/></g><g class="cls-2"><path class="cls-3" d="M111.06,46.5l3-17.6c.3-2,.7-4.6.9-6.3h3.3l-.3,2.8h.1a6.37,6.37,0,0,1,5.2-3.2c3.3,0,4.8,3,4.8,6.3,0,5.9-3.7,11.5-8.9,11.5a5.9,5.9,0,0,1-3.1-.7H116l-1.2,7.3h-3.7Zm5.5-10.6a3.74,3.74,0,0,0,2.5.8c2.8,0,5.2-4.2,5.2-8,0-1.6-.6-3.3-2.4-3.3s-3.9,2.3-4.5,6.3Z"/></g><g class="cls-2"><path class="cls-3" d="M134.86,16.2a26.76,26.76,0,0,1,4.3-.5c2.4,0,4.1.6,5.2,1.9a4.66,4.66,0,0,1,1,3.3c0,3-2.5,5.4-5.3,6V27a5.27,5.27,0,0,1,4,5.3,7,7,0,0,1-2.6,5.4,11,11,0,0,1-6.9,1.9,25,25,0,0,1-4.2-.3Zm-2.6,21.9a22.82,22.82,0,0,0,2.7.2c3.9,0,7.6-1.6,7.6-6.1,0-3-2.6-4.6-5.4-4.6h-2.9Zm2.3-11.8H137c3.8,0,6.8-2.1,6.8-5.5,0-2.6-1.9-3.7-4.9-3.7a15.57,15.57,0,0,0-2.7.2Z"/></g><g class="cls-2"><path class="cls-3" d="M161.06,29.4c0,4.6-3.4,10.5-8.9,10.5-4.2,0-6.2-3.4-6.2-6.9,0-5.4,3.7-10.7,8.9-10.7C159.36,22.4,161.06,26,161.06,29.4Zm-13.5,3.5c0,3.2,1.9,5.6,4.8,5.6,3.8,0,7-4.7,7-9.2,0-2.2-1-5.7-4.7-5.7C150.56,23.7,147.56,28.3,147.56,32.9Z"/></g><g class="cls-2"><path class="cls-3" d="M177.46,29.4c0,4.6-3.4,10.5-8.9,10.5-4.2,0-6.2-3.4-6.2-6.9,0-5.4,3.7-10.7,8.9-10.7C175.76,22.4,177.46,26,177.46,29.4ZM164,32.9c0,3.2,1.9,5.6,4.8,5.6,3.8,0,7-4.7,7-9.2,0-2.2-1-5.7-4.7-5.7C167,23.7,164,28.3,164,32.9Z"/></g><path class="cls-4" d="M19.24,28.19a9.55,9.55,0,1,0-9.59-9.51,9.5,9.5,0,0,0,9.59,9.51Z"/><path class="cls-5" d="M19.24,0A19.22,19.22,0,0,0,0,19.17v.07c0,4.23,2.29,9.51,5.35,14.58C4.72,18.4,4.72,19.93,4.72,18.4A14.48,14.48,0,1,1,19.24,32.85c-4.87,0-8.13-1.74-10.07-4.66,0,0,.27,10.14.83,12.43l1.81,2.64c3,4,5.69,7.16,6.87,8.48a.78.78,0,0,0,1.11.06l.07-.06c3.2-3.75,18.61-22.37,18.61-32.5A19.28,19.28,0,0,0,19.24,0Z"/></g></g></svg>