<svg xmlns="http://www.w3.org/2000/svg" xmlns:xlink="http://www.w3.org/1999/xlink" viewBox="0 0 1920 1080"><defs><style>.cls-1{fill:none;}.cls-2{fill:#2e3535;}.cls-3{fill:url(#New_Pattern);}</style><pattern id="New_Pattern" data-name="New Pattern" width="781.5" height="456.23" patternTransform="matrix(0.67, 0, 0, -0.64, -1045.03, 825.15)" patternUnits="userSpaceOnUse" viewBox="0 0 781.5 456.23"><rect class="cls-1" width="781.5" height="456.23"/><rect class="cls-1" width="781.5" height="456.23"/><path class="cls-2" d="M671.15,112.17a2,2,0,0,0-.38,1.49l9.8,68.88a2,2,0,0,0,.78,1.32,2,2,0,0,0,1.48.38c3-.42,5.93-.77,8.9-1.07a21.65,21.65,0,0,0,36.86,13.22,21.42,21.42,0,0,0,6.23-13.22c3,.3,5.95.65,8.9,1.07a2,2,0,0,0,2.26-1.7l9.81-68.88a2,2,0,0,0-1.7-2.26,289.83,289.83,0,0,0-81.62,0A2,2,0,0,0,671.15,112.17Zm24.57,70.64a219,219,0,0,1,35.12,0,17.64,17.64,0,0,1-35.12,0ZM675,115.08a285.88,285.88,0,0,1,76.53,0L742.29,180c-2.45-.33-4.9-.62-7.37-.85v-4.27a4.25,4.25,0,1,0-5.75-1.75,4.34,4.34,0,0,0,1.75,1.75v3.91a221.29,221.29,0,0,0-35.3,0v-3.91a4.24,4.24,0,1,0-4,0v4.27q-3.71.36-7.38.85Z"/><path class="cls-2" d="M771.47,239.58H783.2l14.33-69.35a2,2,0,0,1,2-1.59H874.1a2,2,0,0,1,1.95,1.58l10,47.34a2,2,0,0,1-1.55,2.37,1.75,1.75,0,0,1-.4,0H823.46a2,2,0,0,1,0-4h58.17l-5.81-27.48H817.37a2,2,0,0,1,0-4H875l-2.51-11.85H801.12l-5.69,27.59h57.72a2,2,0,0,1,0,4H794.6L786.79,242a2,2,0,0,1-2,1.59H771.47a2,2,0,0,1,0-4Z"/><path class="cls-2" d="M677.91,11.85l65.59,65.6a2,2,0,0,0,1.62.57,2,2,0,0,0,1.47-.89L773,36.59a2,2,0,0,0-.26-2.51L720-18.68a2,2,0,0,0-2.51-.25l-11.14,7.32h0l-29,19.07a2,2,0,0,0-.49.32L658.35,20,650,11.66a2,2,0,0,0-2.83,2.83h0l9.44,9.44a2,2,0,0,0,2.52.26ZM759,50.7V26l9.72,9.73Zm-12.4,19V13.6L755,22V56.82Zm-12.4-7.42v-61l8.43,8.43a1.41,1.41,0,0,0,0,.29V71l-8.42-8.42a1.49,1.49,0,0,0,0-.21Zm-12.4-12.2V-11.2l8.42,8.42v61.3ZM709.41,37.43V-8.87l8.39-5.52V46.12l-8.42-8.42a2,2,0,0,0,.06-.23ZM697,25.33V-.77l8.39-5.52v40ZM681.28,9.61,693,1.91V21.33Z"/><path class="cls-2" d="M777.86,14.35a7.13,7.13,0,1,0,0,10.09A7.12,7.12,0,0,0,777.86,14.35ZM775,21.61a3.14,3.14,0,1,1,0-4.44h0A3.15,3.15,0,0,1,775,21.61Z"/><path class="cls-2" d="M566.31,30.06a2,2,0,0,0,0,2.83h0L603.46,70a2.1,2.1,0,0,0,1,.55h0l19.61,3.9a2,2,0,0,0,1.81-.55l.7-.7c4.7,4.41,13.63,11.88,17.09,8.43s-4-12.39-8.43-17.09l.7-.7a2,2,0,0,0,.54-1.8l-3.9-19.62h0a2,2,0,0,0-.54-1L594.89,4.31a2,2,0,0,0-1.42-.59,2,2,0,0,0-1.41.59Zm63.12,40.35,3-3c4.74,5.07,7.23,9.06,7.94,11C638.48,77.64,634.5,75.15,629.43,70.41ZM570.55,31.47,593.49,8.53,628.8,43.84l3.53,17.77v.2l-2.75,2.75-3,3a64.32,64.32,0,0,1-6.33-7.46,7.51,7.51,0,0,0,1-.87,7.35,7.35,0,0,0,.87-1.05,8,8,0,1,0-5.83,3.35,69.3,69.3,0,0,0,7.3,8.74l-17.77-3.54Zm48.21,24.62c-.1.12-.18.25-.29.36a3.37,3.37,0,0,1-.37.29,4,4,0,1,1,.36-6,3.81,3.81,0,0,1,.78,1.13A4,4,0,0,1,618.76,56.09Z"/><path class="cls-2" d="M380.72,11.47h11.73l14.33-69.32a2,2,0,0,1,2-1.6h74.61a2,2,0,0,1,1.95,1.59l10,47.33a2,2,0,0,1-1.54,2.38,2.71,2.71,0,0,1-.41,0H432.71a2,2,0,0,1-2-2,2,2,0,0,1,2-2h58.17l-5.81-27.48H426.62a2,2,0,0,1-2-2,2,2,0,0,1,2-2h57.61l-2.51-11.86H410.37l-5.69,27.52H462.4a2,2,0,0,1,2,2,2,2,0,0,1-2,2H403.85L396,13.88a2,2,0,0,1-2,1.59H380.72a2,2,0,0,1,0-4Z"/><path class="cls-2" d="M113.72,23.52H29.55a2,2,0,0,0-2,1.95,1.83,1.83,0,0,0,0,.47L43.1,97.62a2,2,0,0,0,1.95,1.61h9.57a17,17,0,0,0,34,0h9.57a2,2,0,0,0,2-1.58L115.69,26a2,2,0,0,0-1.53-2.38,2.49,2.49,0,0,0-.47,0ZM58.62,99.23h26a13,13,0,1,1-26,0Zm52.62-71.68L96.61,95.23h-8v-4a3.9,3.9,0,1,0-4,0v4h-26v-4a3.9,3.9,0,1,0-4,0v4h-8L32,27.52Z"/><path class="cls-2" d="M-10,239.58H1.7L16,170.23a2,2,0,0,1,2-1.59H92.6a2,2,0,0,1,2,1.58l10,47.34a2,2,0,0,1-1.55,2.37,2.28,2.28,0,0,1-.45,0H42a2,2,0,0,1,0-4h58.17l-5.81-27.48H35.87a2,2,0,0,1,0-4H93.48L91,172.67H19.62l-5.69,27.56H71.65a2,2,0,0,1,0,4H13.1L5.29,242a2,2,0,0,1-2,1.59H-10a2,2,0,0,1-2-2,2,2,0,0,1,2-2Z"/><path class="cls-2" d="M82.27,151.08a7.14,7.14,0,1,0,7.14,7.15,7.14,7.14,0,0,0-7.14-7.15Zm0,4a3.14,3.14,0,1,1-3.13,3.15A3.15,3.15,0,0,1,82.27,155.08Z"/><path class="cls-2" d="M27.55,151.08a7.14,7.14,0,1,0,7.13,7.15,7.14,7.14,0,0,0-7.13-7.15Zm0,4a3.14,3.14,0,1,1-3.14,3.15,3.15,3.15,0,0,1,3.14-3.15Z"/><path class="cls-2" d="M128.21-67.54a10.23,10.23,0,0,0,0-14.46,10.23,10.23,0,0,0-14.46,0h0a1.49,1.49,0,0,0-.23.27l-25,36a25.94,25.94,0,0,0-16.77-6h0A26.27,26.27,0,0,0,45.46-25.52,26.27,26.27,0,0,0,71.71.77,26.27,26.27,0,0,0,98-25.48a26.25,26.25,0,0,0-6.09-16.84l36-25A1.66,1.66,0,0,0,128.21-67.54ZM94-25.54A22.26,22.26,0,0,1,71.75-3.27,22.26,22.26,0,0,1,49.48-25.52,22.26,22.26,0,0,1,71.73-47.79a22.26,22.26,0,0,1,15.75,6.52A22.11,22.11,0,0,1,94-25.54Zm31.5-45L96.82-50.62,116.7-79.29a6.22,6.22,0,0,1,8.8,0,6.22,6.22,0,0,1,0,8.8h0Z"/><path class="cls-2" d="M245.73,89.85a11.85,11.85,0,0,0-8.79-11.13V19.6a2,2,0,0,0-2-2h-76.5a2,2,0,0,0-2,2V78.51a11.67,11.67,0,0,0-9.71,11.34c0,5.53,7.52,16.88,8.38,18.16a2,2,0,0,0,1.66.88h78.92a2,2,0,0,0,1.67-.89C238.21,106.7,245.73,95.17,245.73,89.85Zm-66.79-37h-18.5V21.6h18.5Zm54,14.5h-50V21.6h50Zm0,11.08a11.5,11.5,0,0,0-8.21,4.95,11.49,11.49,0,0,0-19,0,11.49,11.49,0,0,0-19,0,11.49,11.49,0,0,0-19,0,11.58,11.58,0,0,0-7.29-4.81V56.85h18.5v12.5a2,2,0,0,0,2,2h52Zm8.79,11.42c0,2.92-4.15,10.4-7.13,15H157.84c-3-4.57-7.11-12-7.11-15a7.59,7.59,0,0,1,7.5-7.5,7.52,7.52,0,0,1,7.5,7.5,2,2,0,0,0,4,0,7.5,7.5,0,0,1,15,0,2,2,0,0,0,4,0,7.5,7.5,0,0,1,15,0,2,2,0,0,0,4,0,7.5,7.5,0,0,1,15,0,2,2,0,0,0,4,0,7.52,7.52,0,0,1,7.5-7.5A7.79,7.79,0,0,1,241.73,89.85Z"/><path class="cls-2" d="M195.07,46.18a2,2,0,0,1,1.41.59l9,9a2,2,0,1,1-2.83,2.83h0l-9-9a2,2,0,0,1,1.42-3.41Z"/><path class="cls-2" d="M195.07,28.8a2,2,0,0,1,1.41.59l26.4,26.4a2,2,0,1,1-2.83,2.83l-26.4-26.39a2,2,0,0,1,1.42-3.41Z"/><path class="cls-2" d="M220.05,41.23l-9-9a2,2,0,0,1,2.83-2.83h0l9,9a2,2,0,0,1-2.69,3,.93.93,0,0,1-.14-.14Z"/><path class="cls-2" d="M169.69,34.4a2.83,2.83,0,1,1-2.83,2.83h0A2.83,2.83,0,0,1,169.69,34.4Z"/><path class="cls-2" d="M677.91,468.08l65.59,65.6a2,2,0,0,0,1.62.57,2,2,0,0,0,1.47-.89L773,492.81a2,2,0,0,0-.26-2.5L720,437.55a2,2,0,0,0-2.51-.26l-11.14,7.33h0l-29,19.07a2,2,0,0,0-.49.32l-18.55,12.17L650,467.89a2,2,0,0,0-2.83,0h0a2,2,0,0,0,0,2.83h0l9.44,9.44a2,2,0,0,0,2.52.26ZM759,506.93v-24.7l9.72,9.73Zm-12.4,19v-56.1l8.4,8.4v34.82Zm-12.4-7.42v-61l8.43,8.43a1.41,1.41,0,0,0,0,.29v61l-8.42-8.42a1.64,1.64,0,0,0,0-.22Zm-12.4-12.2V445.07l8.42,8.42a.67.67,0,0,0,0,.2v61.06ZM709.44,493.7V447.36l8.39-5.52v60.51l-8.42-8.42ZM697,481.55v-26l8.39-5.52v40Zm-15.68-15.71,11.68-7.7v19.42Z"/><path class="cls-2" d="M729.07,442a7.14,7.14,0,1,0,0-10.1h0A7.16,7.16,0,0,0,729.07,442Zm2.83-2.83a3.14,3.14,0,1,1,4.44,0h0A3.13,3.13,0,0,1,731.9,439.14Z"/><path class="cls-2" d="M644.34,426.34V369.8a2,2,0,0,0-2-2H558.05a2,2,0,0,0-2,2v56.54a2,2,0,0,0,2,2h84.29a2,2,0,0,0,2-2Zm-4-19.83H560.05V371.8h80.29Zm0,17.83H560.05v-8h80.29Z"/><path class="cls-2" d="M652.37,438.36h-72a2,2,0,0,1,0-4h70V379.82a2,2,0,0,1,4,0v56.54A2,2,0,0,1,652.37,438.36Z"/><path class="cls-2" d="M565.21,395h28.17a2,2,0,0,1,0,4H565.21a2,2,0,0,1,0-4Z"/><path class="cls-2" d="M565.21,386h15.17a2,2,0,0,1,0,4H565.21a2,2,0,0,1,0-4Z"/><path class="cls-2" d="M565.21,376.92h23.33a2,2,0,0,1,0,4H565.21a2,2,0,0,1,0-4Z"/><path class="cls-2" d="M592.38,378.92a2,2,0,0,1,2-2h21.7a2,2,0,0,1,0,4h-21.7A2,2,0,0,1,592.38,378.92Z"/><path class="cls-2" d="M622.52,376.92h12.67a2,2,0,0,1,0,4H622.52a2,2,0,0,1,0-4Z"/><path class="cls-2" d="M807.3,339.31l-13-13a2,2,0,0,0-2.83,0h0l-4.85,4.85L754.8,299.32a2,2,0,0,0-2.83,0h0l-50.85,50.85a2,2,0,0,0,0,2.83h0L733,384.84l-4.85,4.84a2,2,0,0,0,0,2.83h0l13,13a2,2,0,0,0,2.83,0h0l20.19-20.2a18.66,18.66,0,0,0-.83,2,8.85,8.85,0,0,0,.5,7.8,7.34,7.34,0,0,0,5.37,3.43,6.32,6.32,0,0,0,5.1-2,10.91,10.91,0,0,0,3-7.38,29,29,0,0,0-1.43-9.1c4.16,1.36,10.7,3.17,16.15,3.17,4.76,0,7.59-1.83,9.12-3.36a10.14,10.14,0,0,0,2.72-9.35,8.57,8.57,0,0,0-4.19-5.42c-2.16-1.23-6-2.31-11.85-.51a27,27,0,0,0-5.37,2.5l24.86-24.86a2,2,0,0,0,.07-2.83ZM776.49,376c3.24-2.52,8.69-6.47,12.5-7.63,3.52-1.08,6.61-1,8.7.16a4.5,4.5,0,0,1,2.31,2.89,6,6,0,0,1-1.66,5.57,8.67,8.67,0,0,1-6.34,2.19C786.86,379.14,780.34,377.23,776.49,376Zm-4.64,4.62a26,26,0,0,1,1.44,8.38,7,7,0,0,1-1.85,4.66,2.46,2.46,0,0,1-1.85.89,3.4,3.4,0,0,1-2.4-1.57,4.86,4.86,0,0,1-.12-4.32A33.51,33.51,0,0,1,771.85,380.58Zm-30.36-38.06-22.31,22.32a1.48,1.48,0,0,0-.25.31l-13.56-13.56L728,329Zm16.89,16.89L735.79,382,721.7,367.92a2.42,2.42,0,0,0,.31-.25l22.31-22.32ZM767,317.13a1.48,1.48,0,0,0-.31.25l-22.32,22.31-13.53-13.53,22.6-22.59ZM783.85,334l-22.64,22.59-14.06-14.06,22.31-22.29a3.88,3.88,0,0,0,.26-.31Zm19.26,6.74-60.58,60.5-10.17-10.14,60.53-60.53Z"/><path class="cls-2" d="M746.1,242.23c-.36-.93-1.46-2.49-4.77-2.49H656.24c-3.32,0-4.41,1.56-4.77,2.49s-.6,3,2.16,5.48l38.86,35.18a9.33,9.33,0,0,0,4.29,2.15v3.69a2,2,0,0,0,2,2,7.59,7.59,0,1,1-7.58,7.6h0a2,2,0,1,0-4,0,11.59,11.59,0,1,0,13.58-11.41v-1.83a9.32,9.32,0,0,0,4.3-2.15l38.86-35.19C746.7,245.23,746.47,243.23,746.1,242.23Zm-4,1.57a5.83,5.83,0,0,1-.85.94l-38.87,35.18a5.56,5.56,0,0,1-7.21,0L656.3,244.74a5.83,5.83,0,0,1-.85-.94,5.12,5.12,0,0,1,.78-.06h85.09a5.17,5.17,0,0,1,.79.1Z"/><path class="cls-2" d="M504.47,251.63H420.3a2,2,0,0,0-2.05,2,2.61,2.61,0,0,0,.05.48l15.51,71.68a2,2,0,0,0,1.95,1.58h9.57a17,17,0,0,0,34,0H489a2,2,0,0,0,2-1.58l15.5-71.68a2,2,0,0,0-1.52-2.38,2,2,0,0,0-.48-.05Zm-55.1,75.69h26a13,13,0,1,1-26,0ZM502,255.63l-14.63,67.69h-7.95v-4a3.9,3.9,0,1,0-4,0v4H449.36v-4a3.9,3.9,0,1,0-4,0v4h-7.95l-14.63-67.69Z"/><path class="cls-2" d="M280.4,340.29a2,2,0,0,0-.38,1.48l9.8,68.89a2,2,0,0,0,2.26,1.7q4.44-.63,8.9-1.07a21.65,21.65,0,0,0,43.09,0c3,.3,5.95.65,8.9,1.07a2,2,0,0,0,1.48-.38,2,2,0,0,0,.78-1.32L365,341.77a2,2,0,0,0-1.7-2.26,289.59,289.59,0,0,0-81.62,0A2,2,0,0,0,280.4,340.29ZM305,410.93a216.74,216.74,0,0,1,35.12,0,17.65,17.65,0,0,1-35.12,0Zm-20.74-67.7a286.15,286.15,0,0,1,76.53,0l-9.24,64.93c-2.45-.32-4.91-.61-7.37-.85V403a4.25,4.25,0,1,0-5.75-1.75,4.34,4.34,0,0,0,1.75,1.75v3.88a221.29,221.29,0,0,0-35.3,0V403a4.24,4.24,0,1,0-4,0v4.23c-2.47.24-4.93.53-7.38.85Z"/><path class="cls-2" d="M380.72,467.7h11.73l14.33-69.32a2,2,0,0,1,2-1.6h74.61a2,2,0,0,1,1.95,1.59l10,47.33a2,2,0,0,1-1.95,2.42H432.71a2,2,0,1,1,0-4h58.17l-5.81-27.48H426.62a2,2,0,0,1,0-4h57.61l-2.51-11.86H410.37l-5.69,27.52H462.4a2,2,0,0,1,0,4H403.85L396,470.1a2,2,0,0,1-2,1.6H380.72a2,2,0,0,1,0-4Z"/><path class="cls-2" d="M473,379.23a7.14,7.14,0,1,0,7.14,7.14h0A7.14,7.14,0,0,0,473,379.23Zm0,4a3.14,3.14,0,1,1-3.13,3.15v0A3.14,3.14,0,0,1,473,383.23Z"/><path class="cls-2" d="M418.3,379.23a7.14,7.14,0,1,0,7.13,7.15v0A7.14,7.14,0,0,0,418.3,379.23Zm0,4a3.14,3.14,0,1,1-3.14,3.14h0a3.13,3.13,0,0,1,3.13-3.13Z"/><path class="cls-2" d="M287.16,240l65.59,65.59a2,2,0,0,0,3.09-.32l26.4-40.54a2,2,0,0,0-.24-2.47l-52.76-52.76a2,2,0,0,0-2.51-.26l-11.14,7.32h0l-29,19.06a2,2,0,0,0-.49.32l-18.51,12.17-8.29-8.29a2,2,0,1,0-2.83,2.83l9.44,9.44a2,2,0,0,0,2.52.26Zm81.12,38.85V254.15l9.72,9.73Zm-12.4,19V241.71l8.4,8.4v34.83Zm-12.4-7.42V229.31l8.43,8.43a1.41,1.41,0,0,0,0,.29v61l-8.42-8.41a1.09,1.09,0,0,0,0-.18Zm-12.4-12.17V216.94l8.42,8.42v61.28Zm-12.39-12.65V219.23l8.39-5.52v60.52l-8.42-8.42,0-.22Zm-12.4-12.15V227.38l8.39-5.52v40Zm-15.72-15.72,11.72-7.7v19.43Z"/><path class="cls-2" d="M387.11,242.46a7.13,7.13,0,1,0,0,10.09A7.12,7.12,0,0,0,387.11,242.46Zm-2.82,7.27a3.14,3.14,0,1,1,0-4.44h0a3.13,3.13,0,0,1,0,4.44Z"/><path class="cls-2" d="M338.32,213.86a7.14,7.14,0,1,0,0-10.1A7.14,7.14,0,0,0,338.32,213.86Zm2.83-2.83a3.14,3.14,0,1,1,4.44,0h0A3.15,3.15,0,0,1,341.15,211Z"/><path class="cls-2" d="M253.59,198.23V141.69a2,2,0,0,0-2-2H167.3a2,2,0,0,0-2,2v56.54a2,2,0,0,0,2,2h84.29A2,2,0,0,0,253.59,198.23Zm-4-19.84H169.3v-34.7h80.29Zm0,17.84H169.3v-8h80.29Z"/><path class="cls-2" d="M261.62,210.23h-72a2,2,0,0,1,0-4h70V151.69a2,2,0,0,1,4,0v56.54A2,2,0,0,1,261.62,210.23Z"/><path class="cls-2" d="M174.46,166.89h28.17a2,2,0,0,1,0,4H174.46a2,2,0,0,1,0-4Z"/><path class="cls-2" d="M174.46,157.85h15.17a2,2,0,0,1,0,4H174.46a2,2,0,0,1,0-4Z"/><path class="cls-2" d="M174.46,148.81h23.33a2,2,0,1,1,0,4H174.46a2,2,0,1,1,0-4Z"/><path class="cls-2" d="M201.63,150.81a2,2,0,0,1,2-2h21.7a2,2,0,0,1,0,4h-21.7A2,2,0,0,1,201.63,150.81Z"/><path class="cls-2" d="M231.77,148.81h12.67a2,2,0,0,1,0,4H231.77a2,2,0,0,1,0-4Z"/><path class="cls-2" d="M175.56,258.17a2,2,0,0,0,0,2.83h0l37.15,37.15a1.94,1.94,0,0,0,1,.55h0l19.61,3.9a2,2,0,0,0,1.81-.55l.7-.7c4.7,4.42,13.63,11.88,17.09,8.43s-4-12.39-8.43-17.08l.7-.7a2,2,0,0,0,.54-1.81l-3.9-19.61h0a2,2,0,0,0-.54-1l-37.15-37.15a2,2,0,0,0-1.42-.58,2,2,0,0,0-1.41.58Zm63.12,40.35,3-3c4.74,5.07,7.23,9,7.94,10.94-1.89-.71-5.87-3.23-10.94-7.94ZM179.8,259.59l22.94-23,35.31,35.31,3.53,17.77v.2l-2.75,2.75-3,3.05a64.12,64.12,0,0,1-6.33-7.44,9.56,9.56,0,0,0,1.87-1.87,8,8,0,1,0-5.87,3.36,69.92,69.92,0,0,0,7.3,8.73L215,294.92ZM228,284.23c-.1.12-.18.25-.29.36a3.72,3.72,0,0,1-.37.3,4,4,0,1,1,.36-6,3.81,3.81,0,0,1,.78,1.13A4,4,0,0,1,228,284.23Z"/><path class="cls-2" d="M475.44,215.52a2,2,0,0,1-3-2.69.93.93,0,0,1,.14-.14,14.33,14.33,0,0,0,0-20.23,2,2,0,0,1,2.68-3l.14.14A18.31,18.31,0,0,1,475.44,215.52Z"/><path class="cls-2" d="M519,160.57a10.22,10.22,0,0,0-14.46-14.46,3.11,3.11,0,0,0-.23.28l-25,36a26,26,0,0,0-16.8-6.09h0a26.27,26.27,0,1,0,20.16,9.45l36-25A1.74,1.74,0,0,0,519,160.57Zm-34.21,42a22.26,22.26,0,1,1-6.52-15.73,22.26,22.26,0,0,1,6.52,15.73Zm31.5-45-28.68,19.88,19.88-28.68a6.22,6.22,0,0,1,8.8,8.8Z"/><path class="cls-2" d="M636.48,318a11.87,11.87,0,0,0-8.79-11.14V247.72a2,2,0,0,0-2-2h-76.5a2,2,0,0,0-2,2v58.91A11.66,11.66,0,0,0,537.48,318c0,5.53,7.52,16.88,8.38,18.15a2,2,0,0,0,1.66.89h78.92a2,2,0,0,0,1.67-.9C629,334.81,636.48,323.29,636.48,318Zm-66.79-37h-18.5V249.72h18.5Zm54,14.5h-50V249.72h50Zm0,11.07a11.54,11.54,0,0,0-8.21,5,11.49,11.49,0,0,0-19,0,11.49,11.49,0,0,0-19,0,11.49,11.49,0,0,0-19,0,11.53,11.53,0,0,0-7.29-4.82V285h18.5v12.5a2,2,0,0,0,2,2h52ZM632.48,318c0,2.91-4.15,10.39-7.13,15H548.59c-3-4.57-7.11-12-7.11-15a7.59,7.59,0,0,1,7.5-7.5,7.52,7.52,0,0,1,7.5,7.5,2,2,0,0,0,4,0,7.5,7.5,0,0,1,15,0,2,2,0,0,0,4,0,7.5,7.5,0,0,1,15,0,2,2,0,0,0,4,0,7.5,7.5,0,0,1,15,0,2,2,0,0,0,4,0,7.5,7.5,0,0,1,7.5-7.5,7.79,7.79,0,0,1,7.5,7.5Z"/><path class="cls-2" d="M585.82,274.29a2,2,0,0,1,1.41.59l9,9a2,2,0,1,1-2.83,2.83h0l-9-9a2,2,0,0,1,1.42-3.42Z"/><path class="cls-2" d="M585.82,256.91a2,2,0,0,1,1.41.59l26.4,26.4a2,2,0,0,1-2.83,2.83l-26.4-26.4a2,2,0,0,1,1.42-3.42Z"/><path class="cls-2" d="M610.8,269.35l-9-9a2,2,0,0,1,2.83-2.83l9,9a2,2,0,0,1-2.83,2.83Z"/><path class="cls-2" d="M560.44,262.52a2.83,2.83,0,1,1-2.83,2.83h0a2.82,2.82,0,0,1,2.82-2.82Z"/><path class="cls-2" d="M416.55,111.23l-13-13a2,2,0,0,0-2.83,0h0l-4.85,4.84L364.05,71.23a2,2,0,0,0-2.83,0h0l-50.85,50.85a2,2,0,0,0,0,2.83h0l31.84,31.83-4.85,4.85a2,2,0,0,0,0,2.82l13,13a2,2,0,0,0,2.83,0h0l20.19-20.18c-.31.65-.59,1.3-.83,1.94a8.87,8.87,0,0,0,.5,7.81,7.36,7.36,0,0,0,5.37,3.43,6.29,6.29,0,0,0,5.1-2,10.93,10.93,0,0,0,3-7.37,29,29,0,0,0-1.43-9.1c4.16,1.36,10.7,3.16,16.15,3.16,4.76,0,7.59-1.82,9.12-3.36a10.12,10.12,0,0,0,2.72-9.34,8.55,8.55,0,0,0-4.19-5.42c-2.16-1.23-6-2.32-11.85-.51a26.49,26.49,0,0,0-5.37,2.5l24.86-24.86a2,2,0,0,0,.07-2.83Zm-30.81,36.65c3.24-2.53,8.69-6.47,12.5-7.64,3.52-1.08,6.61-1,8.7.16a4.57,4.57,0,0,1,2.27,2.9,6,6,0,0,1-1.66,5.57,8.74,8.74,0,0,1-6.29,2.19c-5.15,0-11.67-1.92-15.52-3.21Zm-4.64,4.62a25.92,25.92,0,0,1,1.44,8.37,6.9,6.9,0,0,1-1.85,4.66,2.5,2.5,0,0,1-1.85.9,3.43,3.43,0,0,1-2.4-1.57,4.89,4.89,0,0,1-.12-4.33,33.63,33.63,0,0,1,4.78-8.06Zm-30.36-38.06-22.31,22.31a1.89,1.89,0,0,0-.25.31L314.62,123.5l22.59-22.59Zm16.89,16.89L345,153.89l-14-14.08a3.88,3.88,0,0,0,.31-.26l22.26-22.32ZM376.2,89a1.89,1.89,0,0,0-.31.25l-22.32,22.32L340,98.05l22.6-22.6Zm16.85,16.86-22.59,22.6L356.4,114.41l22.31-22.32a1.94,1.94,0,0,0,.26-.31Zm19.26,6.74-60.53,60.54L341.61,163l60.53-60.54Z"/><path class="cls-2" d="M584.69,178.23a7.93,7.93,0,1,0,7.93-7.93h0A7.94,7.94,0,0,0,584.69,178.23Zm5,0a2.93,2.93,0,1,1,2.93,2.93h0A2.93,2.93,0,0,1,589.69,178.23Z"/><path class="cls-2" d="M610,145.48a8,8,0,0,0-7.92-7.93h0a7.93,7.93,0,1,0,7.93,7.93h0Zm-5,0a2.93,2.93,0,1,1-2.93-2.93h0A2.93,2.93,0,0,1,605,145.48Z"/><path class="cls-2" d="M616.77,184.81l-42.38-42.38a2.5,2.5,0,0,1,0-3.54h0a2.5,2.5,0,0,1,3.53,0l42.39,42.34a2.5,2.5,0,0,1-3.54,3.53Z"/><path class="cls-2" d="M638.21,161.85a41.47,41.47,0,1,0-41.47,41.47A41.47,41.47,0,0,0,638.21,161.85Zm-4,0a37.47,37.47,0,1,1-37.47-37.47A37.48,37.48,0,0,1,634.21,161.85Z"/><path class="cls-2" d="M490.71,129.79a2,2,0,0,0,1.47-.86L517.36,92.3a2,2,0,0,0,.31-1.5l23.45-23.45a2,2,0,0,0,0-2.83h0L494.21,17.6a2,2,0,0,0-2.83,0h0L466.89,42.09,430.41,67.16a2,2,0,0,0-.52,2.78,2.17,2.17,0,0,0,.24.29l59,59A2,2,0,0,0,490.71,129.79Zm24.38-42.07L471,43.63l21.79-21.78,44.09,44.09Zm-24.85,37L434.66,69.14l33.28-22.91,45.18,45.19Z"/><polygon class="cls-2" points="480.36 44.56 477.38 41.57 479.82 39.13 482.81 42.11 480.36 44.56"/><polygon class="cls-2" points="485.66 49.85 482.67 46.86 485.11 44.42 488.1 47.41 485.66 49.85"/><polygon class="cls-2" points="490.95 55.15 487.96 52.16 490.41 49.72 493.4 52.7 490.95 55.15"/><polygon class="cls-2" points="496.25 60.44 493.26 57.46 495.7 55.01 498.69 58 496.25 60.44"/><polygon class="cls-2" points="501.54 65.73 498.56 62.75 501 60.31 503.98 63.29 501.54 65.73"/><polygon class="cls-2" points="506.84 71.03 503.85 68.04 506.29 65.6 509.28 68.59 506.84 71.03"/><polygon class="cls-2" points="512.13 76.33 509.14 73.34 511.59 70.9 514.57 73.88 512.13 76.33"/><polygon class="cls-2" points="517.43 81.62 514.44 78.63 516.88 76.19 519.87 79.17 517.43 81.62"/><polygon class="cls-2" points="484.44 40.48 481.45 37.5 483.89 35.05 486.88 38.04 484.44 40.48"/><polygon class="cls-2" points="489.73 45.78 486.74 42.79 489.19 40.35 492.17 43.34 489.73 45.78"/><polygon class="cls-2" points="495.02 51.07 492.04 48.09 494.48 45.64 497.47 48.63 495.02 51.07"/><polygon class="cls-2" points="500.32 56.37 497.33 53.38 499.78 50.94 502.76 53.92 500.32 56.37"/><polygon class="cls-2" points="505.62 61.66 502.63 58.67 505.07 56.23 508.06 59.22 505.62 61.66"/><polygon class="cls-2" points="510.91 66.96 507.92 63.97 510.37 61.53 513.35 64.51 510.91 66.96"/><polygon class="cls-2" points="516.21 72.25 513.22 69.26 515.66 66.82 518.65 69.81 516.21 72.25"/><polygon class="cls-2" points="488.51 36.41 485.52 33.42 487.96 30.98 490.95 33.97 488.51 36.41"/><polygon class="cls-2" points="493.81 41.71 490.82 38.72 493.26 36.28 496.25 39.26 493.81 41.71"/><polygon class="cls-2" points="499.1 47 496.11 44.01 498.56 41.57 501.54 44.56 499.1 47"/><polygon class="cls-2" points="504.39 52.29 501.41 49.31 503.85 46.86 506.84 49.85 504.39 52.29"/><polygon class="cls-2" points="509.69 57.59 506.7 54.6 509.14 52.16 512.13 55.15 509.69 57.59"/><polygon class="cls-2" points="514.98 62.88 512 59.9 514.44 57.45 517.43 60.44 514.98 62.88"/><polygon class="cls-2" points="521.5 77.54 518.51 74.56 522.59 70.49 517.29 65.19 519.73 62.75 528.01 71.03 521.5 77.54"/><polygon class="cls-2" points="492.58 32.34 489.6 29.35 492.04 26.91 495.02 29.89 492.58 32.34"/><polygon class="cls-2" points="513.76 53.52 494.89 34.65 497.33 32.2 516.2 51.07 513.76 53.52"/><polygon class="cls-2" points="519.05 58.81 516.07 55.82 518.51 53.38 521.5 56.37 519.05 58.81"/><polygon class="cls-2" points="524.35 64.11 521.36 61.12 523.81 58.67 526.79 61.66 524.35 64.11"/><polygon class="cls-2" points="529.1 63.97 532.09 66.96 529.64 69.4 526.66 66.41 529.1 63.97"/><path class="cls-2" d="M462.17,67.93a1.5,1.5,0,0,1,.44,1.06V85.3a1.5,1.5,0,0,1-3,0V69a1.5,1.5,0,0,1,2.56-1.06Z"/><path class="cls-2" d="M491.74,75.76a1.5,1.5,0,0,1,1.5,1.5V93.57a1.5,1.5,0,0,1-3,0V77.23A1.5,1.5,0,0,1,491.74,75.76Z"/><path class="cls-2" d="M476.42,63.51a1.5,1.5,0,0,1,1.5,1.5v36.17a1.5,1.5,0,0,1-3,0V65a1.5,1.5,0,0,1,1.5-1.5Z"/><path class="cls-2" d="M355.35,14.15c-.36-.92-1.46-2.48-4.77-2.48H265.49c-3.32,0-4.41,1.56-4.77,2.48s-.6,3,2.16,5.48l38.86,35.18A9.05,9.05,0,0,0,306,57v3.66a2,2,0,0,0,2,2,7.59,7.59,0,1,1-7.58,7.6h0a2,2,0,1,0-4,0A11.59,11.59,0,1,0,310,58.79V57a9.24,9.24,0,0,0,4.3-2.16l38.86-35.18C356,17.14,355.72,15.13,355.35,14.15Zm-4,1.58a5,5,0,0,1-.85.93L311.63,51.85a5.56,5.56,0,0,1-7.21,0L265.55,16.67a5.83,5.83,0,0,1-.85-.94,3.42,3.42,0,0,1,.78-.06h85.09a3.51,3.51,0,0,1,.79.06Z"/><path class="cls-2" d="M84.69,443.63a2,2,0,0,1-2.82-2.82,14.35,14.35,0,0,0,0-20.24,2,2,0,0,1,0-2.83h0a2,2,0,0,1,2.82,0A18.31,18.31,0,0,1,84.69,443.63Z"/><path class="cls-2" d="M128.21,388.69a10.22,10.22,0,0,0-14.44-14.48l0,0a1.49,1.49,0,0,0-.23.27l-25,36a26,26,0,0,0-16.8-6.09h0a26.3,26.3,0,1,0,20.19,9.47l36-25A1.53,1.53,0,0,0,128.21,388.69ZM94,430.69A22.26,22.26,0,1,1,87.48,415,22.26,22.26,0,0,1,94,430.69Zm31.5-44.95L96.82,405.61l19.88-28.67a6.22,6.22,0,0,1,8.8,8.8Z"/><path class="cls-2" d="M25.8,339.31l-13-13a2,2,0,0,0-2.83,0h0l-4.85,4.85L-26.7,299.32a2,2,0,0,0-2.83,0h0l-50.85,50.85a2,2,0,0,0,0,2.83h0l31.84,31.84-4.85,4.84a2,2,0,0,0,0,2.83h0l13,13a2,2,0,0,0,2.83,0h0l20.19-20.2a18.66,18.66,0,0,0-.83,2,8.85,8.85,0,0,0,.5,7.8,7.34,7.34,0,0,0,5.37,3.43,6.32,6.32,0,0,0,5.1-2,10.91,10.91,0,0,0,3-7.38,29,29,0,0,0-1.43-9.1c4.16,1.36,10.7,3.17,16.15,3.17,4.76,0,7.59-1.83,9.12-3.36a10.14,10.14,0,0,0,2.72-9.35,8.57,8.57,0,0,0-4.19-5.42c-2.16-1.23-6-2.31-11.85-.51a27,27,0,0,0-5.37,2.5L25.8,342.14a2,2,0,0,0,0-2.83ZM-5,376c3.24-2.52,8.69-6.47,12.5-7.63,3.52-1.08,6.61-1,8.7.16a4.52,4.52,0,0,1,2.27,2.89A6,6,0,0,1,16.81,377a8.65,8.65,0,0,1-6.29,2.19C5.36,379.14-1.16,377.23-5,376Zm-4.64,4.62A25.72,25.72,0,0,1-8.2,389,7,7,0,0,1-10,393.62a2.46,2.46,0,0,1-1.85.89,3.4,3.4,0,0,1-2.4-1.57,4.86,4.86,0,0,1-.12-4.32,33.47,33.47,0,0,1,4.77-8ZM-40,342.52l-22.32,22.32a1.48,1.48,0,0,0-.25.31l-13.56-13.56L-53.54,329Zm16.89,16.89L-45.7,382l-14.1-14.09a2.42,2.42,0,0,0,.31-.25l22.31-22.32Zm8.57-42.28a1.48,1.48,0,0,0-.31.25l-22.32,22.31L-50.7,326.16l22.6-22.59ZM2.3,334l-22.59,22.59-14.06-14.06L-12,320.23a3.88,3.88,0,0,0,.26-.31Zm19.26,6.74L-39,401.23l-10.14-10.14,60.53-60.53Z"/><path class="cls-2" d="M193.94,406.34a7.93,7.93,0,1,0,7.93-7.93h0A7.94,7.94,0,0,0,193.94,406.34Zm5,0a2.93,2.93,0,1,1,3,2.89h0A2.93,2.93,0,0,1,198.94,406.34Z"/><path class="cls-2" d="M219.25,373.6a7.93,7.93,0,0,0-7.92-7.93h0a7.93,7.93,0,1,0,7.93,7.93h0Zm-5,0a2.93,2.93,0,1,1-2.93-2.93h0A2.93,2.93,0,0,1,214.25,373.6Z"/><path class="cls-2" d="M226,412.93l-42.36-42.39a2.5,2.5,0,1,1,3.33-3.73,1.89,1.89,0,0,1,.2.2l42.39,42.38a2.51,2.51,0,0,1-3.56,3.54Z"/><path class="cls-2" d="M247.46,390A41.47,41.47,0,1,0,206,431.44h0A41.51,41.51,0,0,0,247.46,390Zm-4,0A37.47,37.47,0,1,1,206,352.5h0A37.51,37.51,0,0,1,243.46,390Z"/><path class="cls-2" d="M100,357.9a2,2,0,0,0,1.47-.86l25.18-36.62a2,2,0,0,0,.31-1.5l23.45-23.46a2,2,0,0,0,0-2.83h0L103.5,245.72a2,2,0,0,0-2.83,0h0L76.14,270.23l-36.48,25a2,2,0,0,0-.28,3.06l59,59A2,2,0,0,0,100,357.9Zm24.38-42.06L80.25,271.75,102,250l44.09,44.09Zm-24.85,37L43.91,297.23l33.28-22.87,45.18,45.18Z"/><polygon class="cls-2" points="89.61 272.67 86.63 269.68 89.07 267.24 92.06 270.23 89.61 272.67"/><polygon class="cls-2" points="94.91 277.97 91.92 274.98 94.36 272.54 97.35 275.52 94.91 277.97"/><polygon class="cls-2" points="100.2 283.26 97.22 280.27 99.66 277.83 102.65 280.82 100.2 283.26"/><polygon class="cls-2" points="105.5 288.55 102.51 285.57 104.95 283.13 107.94 286.11 105.5 288.55"/><polygon class="cls-2" points="110.79 293.85 107.81 290.86 110.25 288.42 113.23 291.41 110.79 293.85"/><polygon class="cls-2" points="116.09 299.14 113.1 296.16 115.54 293.71 118.53 296.7 116.09 299.14"/><polygon class="cls-2" points="121.38 304.44 118.39 301.45 120.84 299.01 123.82 302 121.38 304.44"/><polygon class="cls-2" points="126.68 309.73 123.69 306.75 126.13 304.3 129.12 307.29 126.68 309.73"/><polygon class="cls-2" points="93.69 268.6 90.7 265.61 93.14 263.17 96.13 266.15 93.69 268.6"/><polygon class="cls-2" points="98.98 273.89 95.99 270.91 98.44 268.46 101.42 271.45 98.98 273.89"/><polygon class="cls-2" points="104.28 279.19 101.29 276.2 103.73 273.76 106.72 276.74 104.28 279.19"/><polygon class="cls-2" points="109.57 284.48 106.58 281.49 109.03 279.05 112.01 282.04 109.57 284.48"/><polygon class="cls-2" points="114.86 289.78 111.88 286.79 114.32 284.35 117.31 287.33 114.86 289.78"/><polygon class="cls-2" points="120.16 295.07 117.17 292.08 119.61 289.64 122.6 292.63 120.16 295.07"/><polygon class="cls-2" points="125.45 300.37 122.47 297.38 124.91 294.94 127.9 297.92 125.45 300.37"/><polygon class="cls-2" points="97.76 264.52 94.77 261.54 97.22 259.09 100.2 262.08 97.76 264.52"/><polygon class="cls-2" points="103.06 269.82 100.07 266.83 102.51 264.39 105.5 267.38 103.06 269.82"/><polygon class="cls-2" points="108.35 275.11 105.36 272.13 107.81 269.68 110.79 272.67 108.35 275.11"/><polygon class="cls-2" points="113.64 280.41 110.66 277.42 113.1 274.98 116.09 277.97 113.64 280.41"/><polygon class="cls-2" points="118.94 285.7 115.95 282.72 118.39 280.27 121.38 283.26 118.94 285.7"/><polygon class="cls-2" points="124.23 291 121.25 288.01 123.69 285.57 126.68 288.55 124.23 291"/><polygon class="cls-2" points="130.75 305.66 127.76 302.67 131.84 298.6 126.54 293.31 128.98 290.86 137.26 299.14 130.75 305.66"/><polygon class="cls-2" points="101.83 260.45 98.85 257.47 101.29 255.02 104.28 258.01 101.83 260.45"/><polygon class="cls-2" points="123.01 281.63 104.14 262.76 106.58 260.32 125.45 279.19 123.01 281.63"/><polygon class="cls-2" points="128.31 286.92 125.32 283.94 127.76 281.49 130.75 284.48 128.31 286.92"/><polygon class="cls-2" points="133.6 292.22 130.61 289.23 133.06 286.79 136.04 289.78 133.6 292.22"/><polygon class="cls-2" points="138.35 292.08 141.34 295.07 138.89 297.51 135.91 294.53 138.35 292.08"/><path class="cls-2" d="M71.42,296a1.5,1.5,0,0,1,.44,1.06v16.32a1.5,1.5,0,0,1-3,0V297.1A1.5,1.5,0,0,1,71.42,296Z"/><path class="cls-2" d="M101,303.87a1.5,1.5,0,0,1,1.5,1.5v16.32a1.5,1.5,0,0,1-3,0V305.37a1.5,1.5,0,0,1,1.5-1.5Z"/><path class="cls-2" d="M85.67,291.63a1.42,1.42,0,0,1,1.06.44,1.5,1.5,0,0,1,.44,1.06v36.16a1.5,1.5,0,0,1-3,0V293.13A1.5,1.5,0,0,1,85.67,291.63Z"/></pattern></defs><g id="Layer_2" data-name="Layer 2"><g id="Layer_1-2" data-name="Layer 1"><g id="Layer_2-2" data-name="Layer 2"><g id="Layer_1-2-2" data-name="Layer 1-2"><rect class="cls-3" width="1920" height="1080"/></g></g></g></g></svg>