<svg xmlns="http://www.w3.org/2000/svg" xmlns:xlink="http://www.w3.org/1999/xlink" viewBox="0 0 3977.55 2279.84"><defs><style>.cls-1{fill:none;}.cls-2{fill:#2e3535;}.cls-3{fill:url(#New_Pattern);}</style><pattern id="New_Pattern" data-name="New Pattern" width="781.5" height="456.23" patternTransform="translate(-1902.38 -523.77) scale(1.41 1.35)" patternUnits="userSpaceOnUse" viewBox="0 0 781.5 456.23"><rect class="cls-1" width="781.5" height="456.23"/><path class="cls-2" d="M671.15,344.06a2,2,0,0,1-.38-1.49l9.8-68.88a2,2,0,0,1,.78-1.32,2,2,0,0,1,1.48-.38c3,.42,5.93.77,8.9,1.07a21.65,21.65,0,0,1,36.86-13.22,21.44,21.44,0,0,1,6.23,13.22c3-.3,5.95-.65,8.9-1.07a2,2,0,0,1,2.26,1.7l9.81,68.88a2,2,0,0,1-1.7,2.26,289.59,289.59,0,0,1-81.62,0A2,2,0,0,1,671.15,344.06Zm24.57-70.64a219,219,0,0,0,35.12,0,17.64,17.64,0,0,0-35.12,0ZM675,341.15a286.15,286.15,0,0,0,76.53,0l-9.24-64.93q-3.67.5-7.37.85v4.27a4.25,4.25,0,1,1-4,0v-3.91a221.29,221.29,0,0,1-35.3,0v3.91a4.24,4.24,0,1,1-4,0v-4.27q-3.71-.36-7.38-.85Z"/><path class="cls-2" d="M771.47,216.65H783.2L797.53,286a2,2,0,0,0,2,1.59H874.1a2,2,0,0,0,1.95-1.58l10-47.34a2,2,0,0,0-1.95-2.41H823.46a2,2,0,0,0,0,4h58.17l-5.81,27.48H817.37a2,2,0,0,0,0,4H875l-2.51,11.85H801.12L795.43,256h57.72a2,2,0,0,0,0-4H794.6l-7.81-37.8a2,2,0,0,0-2-1.59H771.47a2,2,0,0,0,0,4Z"/><path class="cls-2" d="M677.91,444.38l65.59-65.6a2,2,0,0,1,1.62-.57,2,2,0,0,1,1.47.89L773,419.64a2,2,0,0,1-.26,2.51L720,474.91a2,2,0,0,1-2.51.25l-11.14-7.32h0l-29-19.07a2.17,2.17,0,0,1-.49-.32l-18.51-12.17L650,444.57a2,2,0,0,1-2.83-2.83l9.44-9.44a2,2,0,0,1,2.52-.26ZM759,405.53V430.2l9.72-9.73Zm-12.4-19v56.1l8.4-8.39V399.57c0-.06,0-.11,0-.16Zm-12.4,7.42V455l8.43-8.43a1.36,1.36,0,0,1,0-.29v-61l-8.42,8.42A1.1,1.1,0,0,1,734.23,393.91Zm-12.4,12.2v61.28l8.42-8.42a1.36,1.36,0,0,1,0-.2V397.71Zm-12.39,12.65V465.1l8.39,5.52V410.11l-8.42,8.42A1.81,1.81,0,0,1,709.44,418.76ZM697,430.9V457l8.39,5.52v-40Zm-15.72,15.72,11.72,7.7V434.9Z"/><path class="cls-2" d="M777.86,441.88a7.13,7.13,0,1,1,0-10.09A7.14,7.14,0,0,1,777.86,441.88ZM775,434.62a3.14,3.14,0,1,0,0,4.44A3.15,3.15,0,0,0,775,434.62Z"/><path class="cls-2" d="M566.31,426.17a2,2,0,0,1,0-2.83l37.15-37.15a2.05,2.05,0,0,1,1-.55h0l19.61-3.9a2,2,0,0,1,1.81.55l.7.7c4.7-4.41,13.63-11.88,17.09-8.43s-4,12.39-8.43,17.09l.7.7a2,2,0,0,1,.54,1.8l-3.9,19.62h0a2,2,0,0,1-.54,1l-37.15,37.15a2,2,0,0,1-1.42.59,2,2,0,0,1-1.41-.59Zm63.12-40.35,3,3c4.74-5.07,7.23-9.06,7.94-10.95C638.48,378.59,634.5,381.08,629.43,385.82Zm-58.88,38.94,22.94,22.94,35.31-35.31,3.53-17.77,0-.2-2.75-2.75-3-3.05a64.2,64.2,0,0,0-6.33,7.46,8.56,8.56,0,0,1,1,.87,7.13,7.13,0,0,1,.87,1.05,8,8,0,1,1-5.83-3.35,69.85,69.85,0,0,1,7.3-8.74l-17.77,3.54Zm48.21-24.62c-.1-.12-.18-.25-.29-.36a3.37,3.37,0,0,0-.37-.29,4,4,0,1,0,.36,5.95,3.88,3.88,0,0,0,.78-1.13A4,4,0,0,0,618.76,400.14Z"/><path class="cls-2" d="M380.72,444.76h11.73l14.33,69.32a2,2,0,0,0,2,1.6h74.61a2,2,0,0,0,1.95-1.59l10-47.33a2,2,0,0,0-1.95-2.42H432.71a2,2,0,0,0,0,4h58.17l-5.81,27.48H426.62a2,2,0,0,0,0,4h57.61l-2.51,11.86H410.37l-5.69-27.52H462.4a2,2,0,0,0,0-4H403.85L396,442.35a2,2,0,0,0-2-1.59H380.72a2,2,0,0,0,0,4Z"/><path class="cls-2" d="M113.72,432.71H29.55a2,2,0,0,1-2-2.42L43.1,358.61A2,2,0,0,1,45.05,357h9.57a17,17,0,0,1,34,0h9.57a2,2,0,0,1,2,1.58l15.5,71.68a2,2,0,0,1-2,2.42ZM58.62,357h26a13,13,0,0,0-26,0Zm52.62,71.68L96.61,361h-8v4a3.9,3.9,0,1,1-4,0v-4h-26v4a3.9,3.9,0,1,1-4,0v-4h-8L32,428.71Z"/><path class="cls-2" d="M-10,216.65H1.7L16,286a2,2,0,0,0,2,1.59H92.6a2,2,0,0,0,2-1.58l10-47.34a2,2,0,0,0-2-2.41H42a2,2,0,0,0,0,4h58.17l-5.81,27.48H35.87a2,2,0,0,0,0,4H93.48L91,283.56H19.62L13.93,256H71.65a2,2,0,0,0,0-4H13.1l-7.81-37.8a2,2,0,0,0-2-1.59H-10a2,2,0,0,0-2,2A2,2,0,0,0-10,216.65Z"/><path class="cls-2" d="M82.27,305.15A7.14,7.14,0,1,1,89.41,298,7.14,7.14,0,0,1,82.27,305.15Zm0-4A3.14,3.14,0,1,0,79.14,298,3.15,3.15,0,0,0,82.27,301.15Z"/><path class="cls-2" d="M27.55,305.15A7.14,7.14,0,1,1,34.68,298,7.14,7.14,0,0,1,27.55,305.15Zm0-4A3.14,3.14,0,1,0,24.41,298,3.14,3.14,0,0,0,27.55,301.15Z"/><path class="cls-2" d="M128.21,523.77a10.22,10.22,0,1,1-14.46,14.46,1.49,1.49,0,0,1-.23-.27l-25-36A26,26,0,0,1,71.75,508h0a26.27,26.27,0,1,1,20.16-9.45l36,25A2,2,0,0,1,128.21,523.77ZM94,481.77a22.26,22.26,0,1,0-6.52,15.73A22.11,22.11,0,0,0,94,481.77Zm31.5,45L96.82,506.85l19.88,28.67a6.22,6.22,0,0,0,8.8-8.8Z"/><path class="cls-2" d="M245.73,366.38a11.86,11.86,0,0,1-8.79,11.13v59.12a2,2,0,0,1-2,2h-76.5a2,2,0,0,1-2-2V377.72a11.68,11.68,0,0,1-9.71-11.34c0-5.53,7.52-16.88,8.38-18.16a2,2,0,0,1,1.66-.88h78.92a2,2,0,0,1,1.67.89C238.21,349.53,245.73,361.06,245.73,366.38Zm-66.79,37h-18.5v31.25h18.5Zm54-14.5h-50v45.75h50Zm0-11.08a11.51,11.51,0,0,1-8.21-4.95,11.49,11.49,0,0,1-19,0,11.49,11.49,0,0,1-19,0,11.49,11.49,0,0,1-19,0,11.56,11.56,0,0,1-7.29,4.81v21.72h18.5v-12.5a2,2,0,0,1,2-2h52Zm8.79-11.42c0-2.92-4.15-10.4-7.13-15H157.84c-3,4.57-7.11,12-7.11,15a7.6,7.6,0,0,0,7.5,7.5,7.52,7.52,0,0,0,7.5-7.5,2,2,0,0,1,4,0,7.5,7.5,0,0,0,15,0,2,2,0,0,1,4,0,7.5,7.5,0,0,0,15,0,2,2,0,0,1,4,0,7.5,7.5,0,0,0,15,0,2,2,0,0,1,4,0,7.51,7.51,0,0,0,7.5,7.5A7.8,7.8,0,0,0,241.73,366.38Z"/><path class="cls-2" d="M195.07,410.05a2,2,0,0,0,1.41-.59l9-9a2,2,0,1,0-2.83-2.83l-9,9a2,2,0,0,0,1.42,3.41Z"/><path class="cls-2" d="M195.07,427.43a2,2,0,0,0,1.41-.59l26.4-26.4a2,2,0,1,0-2.83-2.83L193.65,424a2,2,0,0,0,1.42,3.41Z"/><path class="cls-2" d="M220.05,415l-9,9a2,2,0,1,0,2.83,2.83l9-9a2,2,0,1,0-2.83-2.82Z"/><path class="cls-2" d="M169.69,421.83a2.83,2.83,0,1,0-2.83-2.83A2.83,2.83,0,0,0,169.69,421.83Z"/><path class="cls-2" d="M677.91-11.85l65.59-65.6a2,2,0,0,1,1.62-.57,2,2,0,0,1,1.47.89L773-36.58a2,2,0,0,1-.26,2.5L720,18.68a2,2,0,0,1-2.51.26l-11.14-7.33h0l-29-19.07a1.88,1.88,0,0,1-.49-.32L658.31-19.95,650-11.66a2,2,0,0,1-2.83,0,2,2,0,0,1,0-2.83l9.44-9.44a2,2,0,0,1,2.52-.26ZM759-50.7V-26l9.72-9.73Zm-12.4-19v56.1L755-22V-56.66c0-.06,0-.11,0-.16Zm-12.4,7.42V-1.24l8.43-8.43a1.36,1.36,0,0,1,0-.29v-61l-8.42,8.42A1.1,1.1,0,0,1,734.23-62.32Zm-12.4,12.2V11.16l8.42-8.42a1.23,1.23,0,0,1,0-.2V-58.52ZM709.44-37.47V8.87l8.39,5.52V-46.12l-8.42,8.42A1.81,1.81,0,0,1,709.44-37.47ZM697-25.32v26l8.39,5.52v-40ZM681.32-9.61,693-1.91V-21.33Z"/><path class="cls-2" d="M729.07,14.26a7.14,7.14,0,1,1,0,10.09A7.16,7.16,0,0,1,729.07,14.26Zm2.83,2.83a3.14,3.14,0,1,0,4.44,0A3.14,3.14,0,0,0,731.9,17.09Z"/><path class="cls-2" d="M644.34,29.89V86.43a2,2,0,0,1-2,2H558.05a2,2,0,0,1-2-2V29.89a2,2,0,0,1,2-2h84.29A2,2,0,0,1,644.34,29.89Zm-4,19.83H560.05V84.43h80.29Zm0-17.83H560.05v8h80.29Z"/><path class="cls-2" d="M652.37,17.87h-72a2,2,0,0,0,0,4h70V76.41a2,2,0,0,0,4,0V19.87A2,2,0,0,0,652.37,17.87Z"/><path class="cls-2" d="M565.21,61.22h28.17a2,2,0,0,0,0-4H565.21a2,2,0,0,0,0,4Z"/><path class="cls-2" d="M565.21,70.26h15.17a2,2,0,0,0,0-4H565.21a2,2,0,0,0,0,4Z"/><path class="cls-2" d="M565.21,79.31h23.33a2,2,0,0,0,0-4H565.21a2,2,0,0,0,0,4Z"/><path class="cls-2" d="M592.38,77.31a2,2,0,0,0,2,2h21.7a2,2,0,0,0,0-4h-21.7A2,2,0,0,0,592.38,77.31Z"/><path class="cls-2" d="M622.52,79.31h12.67a2,2,0,0,0,0-4H622.52a2,2,0,0,0,0,4Z"/><path class="cls-2" d="M807.3,116.92l-13,13a2,2,0,0,1-2.83,0l-4.85-4.85L754.8,156.91a2,2,0,0,1-2.83,0l-50.85-50.85a2,2,0,0,1,0-2.83L733,71.39l-4.85-4.84a2,2,0,0,1,0-2.83l13-13a2,2,0,0,1,2.83,0l20.19,20.2c-.31-.65-.59-1.3-.83-2a8.85,8.85,0,0,1,.5-7.8,7.34,7.34,0,0,1,5.37-3.43,6.32,6.32,0,0,1,5.1,2,10.91,10.91,0,0,1,3,7.38,29.2,29.2,0,0,1-1.43,9.1c4.16-1.36,10.7-3.17,16.15-3.17,4.76,0,7.59,1.83,9.12,3.36a10.13,10.13,0,0,1,2.72,9.35,8.57,8.57,0,0,1-4.19,5.42c-2.16,1.23-6,2.31-11.85.51a27.32,27.32,0,0,1-5.37-2.5l24.86,24.86A2,2,0,0,1,807.3,116.92ZM776.49,80.27c3.24,2.52,8.69,6.47,12.5,7.63,3.52,1.08,6.61,1,8.7-.16A4.52,4.52,0,0,0,800,84.85a6,6,0,0,0-1.66-5.57A8.68,8.68,0,0,0,792,77.09C786.86,77.09,780.34,79,776.49,80.27Zm-4.64-4.62a26,26,0,0,0,1.44-8.38,7,7,0,0,0-1.85-4.66,2.46,2.46,0,0,0-1.85-.89,3.38,3.38,0,0,0-2.4,1.57,4.87,4.87,0,0,0-.12,4.32A33.4,33.4,0,0,0,771.85,75.65Zm-30.36,38.06L719.18,91.39a1.48,1.48,0,0,1-.25-.31l-13.56,13.56L728,127.24Zm16.89-16.89-22.59-22.6L721.7,88.31a2.42,2.42,0,0,1,.31.25l22.31,22.32ZM767,139.1a1.48,1.48,0,0,1-.31-.25l-22.32-22.31-13.53,13.53,22.6,22.59Zm16.85-16.86L761.21,99.65l-14.06,14.06L769.46,136a2.51,2.51,0,0,1,.26.31Zm19.26-6.74L742.53,55,732.36,65.14l60.53,60.53Z"/><path class="cls-2" d="M746.1,214c-.36.93-1.46,2.49-4.77,2.49H656.24c-3.32,0-4.41-1.56-4.77-2.49s-.6-3,2.16-5.48l38.86-35.18a9.24,9.24,0,0,1,4.29-2.15V167.5a2,2,0,0,1,2-2,7.59,7.59,0,1,0-7.58-7.59,2,2,0,0,1-4,0,11.59,11.59,0,1,1,13.58,11.41v1.83a9.32,9.32,0,0,1,4.3,2.15l38.86,35.19C746.7,211,746.47,213,746.1,214Zm-4-1.57a5.6,5.6,0,0,0-.85-.94l-38.87-35.18a5.55,5.55,0,0,0-7.21,0l-38.87,35.18a5.6,5.6,0,0,0-.85.94,4.94,4.94,0,0,0,.78.06h85.09A4.94,4.94,0,0,0,742.11,212.39Z"/><path class="cls-2" d="M504.47,204.6H420.3a2,2,0,0,1-2-2.43l15.51-71.68a2,2,0,0,1,1.95-1.58h9.57a17,17,0,0,1,34,0H489a2,2,0,0,1,2,1.58l15.5,71.68a2,2,0,0,1-2,2.43Zm-55.1-75.69h26a13,13,0,0,0-26,0ZM502,200.6l-14.63-67.69h-7.95v4a3.9,3.9,0,1,1-4,0v-4H449.36v4a3.9,3.9,0,1,1-4,0v-4h-7.95L422.78,200.6Z"/><path class="cls-2" d="M280.4,115.94a2,2,0,0,1-.38-1.48l9.8-68.89a2,2,0,0,1,2.26-1.7q4.44.63,8.9,1.07a21.65,21.65,0,0,1,36.86-13.21,21.44,21.44,0,0,1,6.23,13.21c3-.3,5.95-.65,8.9-1.07a2,2,0,0,1,1.48.38,2,2,0,0,1,.78,1.32L365,114.46a2,2,0,0,1-1.7,2.26,290.29,290.29,0,0,1-40.81,2.89,290.18,290.18,0,0,1-40.81-2.89A2,2,0,0,1,280.4,115.94ZM305,45.3a216.74,216.74,0,0,0,35.12,0,17.64,17.64,0,0,0-17.56-15.91A17.66,17.66,0,0,0,305,45.3ZM284.26,113a288.19,288.19,0,0,0,38.27,2.57A288.15,288.15,0,0,0,360.79,113l-9.24-64.93c-2.45.32-4.91.61-7.37.85v4.27a4.25,4.25,0,1,1-4,0V49.31a221.29,221.29,0,0,1-35.3,0v3.92a4.24,4.24,0,1,1-4,0V49c-2.47-.24-4.93-.53-7.38-.85Z"/><path class="cls-2" d="M380.72-11.47h11.73l14.33,69.32a2,2,0,0,0,2,1.6h74.61a2,2,0,0,0,1.95-1.59l10-47.33a2,2,0,0,0-.4-1.68,2,2,0,0,0-1.55-.74H432.71a2,2,0,0,0,0,4h58.17l-5.81,27.48H426.62a2,2,0,0,0,0,4h57.61l-2.51,11.86H410.37l-5.69-27.52H462.4a2,2,0,0,0,0-4H403.85L396-13.87a2,2,0,0,0-2-1.6H380.72a2,2,0,0,0-2,2A2,2,0,0,0,380.72-11.47Z"/><path class="cls-2" d="M473,77a7.14,7.14,0,1,1,7.14-7.13A7.14,7.14,0,0,1,473,77Zm0-4a3.14,3.14,0,1,0-3.13-3.13A3.14,3.14,0,0,0,473,73Z"/><path class="cls-2" d="M418.3,77a7.14,7.14,0,1,1,7.13-7.13A7.14,7.14,0,0,1,418.3,77Zm0-4a3.14,3.14,0,1,0-3.14-3.13A3.13,3.13,0,0,0,418.3,73Z"/><path class="cls-2" d="M287.16,216.26l65.59-65.59a2,2,0,0,1,1.62-.58,2,2,0,0,1,1.47.9l26.4,40.54A2,2,0,0,1,382,194l-52.76,52.76a2,2,0,0,1-2.51.26l-11.14-7.32h0l-29-19.06a2.17,2.17,0,0,1-.49-.32l-18.51-12.17-8.29,8.29a2,2,0,0,1-2.83-2.83l9.44-9.44a2,2,0,0,1,2.52-.26Zm81.12-38.85v24.67l9.72-9.73Zm-12.4-19v56.11l8.4-8.4V171.45s0-.1,0-.16Zm-12.4,7.42v61.09l8.43-8.43a1.43,1.43,0,0,1,0-.29v-61l-8.42,8.41A1.1,1.1,0,0,1,343.48,165.79ZM331.08,178v61.29l8.42-8.42a1.36,1.36,0,0,1,0-.2V169.59Zm-12.39,12.65V237l8.39,5.52V182l-8.42,8.42A2.08,2.08,0,0,1,318.69,190.64Zm-12.4,12.15v26.05l8.39,5.52v-40Zm-15.72,15.72,11.72,7.7V206.79Z"/><path class="cls-2" d="M387.11,213.77a7.13,7.13,0,1,1,0-10.09A7.15,7.15,0,0,1,387.11,213.77Zm-2.82-7.27a3.14,3.14,0,1,0,0,4.44A3.14,3.14,0,0,0,384.29,206.5Z"/><path class="cls-2" d="M338.32,242.37a7.14,7.14,0,1,1,0,10.1A7.16,7.16,0,0,1,338.32,242.37Zm2.83,2.83a3.14,3.14,0,1,0,4.44,0A3.15,3.15,0,0,0,341.15,245.2Z"/><path class="cls-2" d="M253.59,258v56.54a2,2,0,0,1-2,2H167.3a2,2,0,0,1-2-2V258a2,2,0,0,1,2-2h84.29A2,2,0,0,1,253.59,258Zm-4,19.84H169.3v34.7h80.29Zm0-17.84H169.3v8h80.29Z"/><path class="cls-2" d="M261.62,246h-72a2,2,0,0,0,0,4h70v54.54a2,2,0,0,0,4,0V248A2,2,0,0,0,261.62,246Z"/><path class="cls-2" d="M174.46,289.34h28.17a2,2,0,0,0,0-4H174.46a2,2,0,1,0,0,4Z"/><path class="cls-2" d="M174.46,298.38h15.17a2,2,0,0,0,0-4H174.46a2,2,0,0,0,0,4Z"/><path class="cls-2" d="M174.46,307.42h23.33a2,2,0,1,0,0-4H174.46a2,2,0,1,0,0,4Z"/><path class="cls-2" d="M201.63,305.42a2,2,0,0,0,2,2h21.7a2,2,0,0,0,0-4h-21.7A2,2,0,0,0,201.63,305.42Z"/><path class="cls-2" d="M231.77,307.42h12.67a2,2,0,0,0,0-4H231.77a2,2,0,0,0,0,4Z"/><path class="cls-2" d="M175.56,198.06a2,2,0,0,1,0-2.83l37.15-37.15a1.91,1.91,0,0,1,1-.55h0l19.61-3.9a2,2,0,0,1,1.81.55l.7.7c4.7-4.42,13.63-11.88,17.09-8.43s-4,12.39-8.43,17.08l.7.7a2,2,0,0,1,.54,1.81l-3.9,19.61h0a2,2,0,0,1-.54,1l-37.15,37.15a2,2,0,0,1-1.42.58,2,2,0,0,1-1.41-.58Zm63.12-40.35,3,3c4.74-5.07,7.23-9,7.94-10.94C247.73,150.48,243.75,153,238.68,157.71ZM179.8,196.64l22.94,23,35.31-35.31,3.53-17.77,0-.2-2.75-2.75-3-3.05A64.2,64.2,0,0,0,229.5,168a7.74,7.74,0,0,1,1,.87,7.13,7.13,0,0,1,.87,1,8,8,0,0,1-.87,10.26,8,8,0,1,1-5-13.62,69.68,69.68,0,0,1,7.3-8.73l-17.77,3.53ZM228,172c-.1-.12-.18-.25-.29-.36s-.24-.2-.37-.3a4,4,0,1,0,.36,6,3.88,3.88,0,0,0,.78-1.13A4,4,0,0,0,228,172Z"/><path class="cls-2" d="M475.44,240.71a2,2,0,1,0-2.82,2.83,14.33,14.33,0,0,1,0,20.23,2,2,0,1,0,2.82,2.83,18.31,18.31,0,0,0,0-25.89Z"/><path class="cls-2" d="M519,295.66a10.22,10.22,0,0,1-14.46,14.46,2,2,0,0,1-.23-.28l-25-36a26,26,0,0,1-16.8,6.09h0a26.27,26.27,0,1,1,20.16-9.45l36,25A1.49,1.49,0,0,1,519,295.66Zm-34.21-42a22.26,22.26,0,1,0-6.52,15.73A22.13,22.13,0,0,0,484.75,253.66Zm31.5,45-28.68-19.88,19.88,28.68a6.22,6.22,0,0,0,8.8-8.8Z"/><path class="cls-2" d="M636.48,138.26a11.87,11.87,0,0,1-8.79,11.14v59.11a2,2,0,0,1-2,2h-76.5a2,2,0,0,1-2-2V149.6a11.67,11.67,0,0,1-9.71-11.34c0-5.53,7.52-16.88,8.38-18.15a2,2,0,0,1,1.66-.89h78.92a2,2,0,0,1,1.67.9C629,121.42,636.48,132.94,636.48,138.26Zm-66.79,37h-18.5v31.25h18.5Zm54-14.5h-50v45.75h50Zm0-11.07a11.52,11.52,0,0,1-8.21-5,11.49,11.49,0,0,1-19,0,11.49,11.49,0,0,1-19,0,11.49,11.49,0,0,1-19,0,11.53,11.53,0,0,1-7.29,4.82v21.71h18.5v-12.5a2,2,0,0,1,2-2h52Zm8.79-11.43c0-2.91-4.15-10.39-7.13-15H548.59c-3,4.57-7.11,12-7.11,15a7.59,7.59,0,0,0,7.5,7.5,7.51,7.51,0,0,0,7.5-7.5,2,2,0,0,1,4,0,7.5,7.5,0,0,0,15,0,2,2,0,0,1,4,0,7.5,7.5,0,0,0,15,0,2,2,0,0,1,4,0,7.5,7.5,0,0,0,15,0,2,2,0,0,1,4,0,7.5,7.5,0,0,0,7.5,7.5A7.8,7.8,0,0,0,632.48,138.26Z"/><path class="cls-2" d="M585.82,181.94a2,2,0,0,0,1.41-.59l9-9a2,2,0,1,0-2.83-2.83l-9,9a2,2,0,0,0,1.42,3.42Z"/><path class="cls-2" d="M585.82,199.32a2,2,0,0,0,1.41-.59l26.4-26.4a2,2,0,0,0-2.83-2.83l-26.4,26.4a2,2,0,0,0,1.42,3.42Z"/><path class="cls-2" d="M610.8,186.88l-9,9a2,2,0,0,0,1.42,3.41,2,2,0,0,0,1.41-.58l9-9a2,2,0,0,0-2.83-2.83Z"/><path class="cls-2" d="M560.44,193.71a2.83,2.83,0,1,0-2.83-2.82A2.82,2.82,0,0,0,560.44,193.71Z"/><path class="cls-2" d="M416.55,345l-13,13a2,2,0,0,1-2.83,0l-4.85-4.84L364.05,385a2,2,0,0,1-2.83,0l-50.85-50.85a2,2,0,0,1,0-2.83l31.84-31.83-4.85-4.85a2,2,0,0,1,0-2.82l13-13a2,2,0,0,1,2.83,0L373.38,299c-.31-.65-.59-1.3-.83-1.94a8.87,8.87,0,0,1,.5-7.81,7.36,7.36,0,0,1,5.37-3.43,6.3,6.3,0,0,1,5.1,2,10.9,10.9,0,0,1,3,7.37,29.1,29.1,0,0,1-1.43,9.1c4.16-1.36,10.7-3.16,16.15-3.16,4.76,0,7.59,1.82,9.12,3.36a10.12,10.12,0,0,1,2.72,9.34,8.55,8.55,0,0,1-4.19,5.42c-2.16,1.23-6,2.32-11.85.51a26.75,26.75,0,0,1-5.37-2.5l24.86,24.86A2,2,0,0,1,416.55,345Zm-30.81-36.65c3.24,2.53,8.69,6.47,12.5,7.64,3.52,1.08,6.61,1,8.7-.16a4.56,4.56,0,0,0,2.27-2.9,6,6,0,0,0-1.66-5.57,8.72,8.72,0,0,0-6.29-2.19C396.11,305.21,389.59,307.09,385.74,308.38Zm-4.64-4.62a25.88,25.88,0,0,0,1.44-8.37,6.94,6.94,0,0,0-1.85-4.66,2.48,2.48,0,0,0-1.85-.9,3.41,3.41,0,0,0-2.4,1.57,4.89,4.89,0,0,0-.12,4.33A33.53,33.53,0,0,0,381.1,303.76Zm-30.36,38.06-22.31-22.31a1.79,1.79,0,0,1-.25-.31l-13.56,13.56,22.59,22.59Zm16.89-16.89L345,302.34,331,316.42a2.51,2.51,0,0,1,.31.26L353.57,339Zm8.57,42.29a1.89,1.89,0,0,1-.31-.25l-22.32-22.32L340,358.18l22.6,22.6Zm16.85-16.86-22.59-22.6L356.4,341.82l22.31,22.32a1.94,1.94,0,0,1,.26.31Zm19.26-6.74-60.53-60.54-10.17,10.17,60.53,60.54Z"/><path class="cls-2" d="M584.69,278a7.93,7.93,0,1,1,7.93,7.93A7.94,7.94,0,0,1,584.69,278Zm5,0a2.93,2.93,0,1,0,2.93-2.93A2.93,2.93,0,0,0,589.69,278Z"/><path class="cls-2" d="M610,310.75a7.94,7.94,0,0,1-7.92,7.93h0a7.93,7.93,0,1,1,7.93-7.93Zm-5,0a2.93,2.93,0,1,0-2.93,2.93A2.93,2.93,0,0,0,605,310.75Z"/><path class="cls-2" d="M616.77,271.42,574.39,313.8a2.5,2.5,0,0,0,0,3.54,2.5,2.5,0,0,0,3.53,0L620.31,275a2.5,2.5,0,0,0-3.54-3.53Z"/><path class="cls-2" d="M638.21,294.38a41.47,41.47,0,1,1-41.47-41.47A41.51,41.51,0,0,1,638.21,294.38Zm-4,0a37.47,37.47,0,1,0-37.47,37.47A37.51,37.51,0,0,0,634.21,294.38Z"/><path class="cls-2" d="M490.71,326.44a2,2,0,0,1,1.47.86l25.18,36.63a2,2,0,0,1,.31,1.5l23.45,23.45a2,2,0,0,1,0,2.83l-46.91,46.92a2,2,0,0,1-2.83,0l-24.49-24.49-36.48-25.07a2,2,0,0,1-.28-3.07l59-59A2,2,0,0,1,490.71,326.44Zm24.38,42.07L471,412.6l21.79,21.78,44.09-44.09Zm-24.85-37-55.58,55.58L467.94,410l45.18-45.19Z"/><polygon class="cls-2" points="480.36 411.67 477.38 414.66 479.82 417.1 482.81 414.12 480.36 411.67"/><polygon class="cls-2" points="485.66 406.38 482.67 409.37 485.11 411.81 488.1 408.82 485.66 406.38"/><polygon class="cls-2" points="490.95 401.08 487.96 404.07 490.41 406.51 493.4 403.53 490.95 401.08"/><polygon class="cls-2" points="496.25 395.79 493.26 398.77 495.7 401.22 498.69 398.23 496.25 395.79"/><polygon class="cls-2" points="501.54 390.5 498.56 393.48 501 395.92 503.98 392.94 501.54 390.5"/><polygon class="cls-2" points="506.84 385.2 503.85 388.19 506.29 390.63 509.28 387.64 506.84 385.2"/><polygon class="cls-2" points="512.13 379.9 509.14 382.89 511.59 385.33 514.57 382.35 512.13 379.9"/><polygon class="cls-2" points="517.43 374.61 514.44 377.6 516.88 380.04 519.87 377.06 517.43 374.61"/><polygon class="cls-2" points="484.44 415.75 481.45 418.73 483.89 421.18 486.88 418.19 484.44 415.75"/><polygon class="cls-2" points="489.73 410.45 486.74 413.44 489.19 415.88 492.17 412.89 489.73 410.45"/><polygon class="cls-2" points="495.02 405.16 492.04 408.14 494.48 410.59 497.47 407.6 495.02 405.16"/><polygon class="cls-2" points="500.32 399.86 497.33 402.85 499.78 405.29 502.76 402.31 500.32 399.86"/><polygon class="cls-2" points="505.62 394.57 502.63 397.56 505.07 400 508.06 397.01 505.62 394.57"/><polygon class="cls-2" points="510.91 389.27 507.92 392.26 510.37 394.7 513.35 391.72 510.91 389.27"/><polygon class="cls-2" points="516.21 383.98 513.22 386.97 515.66 389.41 518.65 386.42 516.21 383.98"/><polygon class="cls-2" points="488.51 419.82 485.52 422.81 487.96 425.25 490.95 422.26 488.51 419.82"/><polygon class="cls-2" points="493.81 414.52 490.82 417.51 493.26 419.95 496.25 416.97 493.81 414.52"/><polygon class="cls-2" points="499.1 409.23 496.11 412.22 498.56 414.66 501.54 411.67 499.1 409.23"/><polygon class="cls-2" points="504.39 403.94 501.41 406.92 503.85 409.37 506.84 406.38 504.39 403.94"/><polygon class="cls-2" points="509.69 398.64 506.7 401.63 509.14 404.07 512.13 401.08 509.69 398.64"/><polygon class="cls-2" points="514.98 393.35 512 396.33 514.44 398.78 517.43 395.79 514.98 393.35"/><polygon class="cls-2" points="521.5 378.69 518.51 381.67 522.59 385.74 517.29 391.04 519.73 393.48 528.01 385.2 521.5 378.69"/><polygon class="cls-2" points="492.58 423.89 489.6 426.88 492.04 429.32 495.02 426.34 492.58 423.89"/><polygon class="cls-2" points="513.76 402.71 494.89 421.58 497.33 424.03 516.2 405.16 513.76 402.71"/><polygon class="cls-2" points="519.05 397.42 516.07 400.41 518.51 402.85 521.5 399.86 519.05 397.42"/><polygon class="cls-2" points="524.35 392.12 521.36 395.11 523.81 397.56 526.79 394.57 524.35 392.12"/><polygon class="cls-2" points="529.1 392.26 532.09 389.27 529.64 386.83 526.66 389.82 529.1 392.26"/><path class="cls-2" d="M462.17,388.3a1.49,1.49,0,0,0,.44-1.06V370.93a1.5,1.5,0,1,0-3,0v16.31a1.5,1.5,0,0,0,1.5,1.5A1.52,1.52,0,0,0,462.17,388.3Z"/><path class="cls-2" d="M491.74,380.47a1.5,1.5,0,0,0,1.5-1.5V362.66a1.5,1.5,0,0,0-3,0V379A1.5,1.5,0,0,0,491.74,380.47Z"/><path class="cls-2" d="M476.42,392.72a1.49,1.49,0,0,0,1.06-.44,1.51,1.51,0,0,0,.44-1.06V355.05a1.5,1.5,0,0,0-3,0v36.17A1.5,1.5,0,0,0,476.42,392.72Z"/><path class="cls-2" d="M355.35,442.08c-.36.92-1.46,2.48-4.77,2.48H265.49c-3.32,0-4.41-1.56-4.77-2.48s-.6-3,2.16-5.48l38.86-35.18a9.05,9.05,0,0,1,4.29-2.15v-3.66a2,2,0,0,1,2-2,7.59,7.59,0,1,0-7.58-7.59,2,2,0,0,1-4,0A11.59,11.59,0,1,1,310,397.44v1.82a9.24,9.24,0,0,1,4.3,2.16l38.86,35.18C356,439.09,355.72,441.1,355.35,442.08Zm-4-1.58a5.25,5.25,0,0,0-.85-.93l-38.87-35.19a5.55,5.55,0,0,0-7.21,0l-38.87,35.18a5.6,5.6,0,0,0-.85.94,4,4,0,0,0,.78.06h85.09A4,4,0,0,0,351.36,440.5Z"/><path class="cls-2" d="M84.69,12.6a2,2,0,0,0-2.82,2.82,14.34,14.34,0,0,1,0,20.24,2,2,0,0,0,0,2.83,2,2,0,0,0,2.82,0,18.31,18.31,0,0,0,0-25.89Z"/><path class="cls-2" d="M128.21,67.54a10.23,10.23,0,0,1,0,14.46,10.21,10.21,0,0,1-14.46,0,1.49,1.49,0,0,1-.23-.27l-25-36a26,26,0,0,1-16.8,6.09h0A26.26,26.26,0,0,1,45.5,25.54,26.25,26.25,0,1,1,91.91,42.35l36,25A2,2,0,0,1,128.21,67.54ZM94,25.54a22.26,22.26,0,1,0-6.52,15.73A22.11,22.11,0,0,0,94,25.54Zm31.5,44.95L96.82,50.62,116.7,79.29a6.22,6.22,0,0,0,8.8-8.8Z"/><path class="cls-2" d="M25.8,116.92l-13,13a2,2,0,0,1-2.83,0l-4.85-4.85L-26.7,156.91a2,2,0,0,1-2.83,0l-50.85-50.85a2,2,0,0,1,0-2.83l31.84-31.84-4.85-4.84a2,2,0,0,1,0-2.83l13-13a2,2,0,0,1,2.83,0l20.19,20.2c-.31-.65-.59-1.3-.83-2a8.85,8.85,0,0,1,.5-7.8,7.34,7.34,0,0,1,5.37-3.43,6.32,6.32,0,0,1,5.1,2,10.91,10.91,0,0,1,3,7.38,29.2,29.2,0,0,1-1.43,9.1c4.16-1.36,10.7-3.17,16.15-3.17,4.76,0,7.59,1.83,9.12,3.36a10.13,10.13,0,0,1,2.72,9.35,8.57,8.57,0,0,1-4.19,5.42c-2.16,1.23-6,2.31-11.85.51a27.32,27.32,0,0,1-5.37-2.5L25.8,114.09A2,2,0,0,1,25.8,116.92ZM-5,80.27c3.24,2.52,8.69,6.47,12.5,7.63,3.52,1.08,6.61,1,8.7-.16a4.52,4.52,0,0,0,2.27-2.89,6,6,0,0,0-1.66-5.57,8.68,8.68,0,0,0-6.29-2.19C5.36,77.09-1.16,79-5,80.27Zm-4.64-4.62a25.68,25.68,0,0,0,1.44-8.38,7,7,0,0,0-1.85-4.66,2.46,2.46,0,0,0-1.85-.89,3.38,3.38,0,0,0-2.4,1.57,4.87,4.87,0,0,0-.12,4.32A33.4,33.4,0,0,0-9.65,75.65ZM-40,113.71-62.32,91.39a1.48,1.48,0,0,1-.25-.31l-13.56,13.56,22.59,22.6Zm16.89-16.89-22.59-22.6L-59.8,88.31a2.42,2.42,0,0,1,.31.25l22.31,22.32Zm8.57,42.28a1.48,1.48,0,0,1-.31-.25l-22.32-22.31-13.53,13.53,22.6,22.59ZM2.3,122.24-20.29,99.65l-14.06,14.06L-12,136a2.51,2.51,0,0,1,.26.31Zm19.26-6.74L-39,55-49.14,65.14l60.53,60.53Z"/><path class="cls-2" d="M193.94,49.89a7.93,7.93,0,1,1,7.93,7.93A7.94,7.94,0,0,1,193.94,49.89Zm5,0A2.93,2.93,0,1,0,201.87,47,2.93,2.93,0,0,0,198.94,49.89Z"/><path class="cls-2" d="M219.25,82.63a7.93,7.93,0,0,1-7.92,7.93h0a7.93,7.93,0,1,1,7.93-7.93Zm-5,0a2.93,2.93,0,1,0-2.93,2.93A2.93,2.93,0,0,0,214.25,82.63Z"/><path class="cls-2" d="M226,43.3,183.64,85.69a2.5,2.5,0,1,0,3.53,3.53l42.39-42.38A2.5,2.5,0,1,0,226,43.3Z"/><path class="cls-2" d="M247.46,66.26A41.47,41.47,0,1,1,206,24.79,41.51,41.51,0,0,1,247.46,66.26Zm-4,0A37.47,37.47,0,1,0,206,103.73,37.51,37.51,0,0,0,243.46,66.26Z"/><path class="cls-2" d="M100,98.33a2,2,0,0,1,1.47.86l25.18,36.62a2,2,0,0,1,.31,1.5l23.45,23.46a2,2,0,0,1,0,2.83l-46.91,46.91a2,2,0,0,1-2.83,0L76.14,186,39.66,161a2,2,0,0,1-.28-3.06l59-59A2,2,0,0,1,100,98.33Zm24.38,42.06L80.25,184.48,102,206.27l44.09-44.09Zm-24.85-37L43.91,159l33.28,22.87,45.18-45.18Z"/><polygon class="cls-2" points="89.61 183.56 86.63 186.55 89.07 188.99 92.06 186 89.61 183.56"/><polygon class="cls-2" points="94.91 178.26 91.92 181.25 94.36 183.69 97.35 180.71 94.91 178.26"/><polygon class="cls-2" points="100.2 172.97 97.22 175.96 99.66 178.4 102.65 175.41 100.2 172.97"/><polygon class="cls-2" points="105.5 167.68 102.51 170.66 104.95 173.1 107.94 170.12 105.5 167.68"/><polygon class="cls-2" points="110.79 162.38 107.81 165.37 110.25 167.81 113.23 164.82 110.79 162.38"/><polygon class="cls-2" points="116.09 157.09 113.1 160.07 115.54 162.52 118.53 159.53 116.09 157.09"/><polygon class="cls-2" points="121.38 151.79 118.39 154.78 120.84 157.22 123.82 154.23 121.38 151.79"/><polygon class="cls-2" points="126.68 146.5 123.69 149.48 126.13 151.93 129.12 148.94 126.68 146.5"/><polygon class="cls-2" points="93.69 187.63 90.7 190.62 93.14 193.06 96.13 190.08 93.69 187.63"/><polygon class="cls-2" points="98.98 182.34 95.99 185.32 98.44 187.77 101.42 184.78 98.98 182.34"/><polygon class="cls-2" points="104.28 177.04 101.29 180.03 103.73 182.47 106.72 179.49 104.28 177.04"/><polygon class="cls-2" points="109.57 171.75 106.58 174.74 109.03 177.18 112.01 174.19 109.57 171.75"/><polygon class="cls-2" points="114.86 166.45 111.88 169.44 114.32 171.88 117.31 168.9 114.86 166.45"/><polygon class="cls-2" points="120.16 161.16 117.17 164.15 119.61 166.59 122.6 163.6 120.16 161.16"/><polygon class="cls-2" points="125.45 155.86 122.47 158.85 124.91 161.29 127.9 158.31 125.45 155.86"/><polygon class="cls-2" points="97.76 191.71 94.77 194.69 97.22 197.14 100.2 194.15 97.76 191.71"/><polygon class="cls-2" points="103.06 186.41 100.07 189.4 102.51 191.84 105.5 188.85 103.06 186.41"/><polygon class="cls-2" points="108.35 181.12 105.36 184.1 107.81 186.55 110.79 183.56 108.35 181.12"/><polygon class="cls-2" points="113.64 175.82 110.66 178.81 113.1 181.25 116.09 178.26 113.64 175.82"/><polygon class="cls-2" points="118.94 170.53 115.95 173.51 118.39 175.96 121.38 172.97 118.94 170.53"/><polygon class="cls-2" points="124.23 165.23 121.25 168.22 123.69 170.66 126.68 167.68 124.23 165.23"/><polygon class="cls-2" points="130.75 150.57 127.76 153.56 131.84 157.63 126.54 162.92 128.98 165.37 137.26 157.09 130.75 150.57"/><polygon class="cls-2" points="101.83 195.78 98.85 198.76 101.29 201.21 104.28 198.22 101.83 195.78"/><polygon class="cls-2" points="123.01 174.6 104.14 193.47 106.58 195.91 125.45 177.04 123.01 174.6"/><polygon class="cls-2" points="128.31 169.31 125.32 172.29 127.76 174.74 130.75 171.75 128.31 169.31"/><polygon class="cls-2" points="133.6 164.01 130.61 167 133.06 169.44 136.04 166.45 133.6 164.01"/><polygon class="cls-2" points="138.35 164.15 141.34 161.16 138.89 158.72 135.91 161.7 138.35 164.15"/><path class="cls-2" d="M71.42,160.19a1.51,1.51,0,0,0,.44-1.06V142.81a1.5,1.5,0,0,0-3,0v16.32a1.5,1.5,0,0,0,1.5,1.5A1.52,1.52,0,0,0,71.42,160.19Z"/><path class="cls-2" d="M101,152.36a1.49,1.49,0,0,0,1.06-.44,1.51,1.51,0,0,0,.44-1.06V134.54a1.5,1.5,0,0,0-3,0v16.32A1.5,1.5,0,0,0,101,152.36Z"/><path class="cls-2" d="M85.67,164.6a1.45,1.45,0,0,0,1.06-.44,1.49,1.49,0,0,0,.44-1.06V126.94a1.5,1.5,0,0,0-3,0V163.1A1.5,1.5,0,0,0,85.67,164.6Z"/></pattern></defs><g id="Layer_2" data-name="Layer 2"><g id="Layer_1-2" data-name="Layer 1"><rect class="cls-3" width="3977.55" height="2279.84"/></g></g></svg>