<svg xmlns="http://www.w3.org/2000/svg" xmlns:xlink="http://www.w3.org/1999/xlink" width="50" height="50" viewBox="0 0 50 50"><defs><style>.a{fill:none;}.b{fill:#fff;}.c{filter:url(#a);}</style><filter id="a" x="0" y="0" width="50" height="50" filterUnits="userSpaceOnUse"><feOffset dy="3" input="SourceAlpha"/><feGaussianBlur stdDeviation="3" result="b"/><feFlood flood-opacity="0.161"/><feComposite operator="in" in2="b"/><feComposite in="SourceGraphic"/></filter></defs><g transform="translate(7 4)"><path class="a" d="M0,0H36V36H0Z"/><g class="c" transform="matrix(1, 0, 0, 1, -7, -4)"><path class="b" d="M18,2A16,16,0,1,0,34,18,15.985,15.985,0,0,0,18,2Zm8,21.744L23.744,26,18,20.256,12.256,26,10,23.744,15.744,18,10,12.256,12.256,10,18,15.744,23.744,10,26,12.256,20.256,18Z" transform="translate(7 4)"/></g></g></svg>