<svg xmlns="http://www.w3.org/2000/svg" xmlns:xlink="http://www.w3.org/1999/xlink" width="157.902" height="66.132" viewBox="0 0 157.902 66.132"><defs><style>.a{fill:#333;}.b{filter:url(#i);}.c{filter:url(#g);}.d{filter:url(#e);}.e{filter:url(#c);}.f{filter:url(#a);}</style><filter id="a" x="49.189" y="0.869" width="36.671" height="64.549" filterUnits="userSpaceOnUse"><feOffset dy="3" input="SourceAlpha"/><feGaussianBlur stdDeviation="3" result="b"/><feFlood flood-opacity="0.161"/><feComposite operator="in" in2="b"/><feComposite in="SourceGraphic"/></filter><filter id="c" x="67.416" y="0" width="52.457" height="66.132" filterUnits="userSpaceOnUse"><feOffset dy="3" input="SourceAlpha"/><feGaussianBlur stdDeviation="3" result="d"/><feFlood flood-opacity="0.161"/><feComposite operator="in" in2="d"/><feComposite in="SourceGraphic"/></filter><filter id="e" x="98.684" y="0.869" width="59.218" height="64.548" filterUnits="userSpaceOnUse"><feOffset dy="3" input="SourceAlpha"/><feGaussianBlur stdDeviation="3" result="f"/><feFlood flood-opacity="0.161"/><feComposite operator="in" in2="f"/><feComposite in="SourceGraphic"/></filter><filter id="g" x="12.006" y="0.869" width="58.506" height="64.498" filterUnits="userSpaceOnUse"><feOffset dy="3" input="SourceAlpha"/><feGaussianBlur stdDeviation="3" result="h"/><feFlood flood-opacity="0.161"/><feComposite operator="in" in2="h"/><feComposite in="SourceGraphic"/></filter><filter id="i" x="0" y="0.869" width="45.887" height="44.055" filterUnits="userSpaceOnUse"><feOffset dy="3" input="SourceAlpha"/><feGaussianBlur stdDeviation="3" result="j"/><feFlood flood-opacity="0.161"/><feComposite operator="in" in2="j"/><feComposite in="SourceGraphic"/></filter></defs><g transform="translate(-72.166 -99.048)"><g class="f" transform="matrix(1, 0, 0, 1, 72.17, 99.05)"><path class="a" d="M444.994,157.276H433.507l7.185-46.549h11.486Z" transform="translate(-375.32 -103.86)"/></g><g class="e" transform="matrix(1, 0, 0, 1, 72.17, 99.05)"><path class="a" d="M599.636,107.031a27.158,27.158,0,0,0-10.3-1.984c-11.344,0-19.332,6.344-19.381,15.415-.094,6.692,5.719,10.409,10.067,12.64,4.444,2.28,5.955,3.768,5.955,5.8-.045,3.121-3.591,4.56-6.9,4.56a21.981,21.981,0,0,1-10.778-2.478l-1.513-.744L565.179,150.7a33.539,33.539,0,0,0,12.811,2.48c12.053,0,19.9-6.246,19.992-15.912.046-5.3-3.024-9.368-9.642-12.689-4.018-2.132-6.478-3.569-6.478-5.751.047-1.983,2.081-4.014,6.616-4.014a18.746,18.746,0,0,1,8.557,1.784l1.039.495,1.562-10.061Z" transform="translate(-488.76 -99.05)"/></g><g class="d" transform="matrix(1, 0, 0, 1, 72.17, 99.05)"><path class="a" d="M808.294,140.785c.946-2.674,4.586-13.024,4.586-13.024-.048.1.944-2.724,1.511-4.457l.8,4.011s2.175,11.142,2.648,13.47Zm14.179-30.058h-8.885c-2.74,0-4.822.841-6,3.862l-17.062,42.686h12.053s1.984-5.745,2.411-6.983h14.748c.33,1.634,1.371,6.983,1.371,6.983H831.74l-9.267-46.548Z" transform="translate(-682.84 -103.86)"/></g><g class="c" transform="matrix(1, 0, 0, 1, 72.17, 99.05)"><path class="a" d="M194.2,110.727l-11.249,31.741-1.229-6.437c-2.08-7.428-8.6-15.5-15.881-19.511l10.3,40.706h12.147l18.055-46.5H194.2Z" transform="translate(-144.83 -103.86)"/></g><g class="b" transform="matrix(1, 0, 0, 1, 72.17, 99.05)"><path class="a" d="M99.836,110.727H81.355l-.189.968c14.416,3.977,23.964,13.564,27.887,25.086l-4.018-22.026c-.661-3.061-2.694-3.928-5.2-4.029Z" transform="translate(-72.17 -103.86)"/></g></g></svg>