<svg xmlns="http://www.w3.org/2000/svg" xmlns:xlink="http://www.w3.org/1999/xlink" width="175.719" height="142.517" viewBox="0 0 175.719 142.517"><defs><style>.a{fill:none;}.b{fill:#333;}.c{filter:url(#ac);}.d{filter:url(#aa);}.e{filter:url(#y);}.f{filter:url(#w);}.g{filter:url(#u);}.h{filter:url(#s);}.i{filter:url(#q);}.j{filter:url(#o);}.k{filter:url(#m);}.l{filter:url(#k);}.m{filter:url(#i);}.n{filter:url(#g);}.o{filter:url(#e);}.p{filter:url(#c);}.q{filter:url(#a);}</style><filter id="a" x="0" y="44.374" width="39.936" height="34.754" filterUnits="userSpaceOnUse"><feOffset dy="3" input="SourceAlpha"/><feGaussianBlur stdDeviation="3" result="b"/><feFlood flood-opacity="0.161"/><feComposite operator="in" in2="b"/><feComposite in="SourceGraphic"/></filter><filter id="c" x="22.484" y="44.37" width="41.123" height="34.754" filterUnits="userSpaceOnUse"><feOffset dy="3" input="SourceAlpha"/><feGaussianBlur stdDeviation="3" result="d"/><feFlood flood-opacity="0.161"/><feComposite operator="in" in2="d"/><feComposite in="SourceGraphic"/></filter><filter id="e" x="48.771" y="44.37" width="33.091" height="34.754" filterUnits="userSpaceOnUse"><feOffset dy="3" input="SourceAlpha"/><feGaussianBlur stdDeviation="3" result="f"/><feFlood flood-opacity="0.161"/><feComposite operator="in" in2="f"/><feComposite in="SourceGraphic"/></filter><filter id="g" x="66.539" y="44.374" width="35.768" height="34.754" filterUnits="userSpaceOnUse"><feOffset dy="3" input="SourceAlpha"/><feGaussianBlur stdDeviation="3" result="h"/><feFlood flood-opacity="0.161"/><feComposite operator="in" in2="h"/><feComposite in="SourceGraphic"/></filter><filter id="i" x="85.184" y="44.37" width="22.722" height="34.754" filterUnits="userSpaceOnUse"><feOffset dy="3" input="SourceAlpha"/><feGaussianBlur stdDeviation="3" result="j"/><feFlood flood-opacity="0.161"/><feComposite operator="in" in2="j"/><feComposite in="SourceGraphic"/></filter><filter id="k" x="92.157" y="44.37" width="32.3" height="34.754" filterUnits="userSpaceOnUse"><feOffset dy="3" input="SourceAlpha"/><feGaussianBlur stdDeviation="3" result="l"/><feFlood flood-opacity="0.161"/><feComposite operator="in" in2="l"/><feComposite in="SourceGraphic"/></filter><filter id="m" x="103.209" y="44.374" width="39.936" height="34.754" filterUnits="userSpaceOnUse"><feOffset dy="3" input="SourceAlpha"/><feGaussianBlur stdDeviation="3" result="n"/><feFlood flood-opacity="0.161"/><feComposite operator="in" in2="n"/><feComposite in="SourceGraphic"/></filter><filter id="o" x="125.685" y="44.37" width="36.012" height="34.754" filterUnits="userSpaceOnUse"><feOffset dy="3" input="SourceAlpha"/><feGaussianBlur stdDeviation="3" result="p"/><feFlood flood-opacity="0.161"/><feComposite operator="in" in2="p"/><feComposite in="SourceGraphic"/></filter><filter id="q" x="33.68" y="73.69" width="33.091" height="34.754" filterUnits="userSpaceOnUse"><feOffset dy="3" input="SourceAlpha"/><feGaussianBlur stdDeviation="3" result="r"/><feFlood flood-opacity="0.161"/><feComposite operator="in" in2="r"/><feComposite in="SourceGraphic"/></filter><filter id="s" x="107.625" y="73.69" width="33.091" height="34.754" filterUnits="userSpaceOnUse"><feOffset dy="3" input="SourceAlpha"/><feGaussianBlur stdDeviation="3" result="t"/><feFlood flood-opacity="0.161"/><feComposite operator="in" in2="t"/><feComposite in="SourceGraphic"/></filter><filter id="u" x="49.182" y="73.69" width="38.4" height="34.754" filterUnits="userSpaceOnUse"><feOffset dy="3" input="SourceAlpha"/><feGaussianBlur stdDeviation="3" result="v"/><feFlood flood-opacity="0.161"/><feComposite operator="in" in2="v"/><feComposite in="SourceGraphic"/></filter><filter id="w" x="70.069" y="73.692" width="34.855" height="34.754" filterUnits="userSpaceOnUse"><feOffset dy="3" input="SourceAlpha"/><feGaussianBlur stdDeviation="3" result="x"/><feFlood flood-opacity="0.161"/><feComposite operator="in" in2="x"/><feComposite in="SourceGraphic"/></filter><filter id="y" x="88.932" y="73.689" width="35.768" height="34.754" filterUnits="userSpaceOnUse"><feOffset dy="3" input="SourceAlpha"/><feGaussianBlur stdDeviation="3" result="z"/><feFlood flood-opacity="0.161"/><feComposite operator="in" in2="z"/><feComposite in="SourceGraphic"/></filter><filter id="aa" x="124.271" y="73.69" width="34.475" height="34.754" filterUnits="userSpaceOnUse"><feOffset dy="3" input="SourceAlpha"/><feGaussianBlur stdDeviation="3" result="ab"/><feFlood flood-opacity="0.161"/><feComposite operator="in" in2="ab"/><feComposite in="SourceGraphic"/></filter><filter id="ac" x="141.244" y="73.69" width="34.475" height="34.754" filterUnits="userSpaceOnUse"><feOffset dy="3" input="SourceAlpha"/><feGaussianBlur stdDeviation="3" result="ad"/><feFlood flood-opacity="0.161"/><feComposite operator="in" in2="ad"/><feComposite in="SourceGraphic"/></filter></defs><g transform="translate(-46.53 -1002.35)"><path class="a" d="M55.5,1002.35H212.858v76.935l-7.789,11.022,7.789,9.81v44.75H55.5v-72.526l4.868-5.071L55.5,1062.42Z" transform="translate(0)"/><path class="a" d="M249.14,1563.206v-22.375H275.3l2.806,3.313,2.9-3.313h94.947v20.832a11.715,11.715,0,0,1-5.355,1.543H318.022l-3.164-3.527v3.527H304.489v-6.021a9.422,9.422,0,0,1-4.479.84h-3.529v5.18h-15.7l-2.8-3.385-2.845,3.385Z" transform="translate(-163.094 -461.547)"/><path class="a" d="M55.5,1348.078l5.9-12.455H71.6l3.348,6.977v-6.977H87.628l1.993,5.043,1.932-5.043h56.925v2.535a12.985,12.985,0,0,1,7.91-2.535l18.47.058,3.29,6.886v-6.944h10.612l2.921,3.955v-3.955h10.71V1358h-10.71l-2.8-3.968V1358H173.291l-1.568-3.527h-4.192L165.989,1358H155.415a10.97,10.97,0,0,1-6.937-2.483V1358H132.536l-3.164-3.527V1358H70.088l-1.567-3.527H64.343L62.787,1358H55.5Z" transform="translate(0 -285.658)"/><g class="q" transform="matrix(1, 0, 0, 1, 46.53, 1002.35)"><path class="b" d="M63.649,1354.93l-7.956,16.754h5.18l1.468-3.355h8.534l1.46,3.355h5.294l-7.949-16.754Zm2.944,3.9,2.6,5.862h-5.21Z" transform="translate(-46.69 -1304.56)"/></g><g class="p" transform="matrix(1, 0, 0, 1, 46.53, 1002.35)"><path class="b" d="M198.223,1371.66v-16.754l7.361.025,4.281,10.8,4.179-10.826h7.3v16.754h-4.625v-12.345l-4.9,12.345h-4.056l-4.916-12.345v12.345Z" transform="translate(-166.74 -1304.54)"/></g><g class="o" transform="matrix(1, 0, 0, 1, 46.53, 1002.35)"><path class="b" d="M364.861,1371.66v-16.754h15.091v3.748H369.534v2.866h10.174v3.527H369.534v2.976h10.417v3.637Z" transform="translate(-307.09 -1304.54)"/></g><g class="n" transform="matrix(1, 0, 0, 1, 46.53, 1002.35)"><path class="b" d="M477.5,1354.93v16.754h4.625v-5.952h1.947l5.545,5.952h5.651l-6.085-6.172a5.332,5.332,0,0,0,5.073-5.146c0-3.526-3.055-5.435-6.465-5.435Zm4.625,3.748h5.286a2.051,2.051,0,0,1,2.191,1.764c0,1.113-1.2,1.764-2.122,1.764h-5.355Z" transform="translate(-401.96 -1304.56)"/></g><g class="m" transform="matrix(1, 0, 0, 1, 46.53, 1002.35)"><path class="b" d="M600.409,1371.66h-4.722v-16.754h4.722Z" transform="translate(-501.5 -1304.54)"/></g><g class="l" transform="matrix(1, 0, 0, 1, 46.53, 1002.35)"><path class="b" d="M648.838,1371.66h-1.019c-4.932,0-7.926-3.519-7.926-8.308,0-4.907,2.961-8.446,9.188-8.446h5.111v3.968h-5.3a4.2,4.2,0,0,0-4.316,4.519c0,3.245,2.044,4.607,4.99,4.607h1.217Z" transform="translate(-538.74 -1304.54)"/></g><g class="k" transform="matrix(1, 0, 0, 1, 46.53, 1002.35)"><path class="b" d="M717.908,1354.93l-7.956,16.754h5.18l1.468-3.355h8.534l1.46,3.355h5.294l-7.948-16.754Zm2.944,3.9,2.6,5.862h-5.21Z" transform="translate(-597.74 -1304.56)"/></g><g class="j" transform="matrix(1, 0, 0, 1, 46.53, 1002.35)"><path class="b" d="M852.433,1371.66v-16.754h5.88l7.507,10.526v-10.526h4.625v16.754h-5.689l-7.7-10.8v10.8Z" transform="translate(-717.75 -1304.54)"/></g><g class="i" transform="matrix(1, 0, 0, 1, 46.53, 1002.35)"><path class="b" d="M269.2,1576.88v-16.754h15.091v3.748H273.871v2.866h10.174v3.527H273.871v2.976h10.417v3.637Z" transform="translate(-226.52 -1480.44)"/></g><g class="h" transform="matrix(1, 0, 0, 1, 46.53, 1002.35)"><path class="b" d="M737.947,1576.88v-16.754h15.091v3.748H742.62v2.866h10.125v3.527H742.62v2.976h10.417v3.637Z" transform="translate(-621.32 -1480.44)"/></g><g class="g" transform="matrix(1, 0, 0, 1, 46.53, 1002.35)"><path class="b" d="M367.64,1576.879l7.348-8.274-7.523-8.48h5.826l4.48,5.242,4.5-5.242h5.6l-7.424,8.377,7.361,8.377h-5.825l-4.35-5.16-4.244,5.16Z" transform="translate(-309.28 -1480.44)"/></g><g class="f" transform="matrix(1, 0, 0, 1, 46.53, 1002.35)"><path class="b" d="M499.869,1560.14v16.754h4.746V1571.6h4.868c4.119,0,7.241-1.979,7.241-5.828,0-3.188-2.449-5.635-6.64-5.635Zm4.746,3.789h5.127c1.331,0,2.282.739,2.282,1.929a2.055,2.055,0,0,1-2.3,1.929h-5.111Z" transform="translate(-420.8 -1480.45)"/></g><g class="e" transform="matrix(1, 0, 0, 1, 46.53, 1002.35)"><path class="b" d="M619.448,1560.12v16.754h4.625v-5.952h1.947l5.545,5.952h5.651l-6.085-6.172a5.332,5.332,0,0,0,5.073-5.146c0-3.526-3.055-5.435-6.465-5.435H619.448Zm4.625,3.747h5.286a2.051,2.051,0,0,1,2.191,1.764c0,1.113-1.2,1.764-2.122,1.764h-5.355Z" transform="translate(-521.52 -1480.43)"/></g><g class="d" transform="matrix(1, 0, 0, 1, 46.53, 1002.35)"><path class="b" d="M844.052,1576.879v-3.637h9.255c1.37,0,1.962-.67,1.962-1.405,0-.7-.591-1.416-1.962-1.416h-4.182c-3.635,0-5.66-2.006-5.66-5.018,0-2.686,1.854-5.277,7.256-5.277h9.006l-1.947,3.77h-7.789c-1.489,0-1.947.708-1.947,1.383a1.545,1.545,0,0,0,1.7,1.46h4.381c4.053,0,5.811,2.082,5.811,4.808,0,2.931-1.96,5.332-6.032,5.332Z" transform="translate(-710.19 -1480.44)"/></g><g class="c" transform="matrix(1, 0, 0, 1, 46.53, 1002.35)"><path class="b" d="M951.649,1576.879v-3.637H960.9c1.37,0,1.962-.67,1.962-1.405,0-.7-.591-1.416-1.962-1.416h-4.182c-3.635,0-5.66-2.006-5.66-5.018,0-2.686,1.854-5.277,7.256-5.277h9.006l-1.947,3.77h-7.789c-1.489,0-1.947.708-1.947,1.383a1.545,1.545,0,0,0,1.7,1.46h4.381c4.053,0,5.811,2.082,5.811,4.808,0,2.931-1.96,5.332-6.032,5.332Z" transform="translate(-800.82 -1480.44)"/></g></g></svg>