<svg xmlns="http://www.w3.org/2000/svg" width="17.33" height="18.955" viewBox="0 0 17.33 18.955"><defs><style>.a{fill:none;}</style></defs><path class="a" d="M0,0H17.33V18.955H0Z"/><path d="M5,13.964a1.42,1.42,0,0,0-1.326,1.5A1.42,1.42,0,0,0,5,16.955a1.505,1.505,0,0,0,0-2.991ZM1,2V3.5H2.333l2.4,5.676L3.833,11a1.585,1.585,0,0,0-.167.718A1.426,1.426,0,0,0,5,13.216h8v-1.5H5.279a.176.176,0,0,1-.167-.187l.02-.09.6-1.219H10.7a1.312,1.312,0,0,0,1.166-.77L14.25,4.6a.8.8,0,0,0,.08-.359.713.713,0,0,0-.667-.748H3.806L3.179,2H1ZM11.664,13.964a1.42,1.42,0,0,0-1.326,1.5,1.42,1.42,0,0,0,1.326,1.5,1.505,1.505,0,0,0,0-2.991Z"/></svg>