<?xml version="1.0" encoding="utf-8"?>
<!-- Generator: Adobe Illustrator 24.1.2, SVG Export Plug-In . SVG Version: 6.00 Build 0)  -->
<svg version="1.1" id="Layer_1" xmlns="http://www.w3.org/2000/svg" xmlns:xlink="http://www.w3.org/1999/xlink" x="0px" y="0px"
	 viewBox="0 0 136.4 107.8" style="enable-background:new 0 0 136.4 107.8;" xml:space="preserve">
<style type="text/css">
	.st0{enable-background:new    ;}
	.st1{fill:#010101;}
	.st2{fill:url(#SVGID_1_);}
	.st3{fill:url(#SVGID_2_);}
	.st4{fill:url(#SVGID_3_);}
</style>
<g id="Layer_2_1_">
	<g id="Layer_1-2">
		<g class="st0">
			<path class="st1" d="M4.7,75.8c1.3-0.3,3.2-0.6,5.1-0.6c2,0,4.1,0.5,5.4,1.7c1.3,1,2,2.6,2,4.7c0,2.8-1.2,5-2.7,6.4
				c-1.7,1.5-4.1,2.2-6.6,2.2c-0.8,0-1.4-0.1-2-0.2L4.4,99H0.8L4.7,75.8z M6.5,86.8C7.1,86.9,7.6,87,8.4,87c3.1,0,5.2-2.2,5.2-5
				c0-2.5-1.6-3.4-3.7-3.4c-0.9,0-1.6,0.1-2,0.2L6.5,86.8z"/>
		</g>
		<g class="st0">
			<path class="st1" d="M17.2,99l2.9-17h3.7l-2.9,17H17.2z M20.7,77.4c0-1.5,1-2.5,2.2-2.5c1.1,0,2,0.9,2,2.2c0,1.5-1,2.4-2.3,2.4
				C21.4,79.5,20.6,78.6,20.7,77.4z"/>
		</g>
		<g class="st0">
			<path class="st1" d="M35.2,98.4c-0.9,0.5-2.5,0.9-4.4,0.9c-3.8,0-6.2-2.7-6.2-6.8c0-5.9,4.1-11,9.8-11c1.4,0,2.5,0.4,3.1,0.7
				l-0.9,3.2c-0.6-0.3-1.3-0.5-2.3-0.5c-3.6,0-5.8,3.6-5.8,7.2c0,2.6,1.3,4,3.4,4c1.4,0,2.5-0.4,3.3-0.8L35.2,98.4z"/>
		</g>
		<g class="st0">
			<path class="st1" d="M37.9,99l4.2-24.8h3.6l-2.6,15.2h0.1c0.5-0.6,1-1.3,1.4-1.8l4.6-5.6h4.5l-6.6,7l4.4,10h-4.1l-3.1-7.8
				l-1.8,1.9l-1,5.9H37.9z"/>
		</g>
		<g class="st0">
			<path class="st1" d="M69.5,82l-2,11.8c-0.3,2-0.6,3.8-0.8,5.3h-3.2l0.3-3h-0.1c-1.5,2.2-3.4,3.4-5.3,3.4c-2.2,0-4-1.3-4-4.8
				c0-0.9,0.1-1.9,0.3-3l1.6-9.5H60l-1.6,9.3c-0.2,0.8-0.3,1.7-0.3,2.3c0,1.4,0.5,2.4,2,2.4c1.7,0,3.7-2.2,4.3-5.8l1.4-8.3H69.5z"/>
		</g>
		<g class="st0">
			<path class="st1" d="M69.9,106l3-17.6c0.3-2,0.7-4.6,0.9-6.3h3.3l-0.3,2.8h0.1c1.3-2,3.2-3.2,5.2-3.2c3.3,0,4.8,3,4.8,6.3
				c0,5.9-3.7,11.5-8.9,11.5c-1.4,0-2.5-0.3-3.1-0.7h-0.1l-1.2,7.3H69.9z M75.4,95.4c0.6,0.5,1.4,0.8,2.5,0.8c2.8,0,5.2-4.2,5.2-8
				c0-1.6-0.6-3.3-2.4-3.3c-1.9,0-3.9,2.3-4.5,6.3L75.4,95.4z"/>
		</g>
		<g class="st0">
			<path class="st1" d="M93.7,75.7c1.3-0.2,2.7-0.5,4.3-0.5c2.4,0,4.1,0.6,5.2,1.9c0.8,0.9,1,2,1,3.3c0,3-2.5,5.4-5.3,6v0.1
				c2.1,0.6,4,2.3,4,5.3c0,2.3-1.2,4.3-2.6,5.4c-1.8,1.4-4.2,1.9-6.9,1.9c-1.6,0-3.1-0.1-4.2-0.3L93.7,75.7z M91.1,97.6
				c0.8,0.1,1.8,0.2,2.7,0.2c3.9,0,7.6-1.6,7.6-6.1c0-3-2.6-4.6-5.4-4.6h-2.9L91.1,97.6z M93.4,85.8h2.4c3.8,0,6.8-2.1,6.8-5.5
				c0-2.6-1.9-3.7-4.9-3.7c-1.2,0-2.2,0.1-2.7,0.2L93.4,85.8z"/>
		</g>
		<g class="st0">
			<path class="st1" d="M119.9,88.9c0,4.6-3.4,10.5-8.9,10.5c-4.2,0-6.2-3.4-6.2-6.9c0-5.4,3.7-10.7,8.9-10.7
				C118.2,81.9,119.9,85.5,119.9,88.9z M106.4,92.4c0,3.2,1.9,5.6,4.8,5.6c3.8,0,7-4.7,7-9.2c0-2.2-1-5.7-4.7-5.7
				C109.4,83.2,106.4,87.8,106.4,92.4z"/>
		</g>
		<g class="st0">
			<path class="st1" d="M136.3,88.9c0,4.6-3.4,10.5-8.9,10.5c-4.2,0-6.2-3.4-6.2-6.9c0-5.4,3.7-10.7,8.9-10.7
				C134.6,81.9,136.3,85.5,136.3,88.9z M122.8,92.4c0,3.2,1.9,5.6,4.8,5.6c3.8,0,7-4.7,7-9.2c0-2.2-1-5.7-4.7-5.7
				C125.8,83.2,122.8,87.8,122.8,92.4z"/>
		</g>
		
			<linearGradient id="SVGID_1_" gradientUnits="userSpaceOnUse" x1="-23.3739" y1="90.8536" x2="-3.8861" y2="71.3657" gradientTransform="matrix(-1 0 0 -1 53.32 107.8898)">
			<stop  offset="0.13" style="stop-color:#FFD359"/>
			<stop  offset="0.33" style="stop-color:#FFCD4E"/>
			<stop  offset="0.68" style="stop-color:#FDBE31"/>
			<stop  offset="0.94" style="stop-color:#FCB017"/>
		</linearGradient>
		<path class="st2" d="M67,40.6c7.6,0,13.8-6.2,13.7-13.8c0-7.6-6.2-13.8-13.8-13.7c-7.6,0-13.7,6.2-13.7,13.8
			C53.2,34.4,59.3,40.6,67,40.6C67,40.6,67,40.6,67,40.6z"/>
		
			<linearGradient id="SVGID_2_" gradientUnits="userSpaceOnUse" x1="47" y1="59.1698" x2="47" y2="59.1698" gradientTransform="matrix(1 0 0 -1 0 107.8898)">
			<stop  offset="0.13" style="stop-color:#FFD359"/>
			<stop  offset="0.33" style="stop-color:#FFCD4E"/>
			<stop  offset="0.68" style="stop-color:#FDBE31"/>
			<stop  offset="0.94" style="stop-color:#FCB017"/>
		</linearGradient>
		<path class="st3" d="M47,48.7L47,48.7L47,48.7z"/>
		
			<linearGradient id="SVGID_3_" gradientUnits="userSpaceOnUse" x1="45.2827" y1="97.6631" x2="88.6801" y2="54.2657" gradientTransform="matrix(1 0 0 -1 0 107.8898)">
			<stop  offset="0.13" style="stop-color:#FFD359"/>
			<stop  offset="0.33" style="stop-color:#FFCD4E"/>
			<stop  offset="0.68" style="stop-color:#FDBE31"/>
			<stop  offset="0.94" style="stop-color:#FCB017"/>
		</linearGradient>
		<path class="st4" d="M67,0C51.7,0,39.4,12.3,39.3,27.6c0,0,0,0,0,0.1c0,6.1,3.3,13.7,7.7,21c-0.9-22.2-0.9-20-0.9-22.2
			C46.2,15,55.5,5.7,67,5.7S87.8,15,87.8,26.5c0,11.5-9.3,20.8-20.8,20.8c-7,0-11.7-2.5-14.5-6.7c0,0,0.4,14.6,1.2,17.9l2.6,3.8
			c4.3,5.8,8.2,10.3,9.9,12.2c0.4,0.5,1.1,0.5,1.6,0.1c0,0,0.1-0.1,0.1-0.1c4.6-5.4,26.8-32.2,26.8-46.8C94.6,12.4,82.3,0,67,0
			C67,0,67,0,67,0z"/>
	</g>
</g>
</svg>
