<svg xmlns="http://www.w3.org/2000/svg" xmlns:xlink="http://www.w3.org/1999/xlink" width="126.635" height="86.961" viewBox="0 0 126.635 86.961"><defs><style>.a{fill:#333;}.b{fill:#777;}.c{filter:url(#e);}.d{filter:url(#c);}.e{filter:url(#a);}</style><filter id="a" x="5.528" y="58.373" width="119.939" height="28.588" filterUnits="userSpaceOnUse"><feOffset dy="3" input="SourceAlpha"/><feGaussianBlur stdDeviation="3" result="b"/><feFlood flood-opacity="0.161"/><feComposite operator="in" in2="b"/><feComposite in="SourceGraphic"/></filter><filter id="c" x="0" y="0" width="72.332" height="72.802" filterUnits="userSpaceOnUse"><feOffset dy="3" input="SourceAlpha"/><feGaussianBlur stdDeviation="3" result="d"/><feFlood flood-opacity="0.161"/><feComposite operator="in" in2="d"/><feComposite in="SourceGraphic"/></filter><filter id="e" x="54.3" y="0" width="72.335" height="72.802" filterUnits="userSpaceOnUse"><feOffset dy="3" input="SourceAlpha"/><feGaussianBlur stdDeviation="3" result="f"/><feFlood flood-opacity="0.161"/><feComposite operator="in" in2="f"/><feComposite in="SourceGraphic"/></filter></defs><g transform="translate(1574.623 -1100.748)"><g transform="translate(-1565.623 1106.748)"><g transform="translate(5.528 58.373)"><g class="e" transform="matrix(1, 0, 0, 1, -14.53, -64.37)"><path class="a" d="M-84.792-12.121v.179h.2a.252.252,0,0,0,.111-.023.075.075,0,0,0,.041-.068.073.073,0,0,0-.041-.066.23.23,0,0,0-.111-.023Zm.2-.125a.437.437,0,0,1,.243.057.178.178,0,0,1,.085.157.165.165,0,0,1-.068.138.374.374,0,0,1-.194.066l.269.253h-.209l-.25-.251h-.081v.251h-.175v-.671Zm-.053.9a.776.776,0,0,0,.267-.045.726.726,0,0,0,.218-.12.568.568,0,0,0,.147-.179.484.484,0,0,0,.053-.219.484.484,0,0,0-.053-.219.588.588,0,0,0-.147-.179.726.726,0,0,0-.218-.12.82.82,0,0,0-.267-.042.856.856,0,0,0-.271.042.724.724,0,0,0-.222.12.552.552,0,0,0-.145.179.458.458,0,0,0-.053.219.458.458,0,0,0,.053.219.534.534,0,0,0,.145.179.724.724,0,0,0,.222.12.81.81,0,0,0,.271.045m0-1.287a1.063,1.063,0,0,1,.352.057.93.93,0,0,1,.286.155.723.723,0,0,1,.192.23.584.584,0,0,1,.07.28.584.584,0,0,1-.07.28A.763.763,0,0,1-84-11.4a1.009,1.009,0,0,1-.286.155,1.063,1.063,0,0,1-.352.057A1.079,1.079,0,0,1-85-11.243a.966.966,0,0,1-.288-.155.763.763,0,0,1-.192-.23.584.584,0,0,1-.07-.28.584.584,0,0,1,.07-.28.723.723,0,0,1,.192-.23A.894.894,0,0,1-85-12.574a1.079,1.079,0,0,1,.357-.057m-83.187-2.583a2.433,2.433,0,0,1,2.705-2.329,2.432,2.432,0,0,1,2.686,2.329,2.432,2.432,0,0,1-2.686,2.329,2.433,2.433,0,0,1-2.705-2.329m7.219,0v-3.637h-1.939v.883a3.711,3.711,0,0,0-2.816-1.066c-2.5,0-4.46,1.6-4.46,3.82s1.96,3.82,4.46,3.82a3.711,3.711,0,0,0,2.816-1.066v.883h1.939Zm65.514,0a2.433,2.433,0,0,1,2.705-2.329A2.43,2.43,0,0,1-89.7-15.215a2.43,2.43,0,0,1-2.686,2.329,2.433,2.433,0,0,1-2.705-2.329m7.221,0v-6.559h-1.941v3.8a3.711,3.711,0,0,0-2.816-1.066c-2.5,0-4.46,1.6-4.46,3.82s1.96,3.82,4.46,3.82a3.711,3.711,0,0,0,2.816-1.066v.883h1.941Zm-48.67-2.4a2.074,2.074,0,0,1,2.257,1.765h-4.627a2.166,2.166,0,0,1,2.37-1.765m.038-1.416c-2.613,0-4.441,1.552-4.441,3.82,0,2.313,1.9,3.82,4.571,3.82a6.237,6.237,0,0,0,3.655-1.019l-.95-1.172a4.893,4.893,0,0,1-2.594.761,2.411,2.411,0,0,1-2.667-1.782h6.621c.019-.2.038-.4.038-.608-.019-2.268-1.736-3.82-4.234-3.82m23.409,3.82a2.433,2.433,0,0,1,2.705-2.329,2.432,2.432,0,0,1,2.686,2.329,2.432,2.432,0,0,1-2.686,2.329,2.433,2.433,0,0,1-2.705-2.329m7.219,0v-3.637h-1.939v.883a3.714,3.714,0,0,0-2.816-1.066c-2.5,0-4.46,1.6-4.46,3.82s1.96,3.82,4.46,3.82a3.714,3.714,0,0,0,2.816-1.066v.883h1.939Zm-18.168,0c0,2.207,1.883,3.82,4.757,3.82a5.38,5.38,0,0,0,3.207-.868l-.931-1.279a4.518,4.518,0,0,1-2.334.655,2.427,2.427,0,0,1-2.686-2.329,2.427,2.427,0,0,1,2.686-2.329,4.518,4.518,0,0,1,2.334.655l.931-1.279a5.38,5.38,0,0,0-3.207-.868c-2.874,0-4.757,1.613-4.757,3.82m25-3.82a2.8,2.8,0,0,0-2.351,1.066v-.883h-1.922v7.275h1.941v-4.078a1.687,1.687,0,0,1,1.9-1.873,3.778,3.778,0,0,1,1.213.183l.6-1.491a4.974,4.974,0,0,0-1.381-.2m-51.971.761a7.86,7.86,0,0,0-3.636-.761c-2.259,0-3.713.883-3.713,2.329,0,1.186,1.082,1.918,3.077,2.146l.916.106c1.063.122,1.565.35,1.565.761,0,.563-.709.883-2.033.883a5.491,5.491,0,0,1-2.966-.761l-.914,1.232a7.5,7.5,0,0,0,3.86.944c2.575,0,4.067-.989,4.067-2.374,0-1.279-1.174-1.948-3.115-2.176l-.914-.108c-.839-.091-1.512-.226-1.512-.714,0-.533.634-.852,1.7-.852a6.751,6.751,0,0,1,2.78.624ZM-126-19.036a2.788,2.788,0,0,0-2.349,1.066v-.883h-1.922v7.275h1.939v-4.078a1.687,1.687,0,0,1,1.9-1.873,3.778,3.778,0,0,1,1.213.183l.6-1.491a4.974,4.974,0,0,0-1.381-.2m-16.545.183h-3.171V-21.06h-1.96v2.207h-1.808v1.446h1.808v3.319c0,1.688.8,2.693,3.1,2.693a5.333,5.333,0,0,0,2.426-.563l-.559-1.355a4.211,4.211,0,0,1-1.717.411c-.969,0-1.285-.488-1.285-1.218v-3.287h3.171Zm-28.989,7.275v-4.566c0-1.719-1.343-2.876-3.508-2.892a3.754,3.754,0,0,0-3.134,1.294,3.5,3.5,0,0,0-2.946-1.294,3.21,3.21,0,0,0-2.611,1.08v-.9h-1.941v7.275h1.958v-4.033c0-1.263.858-1.934,2.184-1.934a1.725,1.725,0,0,1,1.939,1.918v4.049h1.96v-4.033c0-1.263.895-1.934,2.182-1.934a1.724,1.724,0,0,1,1.958,1.918v4.049Z" transform="translate(200.21 86.15)"/></g></g><g transform="translate(104.781 43.313)"><path class="a" d="M-2.378-1.334V-2.4h-.339l-.393.73L-3.5-2.4h-.342v1.063H-3.6v-.8l.367.692h.25l.367-.693v.8Zm-2.154,0v-.881H-4.1V-2.4h-1.11v.179h.436v.881Z" transform="translate(5.207 2.397)"/></g><path class="a" d="M3372.387,2190.656H3343v-43.084h29.383Z" transform="translate(-3303.38 -2141.709)"/><g transform="translate(0 0)"><g class="d" transform="matrix(1, 0, 0, 1, -9, -6)"><path class="b" d="M-34.885-34.408c0-8.74,5.015-16.525,12.826-21.542a38.461,38.461,0,0,0-20.753-5.859c-18.546,0-33.579,12.268-33.579,27.4s15.033,27.4,33.579,27.4a38.461,38.461,0,0,0,20.753-5.859c-7.81-5.017-12.826-12.8-12.826-21.542" transform="translate(85.39 67.81)"/></g></g><g transform="translate(54.3 0)"><g class="c" transform="matrix(1, 0, 0, 1, -63.3, -6)"><path class="a" d="M-45.666-34.408c0,15.133-15.033,27.4-33.579,27.4A38.474,38.474,0,0,1-100-12.866c7.812-5.017,12.828-12.8,12.828-21.542S-92.189-50.933-100-55.951a38.474,38.474,0,0,1,20.756-5.859c18.546,0,33.579,12.268,33.579,27.4" transform="translate(163.3 67.81)"/></g></g></g></g></svg>