<svg xmlns="http://www.w3.org/2000/svg" width="18" height="18" viewBox="0 0 18 18"><defs><style>.a{fill:none;}.b,.c{stroke:none;}.c{fill:#707070;}</style></defs><g transform="translate(4.502 7.903)"><path class="a" d="M0,0H8.675V8.675H0Z" transform="translate(0.161 -3.875)"/><g transform="translate(-5.502 -9.903)"><path class="b" d="M 15.39999961853027 19.5 C 14.68813991546631 19.5 14.10900020599365 18.91682052612305 14.10900020599365 18.20000076293945 C 14.10900020599365 17.48318099975586 14.68813991546631 16.90000152587891 15.39999961853027 16.90000152587891 C 16.11681938171387 16.90000152587891 16.70000076293945 17.48318099975586 16.70000076293945 18.20000076293945 C 16.70000076293945 18.91682052612305 16.11681938171387 19.5 15.39999961853027 19.5 Z M 6.400000095367432 19.5 C 5.688139915466309 19.5 5.109000205993652 18.91682052612305 5.109000205993652 18.20000076293945 C 5.109000205993652 17.48318099975586 5.688139915466309 16.90000152587891 6.400000095367432 16.90000152587891 C 7.116819858551025 16.90000152587891 7.699999809265137 17.48318099975586 7.699999809265137 18.20000076293945 C 7.699999809265137 18.91682052612305 7.116819858551025 19.5 6.400000095367432 19.5 Z M 16.70000076293945 15.00000095367432 L 6.400000095367432 15.00000095367432 C 5.68317985534668 15.00000095367432 5.099999904632568 14.41682052612305 5.099999904632568 13.70000076293945 C 5.099999904632568 13.4792308807373 5.155020236968994 13.2662410736084 5.259119987487793 13.08407115936279 L 5.261050224304199 13.08070087432861 L 5.262919902801514 13.07730102539063 L 6.477920055389404 10.87230110168457 L 6.601480007171631 10.64806079864502 L 6.491759777069092 10.4167308807373 L 3.251760005950928 3.585731029510498 L 3.11624002456665 3.300000905990601 L 2.799999952316284 3.300000905990601 L 1.5 3.300000905990601 L 1.5 2.500000953674316 L 3.625530481338501 2.500000953674316 L 4.336490154266357 4.012681007385254 L 4.471529960632324 4.30000114440918 L 4.789000034332275 4.30000114440918 L 18.10000038146973 4.30000114440918 C 18.32056045532227 4.30000114440918 18.5 4.479441165924072 18.5 4.700000762939453 C 18.5 4.770040988922119 18.48464965820313 4.837090969085693 18.4578800201416 4.883931159973145 L 18.45601081848145 4.887200832366943 L 18.45418930053711 4.890501022338867 L 15.23219013214111 10.73150062561035 C 15.00584030151367 11.14426136016846 14.57032012939453 11.40000057220459 14.09500026702881 11.40000057220459 L 7.389999866485596 11.40000057220459 L 7.09492015838623 11.40000057220459 L 6.952290058135986 11.65832138061523 L 6.142290115356445 13.12532138824463 L 6.110750198364258 13.18244075775146 L 6.094930171966553 13.24573135375977 L 6.067930221557617 13.35373115539551 L 6.052999973297119 13.41345119476318 L 6.052999973297119 13.47500133514404 C 6.052999973297119 13.87477111816406 6.378230094909668 14.20000076293945 6.777999877929688 14.20000076293945 L 16.70000076293945 14.20000076293945 L 16.70000076293945 15.00000095367432 Z"/><path class="c" d="M 15.39999961853027 19 C 15.84111976623535 19 16.20000076293945 18.64112091064453 16.20000076293945 18.20000076293945 C 16.20000076293945 17.75888061523438 15.84111976623535 17.40000152587891 15.39999961853027 17.40000152587891 C 14.96383953094482 17.40000152587891 14.60900020599365 17.75888061523438 14.60900020599365 18.20000076293945 C 14.60900020599365 18.64112091064453 14.96383953094482 19 15.39999961853027 19 M 6.400000095367432 19 C 6.841119766235352 19 7.199999809265137 18.64112091064453 7.199999809265137 18.20000076293945 C 7.199999809265137 17.75888061523438 6.841119766235352 17.40000152587891 6.400000095367432 17.40000152587891 C 5.963840007781982 17.40000152587891 5.609000205993652 17.75888061523438 5.609000205993652 18.20000076293945 C 5.609000205993652 18.64112091064453 5.963840007781982 19 6.400000095367432 19 M 5.880510807037354 14.30792045593262 C 5.764437675476074 14.18292617797852 5.674038410186768 14.03366756439209 5.617915153503418 13.86878490447998 C 5.655444622039795 14.04285526275635 5.749798774719238 14.1960563659668 5.880510807037354 14.30792045593262 M 14.09500026702881 10.90000057220459 C 14.38770961761475 10.90000057220459 14.65524005889893 10.74373054504395 14.79438018798828 10.48999118804932 L 17.93308067321777 4.80000114440918 L 4.789000034332275 4.80000114440918 L 4.38109302520752 4.80000114440918 L 6.943520069122314 10.2024507522583 L 7.162960052490234 10.66512107849121 L 7.0335373878479 10.90000057220459 L 7.389999866485596 10.90000057220459 L 14.09500026702881 10.90000057220459 M 15.39999961853027 20 C 14.40999984741211 20 13.60900020599365 19.19000053405762 13.60900020599365 18.20000076293945 C 13.60900020599365 17.21000099182129 14.40999984741211 16.40000152587891 15.39999961853027 16.40000152587891 C 16.38999938964844 16.40000152587891 17.20000076293945 17.21000099182129 17.20000076293945 18.20000076293945 C 17.20000076293945 19.19000053405762 16.38999938964844 20 15.39999961853027 20 Z M 6.400000095367432 20 C 5.409999847412109 20 4.609000205993652 19.19000053405762 4.609000205993652 18.20000076293945 C 4.609000205993652 17.21000099182129 5.409999847412109 16.40000152587891 6.400000095367432 16.40000152587891 C 7.389999866485596 16.40000152587891 8.199999809265137 17.21000099182129 8.199999809265137 18.20000076293945 C 8.199999809265137 19.19000053405762 7.389999866485596 20 6.400000095367432 20 Z M 17.20000076293945 15.50000095367432 L 6.400000095367432 15.50000095367432 C 5.409999847412109 15.50000095367432 4.599999904632568 14.69000053405762 4.599999904632568 13.70000076293945 C 4.599999904632568 13.38500118255615 4.681000232696533 13.0880012512207 4.824999809265137 12.8360013961792 L 6.039999961853027 10.63100051879883 L 2.799999952316284 3.800000905990601 L 1 3.800000905990601 L 1 2.000000953674316 L 3.943000078201294 2.000000953674316 L 4.789000034332275 3.800000905990601 L 18.10000038146973 3.800000905990601 C 18.59499931335449 3.800000905990601 19 4.205000877380371 19 4.700000762939453 C 19 4.853001117706299 18.9640007019043 5.006000995635986 18.89200019836426 5.132000923156738 L 15.67000007629395 10.97300052642822 C 15.36400032043457 11.53100109100342 14.77000045776367 11.90000057220459 14.09500026702881 11.90000057220459 L 7.389999866485596 11.90000057220459 L 6.579999923706055 13.36700057983398 L 6.552999973297119 13.47500133514404 C 6.552999973297119 13.60100078582764 6.651999950408936 13.70000076293945 6.777999877929688 13.70000076293945 L 17.20000076293945 13.70000076293945 L 17.20000076293945 15.50000095367432 Z"/></g></g></svg>