<svg xmlns="http://www.w3.org/2000/svg" viewBox="0 0 2405.07 471.24"><defs><style>.cls-1{fill:#fff;}</style></defs><g id="Layer_2" data-name="Layer 2"><g id="BACKGORUND"><path class="cls-1" d="M1116.77,126.58a13.42,13.42,0,0,1-11.2-4.25l-13.12-14.24a2.53,2.53,0,0,0-2.09-.8l-16.79,1.7a2.51,2.51,0,0,0-1.89,1.2l-10,16.58a13.4,13.4,0,0,1-24.8-5.57l-4.34-42.84a17.18,17.18,0,0,1,15.35-18.8l57.72-5.84a17.18,17.18,0,0,1,18.81,15.34l4.34,42.84A13.41,13.41,0,0,1,1116.77,126.58Zm-43.38-19.4,16.78-1.7a4.38,4.38,0,0,1,3.63,1.37l13.11,14.24a11.57,11.57,0,0,0,20-9l-4.34-42.84a15.35,15.35,0,0,0-16.8-13.72l-57.73,5.85a15.35,15.35,0,0,0-13.71,16.8l4.33,42.84a11.58,11.58,0,0,0,21.43,4.81l10-16.58A4.33,4.33,0,0,1,1073.39,107.18Z"/><path class="cls-1" d="M1050.2,134.2a14.36,14.36,0,0,1-14.27-12.9l-4.34-42.84a18.15,18.15,0,0,1,16.2-19.85l57.73-5.84A18.13,18.13,0,0,1,1125.37,69l4.33,42.84a14.36,14.36,0,0,1-12.83,15.72h0a14.41,14.41,0,0,1-12-4.56l-13.12-14.23a1.56,1.56,0,0,0-1.3-.5l-16.78,1.7a1.59,1.59,0,0,0-1.18.74l-10,16.58a14.42,14.42,0,0,1-10.85,6.87A14.21,14.21,0,0,1,1050.2,134.2Zm57.16-77.79c-.48,0-1,0-1.47.07l-57.72,5.84a14.41,14.41,0,0,0-12.87,15.76l4.34,42.84a10.62,10.62,0,0,0,19.66,4.42l10-16.58a5.33,5.33,0,0,1,4-2.53l16.79-1.7a5.34,5.34,0,0,1,4.42,1.68l13.11,14.24a10.61,10.61,0,0,0,16-.49,10.5,10.5,0,0,0,2.34-7.78l-4.33-42.84a14.39,14.39,0,0,0-14.3-12.93Z"/><path class="cls-1" d="M1058.82,95.85l-3.1.31a.91.91,0,0,1-1-.82l-1.91-18.89a.9.9,0,0,1,.81-1l3.11-.31a.91.91,0,0,1,1,.81l1.91,18.89A.92.92,0,0,1,1058.82,95.85Zm-2.38-1.6,1.29-.13L1056,77l-1.29.14Z"/><path class="cls-1" d="M1055.62,97.12a1.84,1.84,0,0,1-1.17-.42,1.87,1.87,0,0,1-.68-1.26l-1.91-18.89a1.87,1.87,0,0,1,1.67-2l3.1-.31a1.86,1.86,0,0,1,2,1.67l1.92,18.89a1.85,1.85,0,0,1-1.67,2h0l-3.11.32Z"/><path class="cls-1" d="M1065.92,87.15,1047,89.06a.9.9,0,0,1-1-.81l-.32-3.11a.92.92,0,0,1,.82-1l18.89-1.91a.92.92,0,0,1,1,.82l.31,3.1A.9.9,0,0,1,1065.92,87.15Zm-18.17,0,17.08-1.73-.13-1.29-17.08,1.73Z"/><path class="cls-1" d="M1046.93,90a1.89,1.89,0,0,1-1.18-.42,1.85,1.85,0,0,1-.67-1.26l-.32-3.1a1.87,1.87,0,0,1,1.67-2l18.89-1.92a1.88,1.88,0,0,1,1.37.42,1.83,1.83,0,0,1,.68,1.25l.31,3.11a1.87,1.87,0,0,1-1.67,2h0L1047.12,90Z"/><path class="cls-1" d="M1089,86.26a4.3,4.3,0,1,1,3.84-4.71A4.31,4.31,0,0,1,1089,86.26Zm-.69-6.73a2.47,2.47,0,1,0,2.71,2.21A2.47,2.47,0,0,0,1088.28,79.53Z"/><path class="cls-1" d="M1088.52,87.23a5.19,5.19,0,0,1-3.3-1.18,5.25,5.25,0,1,1,3.84,1.15A4.89,4.89,0,0,1,1088.52,87.23Zm0-6.76h-.16a1.52,1.52,0,0,0-1.36,1.66,1.54,1.54,0,0,0,.56,1,1.47,1.47,0,0,0,1.11.33,1.51,1.51,0,0,0-.15-3Z"/><path class="cls-1" d="M1110.19,84.11A4.3,4.3,0,1,1,1114,79.4,4.3,4.3,0,0,1,1110.19,84.11Zm-.68-6.73a2.47,2.47,0,1,0,2.7,2.21A2.47,2.47,0,0,0,1109.51,77.38Z"/><path class="cls-1" d="M1109.75,85.08a5.18,5.18,0,1,1,.53,0Zm0-6.76h-.16a1.52,1.52,0,0,0,.31,3,1.53,1.53,0,0,0,1-.55,1.47,1.47,0,0,0,.33-1.12,1.51,1.51,0,0,0-1.5-1.36Z"/><path class="cls-1" d="M1098.5,74.57a4.29,4.29,0,1,1,3.84-4.7A4.29,4.29,0,0,1,1098.5,74.57Zm-.68-6.73a2.47,2.47,0,1,0,2.71,2.21A2.48,2.48,0,0,0,1097.82,67.84Z"/><path class="cls-1" d="M1098.06,75.55a5.26,5.26,0,0,1-5.21-4.72,5.25,5.25,0,1,1,5.75,4.69A4.89,4.89,0,0,1,1098.06,75.55Zm0-6.77h-.15a1.52,1.52,0,1,0,1.66,1.36,1.53,1.53,0,0,0-1.51-1.37Z"/><path class="cls-1" d="M1100.65,95.8a4.3,4.3,0,1,1,3.84-4.71A4.3,4.3,0,0,1,1100.65,95.8Zm-.68-6.73a2.47,2.47,0,1,0,2.7,2.2A2.48,2.48,0,0,0,1100,89.07Z"/><path class="cls-1" d="M1100.21,96.77a5.26,5.26,0,0,1-5.21-4.72,5.25,5.25,0,1,1,5.75,4.69A4.89,4.89,0,0,1,1100.21,96.77Zm0-6.77h-.15a1.52,1.52,0,0,0-.81,2.69,1.47,1.47,0,0,0,1.11.33,1.52,1.52,0,0,0-.15-3Z"/><path class="cls-1" d="M1086.3,100.65l-10.09,1a.92.92,0,0,1-1-.82l-.29-2.85a.92.92,0,0,1,.82-1l10.09-1a.92.92,0,0,1,1,.82l.29,2.85A.92.92,0,0,1,1086.3,100.65Zm-9.36-.89,8.27-.84-.1-1-8.28.84Z"/><path class="cls-1" d="M1076.12,102.62a1.87,1.87,0,0,1-1.86-1.67L1074,98.1a1.86,1.86,0,0,1,1.66-2l10.1-1a1.87,1.87,0,0,1,2,1.66l.29,2.85a1.87,1.87,0,0,1-1.67,2h0l-10.09,1Z"/><path class="cls-1" d="M1076.94,58.45a.9.9,0,0,1-1-.81l-1.31-12.94a.91.91,0,1,1,1.81-.19l1.31,12.94A.9.9,0,0,1,1076.94,58.45Z"/><path class="cls-1" d="M1076.84,59.41a1.85,1.85,0,0,1-1.85-1.68l-1.31-12.94a1.86,1.86,0,0,1,.41-1.36,1.86,1.86,0,0,1,2.62-.27,1.85,1.85,0,0,1,.68,1.26l1.31,12.94a1.87,1.87,0,0,1-1.67,2h-.19Z"/><path class="cls-1" d="M1802.87,126.09a1,1,0,0,1-.33-.06,40.2,40.2,0,0,1,0-75.12.91.91,0,0,1,.65,0,40.18,40.18,0,0,1,0,75.12A.87.87,0,0,1,1802.87,126.09Zm0-73.34a38.36,38.36,0,0,0,0,71.45,38.35,38.35,0,0,0,0-71.45Z"/><path class="cls-1" d="M1802.87,127a1.93,1.93,0,0,1-.67-.12,41.15,41.15,0,0,1,0-76.9,1.87,1.87,0,0,1,1.32,0,41.13,41.13,0,0,1,0,76.9A1.84,1.84,0,0,1,1802.87,127Zm0-73.27a37.42,37.42,0,0,0,0,69.41,37.41,37.41,0,0,0,0-69.41Z"/><path class="cls-1" d="M1802.87,52.68a.87.87,0,0,1-.32-.06,37.79,37.79,0,0,0-6.82-1.89.92.92,0,0,1,0-1.8,40,40,0,0,1,14.3,0,.91.91,0,0,1,0,1.8,37.72,37.72,0,0,0-6.83,1.89A1,1,0,0,1,1802.87,52.68ZM1801,50.15c.63.2,1.25.41,1.86.64.61-.23,1.23-.44,1.86-.64C1803.49,50.09,1802.26,50.09,1801,50.15Z"/><path class="cls-1" d="M1802.87,53.63a1.93,1.93,0,0,1-.67-.12,36.55,36.55,0,0,0-6.63-1.85,1.86,1.86,0,0,1,0-3.67,41.33,41.33,0,0,1,14.63,0,1.87,1.87,0,0,1,0,3.67,36.68,36.68,0,0,0-6.66,1.85A1.93,1.93,0,0,1,1802.87,53.63Zm-6.29-3.88-.68.11c.92.14,1.83.32,2.75.54Zm12.76,0-1.92.6c.81-.2,1.62-.37,2.44-.52Z"/><path class="cls-1" d="M1802.88,128.66a40.52,40.52,0,0,1-7.15-.64.92.92,0,0,1,0-1.8,37.38,37.38,0,0,0,6.82-1.9,1,1,0,0,1,.65,0,37.74,37.74,0,0,0,6.83,1.9.91.91,0,0,1,0,1.8A40.44,40.44,0,0,1,1802.88,128.66Zm-1.87-1.87c1.25.06,2.48.06,3.72,0-.63-.2-1.25-.41-1.86-.64C1802.26,126.38,1801.64,126.59,1801,126.79Z"/><path class="cls-1" d="M1802.88,129.62a41.53,41.53,0,0,1-7.32-.67,1.86,1.86,0,0,1,0-3.67,37.45,37.45,0,0,0,6.64-1.84,1.82,1.82,0,0,1,1.32,0,36.78,36.78,0,0,0,6.67,1.85,1.87,1.87,0,0,1,0,3.67A41.53,41.53,0,0,1,1802.88,129.62Zm-4.53-3c-.81.21-1.63.38-2.45.53l.55.07Zm8.74-.09,2.1.66.67-.12C1808.93,126.94,1808,126.76,1807.09,126.54Z"/><path class="cls-1" d="M1809.87,128h-.16a40.09,40.09,0,0,1-7.17-2,.9.9,0,0,1-.58-.85.92.92,0,0,1,.59-.86,38.36,38.36,0,0,0,0-71.7.9.9,0,0,1-.59-.85.92.92,0,0,1,.58-.86,40.91,40.91,0,0,1,7.17-2,.86.86,0,0,1,.32,0,40.19,40.19,0,0,1,0,79.09Zm-4.43-2.93a39.22,39.22,0,0,0,4.43,1.09,38.36,38.36,0,0,0,0-75.44,39.26,39.26,0,0,0-4.43,1.1,40.18,40.18,0,0,1,0,73.25Z"/><path class="cls-1" d="M1809.87,129l-.34,0a40.69,40.69,0,0,1-7.32-2,1.86,1.86,0,0,1,0-3.48,37.41,37.41,0,0,0,0-69.93,1.87,1.87,0,0,1,0-3.49,41.4,41.4,0,0,1,7.33-2,1.83,1.83,0,0,1,.66,0,41.14,41.14,0,0,1,0,81Zm0-1.82v0Zm-1.76-2.31c.59.14,1.17.26,1.76.37a37.41,37.41,0,0,0,0-73.5c-.59.11-1.17.24-1.76.38a41.12,41.12,0,0,1,0,72.75ZM1803,51.77l-.09,0,1.18.46Z"/><path class="cls-1" d="M1795.9,128h-.17a40.19,40.19,0,0,1,0-79.09.92.92,0,0,1,.33,1.8,38.36,38.36,0,0,0,0,75.49.91.91,0,0,1-.16,1.81Z"/><path class="cls-1" d="M1795.9,129l-.34,0a41.14,41.14,0,0,1,0-81,1.87,1.87,0,0,1,1.87,2.9,1.89,1.89,0,0,1-1.2.77,37.4,37.4,0,0,0,0,73.62,1.91,1.91,0,0,1,1.2.78,1.86,1.86,0,0,1-1.53,2.92Z"/><path class="cls-1" d="M1802.88,128.66a.91.91,0,0,1-.91-.91V49.19a.92.92,0,0,1,1.83,0v78.56A.91.91,0,0,1,1802.88,128.66Z"/><path class="cls-1" d="M1802.88,129.62a1.87,1.87,0,0,1-1.86-1.87V49.19a1.87,1.87,0,0,1,3.73,0v78.56A1.87,1.87,0,0,1,1802.88,129.62Z"/><path class="cls-1" d="M1842.16,89.39H1763.6a.92.92,0,0,1,0-1.83h78.56a.92.92,0,0,1,0,1.83Z"/><path class="cls-1" d="M1842.16,90.34H1763.6a1.87,1.87,0,0,1,0-3.73h78.56a1.87,1.87,0,0,1,0,3.73Z"/><path class="cls-1" d="M144.74,98.4l-44.74,17a1.83,1.83,0,0,1-2.11-.61L62.18,67.43a8.65,8.65,0,0,0-10-2.87L43,68.05a1.82,1.82,0,0,1-1.29-3.41l9.19-3.5A12.33,12.33,0,0,1,65.1,65.23L100,111.51,143.44,95a1.82,1.82,0,0,1,1.3,3.41Zm-.65-1.7.32.85-.32-.85ZM60.56,63.6a10.27,10.27,0,0,1,3.08,2.73L99.35,113.7l.61-.23a.91.91,0,0,1-1-.31L63.64,66.33A10.27,10.27,0,0,0,60.56,63.6ZM42.38,66.34l9.2-3.49Zm92.19,20.34L91.9,102.9a1.82,1.82,0,1,1-1.29-3.41l42.67-16.22a6.63,6.63,0,0,0,4.22-6.75L135.33,52a6.6,6.6,0,0,0-8.92-5.59L82.35,63.12a1.82,1.82,0,1,1-1.3-3.41L125.12,43A10.23,10.23,0,0,1,139,51.63l2.18,24.57A10.28,10.28,0,0,1,134.57,86.68ZM91.25,101.2,133.93,85Zm48.1-24.34A8.47,8.47,0,0,1,133.93,85,8.47,8.47,0,0,0,139.35,76.86ZM81.7,61.42l44.06-16.75a8.3,8.3,0,0,1,6.94.43,8.3,8.3,0,0,0-6.94-.43Zm27.08,72.7a8.39,8.39,0,1,1,4.86-10.82A8.41,8.41,0,0,1,108.78,134.12Zm-9.11-5.51A6.56,6.56,0,1,0,111.93,124a6.56,6.56,0,1,1-12.26,4.66Zm4.45-6.75a4.73,4.73,0,1,0,6.1,2.74A4.73,4.73,0,0,0,104.12,121.86Zm42.78-2.24a8.38,8.38,0,1,1,4.86-10.81A8.39,8.39,0,0,1,146.9,119.62Zm-9.11-5.5a6.56,6.56,0,1,0,12.26-4.66,6.56,6.56,0,1,1-12.26,4.66Zm4.45-6.76a4.73,4.73,0,1,0,6.1,2.75A4.74,4.74,0,0,0,142.24,107.36Z"/><path class="cls-1" d="M672.2,69.06c-2.94,0-2.93-4.57,0-4.57s2.94,4.57,0,4.57Zm0,0c2.94,0,2.95-4.57,0-4.57s-2.94,4.57,0,4.57Zm6.64,4.11V55.49a.91.91,0,0,0-.91-.92h-78a.92.92,0,0,0-.91.92V73.17a.92.92,0,0,0,.91.92h28.19a.92.92,0,0,0,0-1.83H600.81V56.4H677V72.26H647.84a.92.92,0,0,0,0,1.83h30.09A.91.91,0,0,0,678.84,73.17ZM671,137V74.56a.92.92,0,0,0-1.83,0v61.52h-60.6V74.56a.92.92,0,0,0-1.83,0V137a.91.91,0,0,0,.92.91h62.43A.91.91,0,0,0,671,137Zm-22.28-.35V55.83a.92.92,0,0,0-.92-.91H628.42a.91.91,0,0,0-.91.91v80.81a.92.92,0,0,0,.91.92h19.42A.92.92,0,0,0,648.76,136.64ZM629.33,56.75h17.6v79h-17.6Zm8.53-1.4a.9.9,0,0,0,.83-1c-.78-9.37-4.72-13-7.9-14.42a11.55,11.55,0,0,0-11.25,1.29c-5.13,3.94.93,13,1.19,13.37a.91.91,0,0,0,1.51-1c0-.08-5.3-8.05-1.59-10.91a9.79,9.79,0,0,1,9.4-1.06c2.73,1.21,6.12,4.42,6.83,12.9a.9.9,0,0,0,.9.84Zm2.95-.83c.71-8.48,4.1-11.69,6.82-12.9a9.79,9.79,0,0,1,9.4,1.06c3.72,2.86-1.53,10.83-1.58,10.91a.9.9,0,0,0,.24,1.26.91.91,0,0,0,1.27-.24c.26-.38,6.32-9.43,1.19-13.37A11.55,11.55,0,0,0,646.9,40c-3.18,1.41-7.13,5-7.91,14.42a.91.91,0,0,0,.84,1h.07A.91.91,0,0,0,640.81,54.52Zm-11.52,52V93.26a.92.92,0,0,0-.91-.92H607.75a.92.92,0,0,0-.91.92v13.26a.92.92,0,0,0,.91.92h20.63A.92.92,0,0,0,629.29,106.52ZM608.67,94.17h18.79v11.44H608.67ZM671,106.52V93.26a.92.92,0,0,0-.91-.92H648.31a.91.91,0,0,0-.91.92v13.26a.91.91,0,0,0,.91.92h21.82A.92.92,0,0,0,671,106.52ZM649.22,94.17h20v11.44h-20Zm30.54-21V55.49a1.83,1.83,0,0,0-1.83-1.83h-78a1.83,1.83,0,0,0-1.82,1.83V73.17A1.83,1.83,0,0,0,599.89,75h28.19a1.83,1.83,0,1,0,0-3.65H601.72v-14H676.1v14H647.84a1.83,1.83,0,0,0,0,3.65h30.09A1.83,1.83,0,0,0,679.76,73.17Zm-2.74,0a.91.91,0,0,0,.91-.91V56.4a.91.91,0,0,0-.91-.91H600.81a.91.91,0,0,0-.92.91V72.26a.91.91,0,0,0,.92.91h-.92V55.49h78V73.17H677ZM672,137V74.56a1.83,1.83,0,0,0-3.65,0v60.6H609.52V74.56a1.83,1.83,0,0,0-3.65,0V137a1.83,1.83,0,0,0,1.83,1.83h62.43A1.83,1.83,0,0,0,672,137Zm-63.34,0h60.6a.92.92,0,0,0,.92-.91V137H607.7v-.91A.91.91,0,0,0,608.61,137Zm41.06-.35V55.83A1.82,1.82,0,0,0,647.84,54H628.42a1.82,1.82,0,0,0-1.83,1.82v80.81a1.83,1.83,0,0,0,1.83,1.83h19.42A1.83,1.83,0,0,0,649.67,136.64Zm-20.34,0h17.6a.91.91,0,0,0,.91-.91v-79a.91.91,0,0,0-.91-.91h.91v80.81H628.42v-.91A.91.91,0,0,0,629.33,136.64Zm.92-79H646v77.16H630.25Zm-.92-1.83a.91.91,0,0,0-.91.91v-.91Zm8.61.43a1.8,1.8,0,0,0,1.24-.64,1.82,1.82,0,0,0,.42-1.33c-.81-9.82-5-13.67-8.44-15.17A12.51,12.51,0,0,0,619,40.51c-5.8,4.46.71,14.2,1,14.62a1.84,1.84,0,0,0,2.54.48,1.82,1.82,0,0,0,.49-2.53c-1.27-1.9-4.3-7.74-1.79-9.67a8.82,8.82,0,0,1,8.47-.95c2.5,1.1,5.62,4.1,6.29,12.14a1.83,1.83,0,0,0,1.81,1.67Zm-.16-1.82c-.59-7.16-3.08-10.78-5.56-12.61,2.48,1.83,5,5.45,5.58,12.61l0,.92v-.92Zm-16.3-.34h0Zm8.75-13.39a10.82,10.82,0,0,0-9.85,1,10.7,10.7,0,0,1,6-1.8A9.92,9.92,0,0,1,630.23,40.71ZM641.72,54.6c.67-8,3.79-11,6.28-12.14a8.79,8.79,0,0,1,8.48.95c2.52,1.94-.52,7.77-1.79,9.66a1.83,1.83,0,1,0,3,2c2.55-3.75,5.63-11,1-14.61a12.49,12.49,0,0,0-12.17-1.39c-3.4,1.5-7.63,5.35-8.45,15.17a1.79,1.79,0,0,0,.43,1.33,1.76,1.76,0,0,0,1.22.64h.17A1.84,1.84,0,0,0,641.72,54.6Zm-1.82-.16v0Zm7.63-13.77a10.69,10.69,0,0,1,9.66,1,10.91,10.91,0,0,0-5.9-1.7A10.1,10.1,0,0,0,647.53,40.67ZM630.2,106.52V93.26a1.83,1.83,0,0,0-1.82-1.83H607.75a1.83,1.83,0,0,0-1.82,1.83v13.26a1.83,1.83,0,0,0,1.82,1.83h20.63A1.83,1.83,0,0,0,630.2,106.52Zm-21.53,0h18.79a.92.92,0,0,0,.92-.91V94.17a.91.91,0,0,0-.92-.91h.92v13.26H607.75v-.91A.92.92,0,0,0,608.67,106.52Zm.91-11.44h17v9.62h-17Zm-.91-1.82a.91.91,0,0,0-.92.91v-.91ZM672,106.52V93.26a1.83,1.83,0,0,0-1.82-1.83H648.31a1.83,1.83,0,0,0-1.83,1.83v13.26a1.83,1.83,0,0,0,1.83,1.83h21.82A1.83,1.83,0,0,0,672,106.52Zm-22.73,0h20a.92.92,0,0,0,.92-.91V94.17a.91.91,0,0,0-.92-.91h.92v13.26H648.31v-.91A.91.91,0,0,0,649.22,106.52Zm.91-11.44H668.3v9.62H650.13Zm-.91-1.82a.91.91,0,0,0-.91.91v-.91Z"/><path class="cls-1" d="M675.05,450.7a13.45,13.45,0,0,1-11.21-4.25l-13.11-14.24a2.51,2.51,0,0,0-2.1-.79l-16.78,1.69a2.55,2.55,0,0,0-1.9,1.2l-10,16.58a13.4,13.4,0,0,1-24.8-5.57l-4.34-42.84a17.19,17.19,0,0,1,15.35-18.8l57.73-5.84a17.17,17.17,0,0,1,18.8,15.34L687,436A13.41,13.41,0,0,1,675.05,450.7Zm-43.39-19.4,16.79-1.7a4.36,4.36,0,0,1,3.62,1.37l13.12,14.24a11.57,11.57,0,0,0,20-9l-4.33-42.84a15.36,15.36,0,0,0-16.81-13.72l-57.72,5.85a15.35,15.35,0,0,0-13.72,16.8L597,445.14A11.57,11.57,0,0,0,618.39,450l10-16.58A4.33,4.33,0,0,1,631.66,431.3Z"/><path class="cls-1" d="M608.47,458.33a14.38,14.38,0,0,1-14.27-12.91l-4.33-42.84a18.13,18.13,0,0,1,16.2-19.85l57.72-5.84a18.15,18.15,0,0,1,19.85,16.2L688,435.93a14.38,14.38,0,0,1-12.84,15.72h0a14.44,14.44,0,0,1-12-4.55L650,432.86a1.56,1.56,0,0,0-1.3-.5l-16.79,1.7a1.58,1.58,0,0,0-1.17.74l-10,16.58a14.47,14.47,0,0,1-12.3,6.95Zm57.17-77.8a14.46,14.46,0,0,0-1.47.07l-57.73,5.84a14.4,14.4,0,0,0-12.86,15.77L597.91,445a10.63,10.63,0,0,0,19.67,4.42l10-16.58a5.33,5.33,0,0,1,4-2.53l16.78-1.7a5.32,5.32,0,0,1,4.42,1.68l13.12,14.24a10.62,10.62,0,0,0,18.38-8.27l-4.34-42.84a14.39,14.39,0,0,0-14.29-12.93Zm-34,50.77.09.87h0Z"/><path class="cls-1" d="M617.1,420l-3.11.31a.91.91,0,0,1-1-.82l-1.91-18.89a.91.91,0,0,1,.82-1l3.1-.31a.91.91,0,0,1,1,.81l1.91,18.9A.92.92,0,0,1,617.1,420Zm-2.38-1.6,1.28-.13-1.72-17.07-1.29.13Z"/><path class="cls-1" d="M613.9,421.24a1.87,1.87,0,0,1-1.86-1.68l-1.91-18.89a1.88,1.88,0,0,1,.41-1.37,1.85,1.85,0,0,1,1.26-.68l3.11-.31a1.86,1.86,0,0,1,2,1.67l1.91,18.89a1.89,1.89,0,0,1-.41,1.37,1.85,1.85,0,0,1-1.26.67h0l-3.1.32Z"/><path class="cls-1" d="M624.19,411.27l-18.89,1.92a.92.92,0,0,1-1-.82l-.31-3.11a.9.9,0,0,1,.81-1l18.89-1.91a.91.91,0,0,1,1,.82l.32,3.1A.92.92,0,0,1,624.19,411.27Zm-18.17,0,17.08-1.73-.13-1.29L605.89,410Z"/><path class="cls-1" d="M605.21,414.14a1.87,1.87,0,0,1-1.86-1.67l-.31-3.11a1.85,1.85,0,0,1,1.67-2l18.89-1.92a1.86,1.86,0,0,1,2,1.67l.31,3.11a1.86,1.86,0,0,1-1.66,2h0l-18.89,1.91Z"/><path class="cls-1" d="M647.24,410.38a4.3,4.3,0,1,1,3.84-4.71A4.31,4.31,0,0,1,647.24,410.38Zm-.68-6.73a2.47,2.47,0,1,0,2.7,2.21A2.47,2.47,0,0,0,646.56,403.65Z"/><path class="cls-1" d="M646.8,411.35a5.25,5.25,0,1,1,4.07-1.93,5.19,5.19,0,0,1-3.53,1.9Zm-.15-6.75a1.51,1.51,0,0,0-1.35,1.66,1.53,1.53,0,0,0,1.66,1.36,1.52,1.52,0,1,0-.31-3Z"/><path class="cls-1" d="M668.46,408.23a4.29,4.29,0,1,1,3.84-4.71A4.28,4.28,0,0,1,668.46,408.23Zm-.68-6.73a2.47,2.47,0,1,0,2.71,2.21A2.48,2.48,0,0,0,667.78,401.5Z"/><path class="cls-1" d="M668,409.2a5.24,5.24,0,1,1,5.23-5.77,5.27,5.27,0,0,1-4.69,5.75h0Zm-.14-6.75a1.51,1.51,0,0,0-.81,2.68,1.5,1.5,0,0,0,2.13-.21,1.51,1.51,0,0,0-1.32-2.47Z"/><path class="cls-1" d="M656.78,398.69a4.29,4.29,0,1,1,3.84-4.7A4.3,4.3,0,0,1,656.78,398.69ZM656.1,392a2.47,2.47,0,1,0,2.7,2.2A2.46,2.46,0,0,0,656.1,392Z"/><path class="cls-1" d="M656.34,399.67a5.26,5.26,0,0,1-5.22-4.72,5.27,5.27,0,0,1,4.7-5.75,5.25,5.25,0,1,1,1,10.44h0Zm-.15-6.76a1.51,1.51,0,0,0-1.35,1.66,1.49,1.49,0,0,0,.55,1,1.52,1.52,0,1,0,.8-2.69Z"/><path class="cls-1" d="M658.92,419.92a4.3,4.3,0,1,1,3.84-4.71A4.31,4.31,0,0,1,658.92,419.92Zm-.68-6.73a2.47,2.47,0,1,0,2.71,2.2A2.46,2.46,0,0,0,658.24,413.19Z"/><path class="cls-1" d="M658.49,420.89a5.26,5.26,0,0,1-5.22-4.72,5.27,5.27,0,0,1,4.69-5.75A5.25,5.25,0,1,1,659,420.86Zm-.15-6.76a1.52,1.52,0,0,0-.81,2.69,1.56,1.56,0,0,0,1.11.33,1.52,1.52,0,0,0-.3-3Z"/><path class="cls-1" d="M644.58,424.77l-10.1,1a.92.92,0,0,1-1-.82l-.28-2.85a.91.91,0,0,1,.81-1l10.1-1a.92.92,0,0,1,1,.82l.28,2.85A.9.9,0,0,1,644.58,424.77Zm-9.37-.89,8.28-.84-.11-1-8.27.84Z"/><path class="cls-1" d="M634.39,426.74a1.86,1.86,0,0,1-1.85-1.67l-.29-2.85a1.86,1.86,0,0,1,1.67-2l10.09-1a1.86,1.86,0,0,1,2,1.66l.29,2.85a1.85,1.85,0,0,1-1.67,2l-10.09,1Z"/><path class="cls-1" d="M635.21,382.58a.92.92,0,0,1-1-.82l-1.31-12.94a.91.91,0,0,1,1.82-.19L636,381.57A.93.93,0,0,1,635.21,382.58Z"/><path class="cls-1" d="M635.12,383.53a1.87,1.87,0,0,1-1.86-1.67L632,368.91a1.86,1.86,0,1,1,3.71-.37L637,381.48a1.85,1.85,0,0,1-1.66,2h-.19Z"/><path class="cls-1" d="M1080.63,450.21a1,1,0,0,1-.33-.06,40.2,40.2,0,0,1,0-75.12.91.91,0,0,1,.65,0,40.18,40.18,0,0,1,0,75.12A.87.87,0,0,1,1080.63,450.21Zm0-73.34a38.36,38.36,0,0,0,0,71.45,38.35,38.35,0,0,0,0-71.45Z"/><path class="cls-1" d="M1080.63,451.16a1.85,1.85,0,0,1-.67-.12,41.15,41.15,0,0,1,0-76.9,1.85,1.85,0,0,1,1.33,0,41.13,41.13,0,0,1,0,76.89A1.8,1.8,0,0,1,1080.63,451.16Zm0-73.27a37.42,37.42,0,0,0,0,69.41,37.41,37.41,0,0,0,0-69.41Z"/><path class="cls-1" d="M1080.63,376.8a1,1,0,0,1-.33-.06,38.29,38.29,0,0,0-6.81-1.89.91.91,0,0,1,0-1.8,40,40,0,0,1,14.3,0,.92.92,0,0,1,0,1.8,38,38,0,0,0-6.84,1.89A.87.87,0,0,1,1080.63,376.8Zm-1.86-2.52q.93.29,1.86.63c.61-.23,1.23-.44,1.86-.64A35.5,35.5,0,0,0,1078.77,374.28Z"/><path class="cls-1" d="M1080.63,377.75a1.89,1.89,0,0,1-.67-.12,37.25,37.25,0,0,0-6.64-1.85,1.87,1.87,0,0,1,0-3.67,41.33,41.33,0,0,1,14.63,0,1.86,1.86,0,0,1,0,3.67,37.13,37.13,0,0,0-6.66,1.85A1.88,1.88,0,0,1,1080.63,377.75Zm-6.3-3.88-.67.11c.92.14,1.83.32,2.75.54Zm12.76,0-1.94.6c.82-.2,1.64-.37,2.47-.52Z"/><path class="cls-1" d="M1080.64,452.79a40.46,40.46,0,0,1-7.15-.65.91.91,0,0,1,0-1.8,38.29,38.29,0,0,0,6.81-1.89.86.86,0,0,1,.65,0,38.89,38.89,0,0,0,6.84,1.89.92.92,0,0,1,0,1.8A40.54,40.54,0,0,1,1080.64,452.79Zm-1.87-1.88c1.24.06,2.47.06,3.72,0-.63-.2-1.25-.41-1.86-.64C1080,450.5,1079.39,450.71,1078.77,450.91Z"/><path class="cls-1" d="M1080.64,453.74a41.53,41.53,0,0,1-7.32-.67,1.87,1.87,0,0,1,0-3.67,36.43,36.43,0,0,0,6.64-1.85,1.87,1.87,0,0,1,1.32,0,36.88,36.88,0,0,0,6.68,1.85,1.86,1.86,0,0,1,0,3.67A41.33,41.33,0,0,1,1080.64,453.74Zm-4.49-3q-1.25.31-2.49.54l.55.08Zm8.72-.08,2.08.66.67-.12C1086.7,451.06,1085.78,450.88,1084.87,450.66Z"/><path class="cls-1" d="M1087.62,452.15h-.16a39.75,39.75,0,0,1-7.16-2,.91.91,0,0,1,0-1.7,38.36,38.36,0,0,0,0-71.71.91.91,0,0,1-.59-.85.93.93,0,0,1,.59-.86,40.57,40.57,0,0,1,7.16-2,.92.92,0,0,1,.33,0,40.19,40.19,0,0,1,0,79.09Zm-4.43-2.93a37.19,37.19,0,0,0,4.43,1.09,38.35,38.35,0,0,0,0-75.43,37.67,37.67,0,0,0-4.43,1.09,40.17,40.17,0,0,1,0,73.25Z"/><path class="cls-1" d="M1087.62,453.1l-.35,0a41.28,41.28,0,0,1-7.31-2,1.86,1.86,0,0,1,0-3.48,37.4,37.4,0,0,0,0-69.93,1.86,1.86,0,0,1-1.2-1.74,1.89,1.89,0,0,1,1.2-1.75,41.27,41.27,0,0,1,7.34-2,1.83,1.83,0,0,1,.66,0,41.13,41.13,0,0,1,0,81Zm0-1.82v0Zm-1.75-2.31c.58.14,1.17.26,1.75.37a37.41,37.41,0,0,0,0-73.5c-.58.11-1.17.24-1.75.38a41.12,41.12,0,0,1,0,72.75Zm-5.15-73.08-.08,0,1.16.46Z"/><path class="cls-1" d="M1073.65,452.15h-.16a40.19,40.19,0,0,1,0-79.09.91.91,0,1,1,.32,1.8,38.36,38.36,0,0,0,0,75.49.91.91,0,0,1-.16,1.81Z"/><path class="cls-1" d="M1073.65,453.1l-.35,0a41.14,41.14,0,0,1,0-81,1.87,1.87,0,0,1,2.17,1.51,1.87,1.87,0,0,1-1.51,2.16,37.4,37.4,0,0,0,0,73.62,1.86,1.86,0,0,1-.33,3.7Z"/><path class="cls-1" d="M1080.64,452.79a.92.92,0,0,1-.92-.92V373.31a.92.92,0,0,1,1.83,0v78.56A.92.92,0,0,1,1080.64,452.79Z"/><path class="cls-1" d="M1080.64,453.74a1.87,1.87,0,0,1-1.87-1.87V373.31a1.87,1.87,0,0,1,3.73,0v78.56A1.87,1.87,0,0,1,1080.64,453.74Z"/><path class="cls-1" d="M1119.92,413.51h-78.56a.92.92,0,0,1,0-1.83h78.56a.92.92,0,0,1,0,1.83Z"/><path class="cls-1" d="M1119.92,414.46h-78.56a1.87,1.87,0,0,1,0-3.73h78.56a1.87,1.87,0,0,1,0,3.73Z"/><path class="cls-1" d="M1993.55,451.24l-44.37-18a1.83,1.83,0,0,1-1.13-1.88l6-59a8.67,8.67,0,0,0-5.34-8.88l-9.13-3.69a1.82,1.82,0,0,1,1.37-3.38l9.13,3.69a12.33,12.33,0,0,1,7.6,12.63l-5.91,57.65,43.1,17.45a1.82,1.82,0,1,1-1.37,3.38Zm.68-1.69-.34.85.34-.85Zm-38.72-81.08a10.28,10.28,0,0,1,.4,4.1l-6,59,.61.25a.92.92,0,0,1-.54-.93l6-58.34A10.46,10.46,0,0,0,1955.51,368.47Zm-15.19-10.34,9.12,3.69Zm53.75,77.61-42.31-17.13a1.83,1.83,0,1,1,1.37-3.39l42.31,17.13a6.62,6.62,0,0,0,7.69-2.07l15.11-19.49a6.58,6.58,0,0,0-2.74-10.15L1971.8,383a1.83,1.83,0,0,1,1.38-3.39l43.69,17.69a10.25,10.25,0,0,1,4.26,15.78L2006,432.52A10.29,10.29,0,0,1,1994.07,435.74Zm-41.63-18.82,42.32,17.13Zm51.81,14.87a8.46,8.46,0,0,1-9.49,2.26A8.46,8.46,0,0,0,2004.25,431.79Zm-31.76-50.54,43.7,17.69a8.41,8.41,0,0,1,4.79,5,8.38,8.38,0,0,0-4.79-5ZM1942.9,453a8.39,8.39,0,1,1,10.92-4.63A8.4,8.4,0,0,1,1942.9,453ZM1940,442.74a6.56,6.56,0,0,0,12.16,4.92,6.56,6.56,0,0,1-12.16-4.92Zm7.86-1.93a4.73,4.73,0,1,0,2.61,6.16A4.73,4.73,0,0,0,1947.82,440.81Zm32.88,27.46a8.38,8.38,0,1,1,10.92-4.62A8.39,8.39,0,0,1,1980.7,468.27ZM1977.77,458a6.56,6.56,0,0,0,12.16,4.92,6.56,6.56,0,0,1-12.16-4.92Zm7.85-1.93a4.74,4.74,0,1,0,2.61,6.17A4.74,4.74,0,0,0,1985.62,456.11Z"/><path class="cls-1" d="M825.46,403.87c-2.73-1.09-1-5.33,1.7-4.24s1,5.33-1.7,4.24Zm0,0c2.73,1.09,4.43-3.14,1.7-4.24s-4.43,3.15-1.7,4.24Zm4.63,6.29,6.58-16.42a.91.91,0,0,0-.51-1.19l-72.44-29a.91.91,0,0,0-1.19.51L756,380.47a.92.92,0,0,0,.51,1.19l26.17,10.47a.91.91,0,1,0,.68-1.69L758,380.3l5.9-14.72,70.75,28.33-5.9,14.72-27.08-10.84a.91.91,0,1,0-.68,1.69l27.93,11.19A.91.91,0,0,0,830.09,410.16Zm-31,56.34,23.2-58a.91.91,0,1,0-1.69-.67L797.77,465l-56.26-22.53,22.87-57.1a.92.92,0,1,0-1.7-.68l-23.2,57.95a.92.92,0,0,0,.5,1.19l58,23.21A.91.91,0,0,0,799.13,466.5Zm-20.56-8.61,30-75a.9.9,0,0,0-.51-1.18l-18-7.22a.91.91,0,0,0-1.19.51l-30,75a.91.91,0,0,0,.51,1.18l18,7.22A.91.91,0,0,0,778.57,457.89Zm11.67-81.39L806.57,383l-29.36,73.33-16.33-6.54Zm8.43,1.88a.91.91,0,0,0,1.14-.6c2.76-9,.45-13.84-2-16.32a11.55,11.55,0,0,0-10.92-3c-6.23,1.76-4,12.41-3.87,12.86a.92.92,0,1,0,1.79-.39c0-.09-1.93-9.44,2.58-10.71a9.77,9.77,0,0,1,9.12,2.51c2.08,2.13,4,6.37,1.54,14.51a.9.9,0,0,0,.53,1.11Zm3.05.32c3.81-7.61,8.15-9.33,11.13-9.43a9.76,9.76,0,0,1,8.33,4.47c2.39,4-5.44,9.48-5.52,9.54a.9.9,0,0,0-.25,1.26.92.92,0,0,0,1.27.25c.38-.26,9.37-6.4,6.07-12a11.56,11.56,0,0,0-10-5.37c-3.47.12-8.49,2-12.7,10.45a.9.9,0,0,0,.41,1.22l.07,0A.9.9,0,0,0,801.72,378.7Zm-30,44,4.93-12.32a.92.92,0,0,0-.51-1.19L757,401.53a.92.92,0,0,0-1.19.5l-4.93,12.32a.92.92,0,0,0,.51,1.19l19.15,7.66A.92.92,0,0,0,771.7,422.7Zm-14.56-19.14,17.45,7-4.25,10.62-17.45-7Zm53.31,34.66,4.93-12.32a.91.91,0,0,0-.5-1.19l-20.26-8.11a.91.91,0,0,0-1.19.51l-4.93,12.32a.91.91,0,0,0,.51,1.18l20.26,8.11A.91.91,0,0,0,810.45,438.22Zm-15.66-19.58,18.56,7.43-4.25,10.62-18.56-7.43Zm36.15-8.14,6.58-16.42a1.84,1.84,0,0,0-1-2.38l-72.44-29a1.84,1.84,0,0,0-2.38,1l-6.57,16.42a1.82,1.82,0,0,0,1,2.37L782.29,393a1.83,1.83,0,0,0,1.36-3.39l-24.47-9.8,5.21-13,69.06,27.65-5.22,13L802,396.94a1.82,1.82,0,0,0-1.35,3.39l27.93,11.18A1.82,1.82,0,0,0,830.94,410.5Zm-2.54-1a.91.91,0,0,0,1.19-.51l5.89-14.72a.91.91,0,0,0-.51-1.19l-70.75-28.33a.91.91,0,0,0-1.18.51L757.14,380a.91.91,0,0,0,.51,1.19l-.85-.34,6.58-16.42,72.44,29-6.57,16.42-27.93-11.19ZM800,466.84l23.21-58a1.82,1.82,0,1,0-3.39-1.35l-22.53,56.26L742.7,441.94l22.53-56.26a1.84,1.84,0,0,0-1-2.38,1.82,1.82,0,0,0-2.37,1l-23.21,57.95a1.83,1.83,0,0,0,1,2.38l58,23.21A1.83,1.83,0,0,0,800,466.84Zm-58.8-23.55,56.26,22.53a.91.91,0,0,0,1.19-.51l22.87-57.1-23.21,58-58-23.21.34-.84A.91.91,0,0,0,741.17,443.29Zm38.25,14.94,30-75a1.82,1.82,0,0,0-1-2.37l-18-7.22a1.82,1.82,0,0,0-2.37,1l-30,75a1.82,1.82,0,0,0,1,2.37l18,7.22A1.84,1.84,0,0,0,779.42,458.23Zm-18.88-7.56,16.33,6.55a.92.92,0,0,0,1.19-.51l29.36-73.33a.91.91,0,0,0-.51-1.19l.85.34-30,75-18-7.23.34-.84A.9.9,0,0,0,760.54,450.67Zm30.21-73,14.64,5.86L776.7,455.18l-14.63-5.86Zm-.17-2a.92.92,0,0,0-1.19.51l.34-.85Zm7.82,3.6a1.8,1.8,0,0,0,1.4-.13,1.84,1.84,0,0,0,.89-1.08c2.89-9.42.4-14.56-2.2-17.22a12.5,12.5,0,0,0-11.82-3.24c-7,2-4.62,13.45-4.52,13.94a1.84,1.84,0,0,0,2.18,1.39,1.84,1.84,0,0,0,1.39-2.17c-.47-2.23-1.12-8.78,1.94-9.64a8.82,8.82,0,0,1,8.22,2.27c1.9,1.95,3.68,5.89,1.31,13.6a1.85,1.85,0,0,0,1.07,2.23Zm.54-1.74c2.11-6.88,1.15-11.16-.48-13.78,1.63,2.62,2.59,6.9.49,13.78l-.35.84.34-.84Zm-15-6.38v0ZM797,362a10.85,10.85,0,0,0-9.54-2.7,10.79,10.79,0,0,1,6.23.55A10,10,0,0,1,797,362Zm5.5,17.16c3.61-7.21,7.61-8.84,10.34-8.93a8.82,8.82,0,0,1,7.52,4c1.62,2.74-3.38,7-5.25,8.31a1.83,1.83,0,1,0,2,3c3.76-2.54,9.33-8.17,6.35-13.2a12.53,12.53,0,0,0-10.79-5.82c-3.71.13-9.07,2.14-13.48,11a1.81,1.81,0,0,0-.1,1.39,1.84,1.84,0,0,0,.9,1.05l.16.07A1.84,1.84,0,0,0,802.54,379.11Zm-1.63-.82-.34.85.34-.85Zm12.2-9.94a10.67,10.67,0,0,1,8.59,4.51,10.88,10.88,0,0,0-4.84-3.77A9.8,9.8,0,0,0,813.11,368.35ZM772.54,423l4.93-12.31a1.83,1.83,0,0,0-1-2.38l-19.15-7.66a1.82,1.82,0,0,0-2.37,1L750,414a1.82,1.82,0,0,0,1,2.37l19.15,7.67A1.82,1.82,0,0,0,772.54,423Zm-20-8L770,422a.92.92,0,0,0,1.19-.51l4.25-10.62a.91.91,0,0,0-.51-1.19l.85.34-4.93,12.32-19.15-7.67.34-.85A.91.91,0,0,0,752.55,415Zm5.1-10.28,15.76,6.31L769.83,420l-15.75-6.31Zm-.17-2a.91.91,0,0,0-1.19.51l.34-.85Zm53.82,35.84,4.93-12.31a1.83,1.83,0,0,0-1-2.38L795,415.75a1.83,1.83,0,0,0-2.37,1l-4.93,12.32a1.82,1.82,0,0,0,1,2.37l20.26,8.11A1.82,1.82,0,0,0,811.3,438.55Zm-21.1-8.45,18.56,7.44A.92.92,0,0,0,810,437l4.25-10.62a.91.91,0,0,0-.51-1.19l.85.34-4.93,12.32-20.26-8.12.34-.84A.9.9,0,0,0,790.2,430.1Zm5.1-10.28,16.86,6.76-3.57,8.92-16.87-6.75Zm-.17-2a.91.91,0,0,0-1.19.51l.34-.85Z"/><path class="cls-1" d="M1797.51,287.61a13.46,13.46,0,0,1-11.21-4.26l-13.12-14.24a2.52,2.52,0,0,0-2.09-.79L1754.3,270a2.53,2.53,0,0,0-1.89,1.2l-10,16.58a13.4,13.4,0,0,1-24.8-5.57l-4.34-42.84a17.19,17.19,0,0,1,15.35-18.81l57.73-5.84a17.18,17.18,0,0,1,18.8,15.35l4.34,42.84A13.42,13.42,0,0,1,1797.51,287.61Zm-43.39-19.41,16.78-1.7a4.38,4.38,0,0,1,3.63,1.38l13.11,14.24a11.58,11.58,0,0,0,20-9l-4.34-42.84a15.35,15.35,0,0,0-16.8-13.71l-57.73,5.84a15.36,15.36,0,0,0-13.71,16.81l4.33,42.83a11.58,11.58,0,0,0,21.43,4.81l10-16.57A4.34,4.34,0,0,1,1754.12,268.2Z"/><path class="cls-1" d="M1730.92,295.23a14.38,14.38,0,0,1-14.26-12.91l-4.33-42.84a18.13,18.13,0,0,1,16.19-19.84l57.73-5.84A18.14,18.14,0,0,1,1806.1,230l4.33,42.84A14.35,14.35,0,0,1,1785.6,284l-13.11-14.24a1.54,1.54,0,0,0-1.31-.49L1754.4,271a1.51,1.51,0,0,0-1.17.74l-10,16.58a14.31,14.31,0,0,1-12.31,6.94Zm57.16-77.8a14.08,14.08,0,0,0-1.45.07l-57.73,5.85A14.41,14.41,0,0,0,1716,239.11l4.34,42.84a10.66,10.66,0,0,0,11.64,9.5,10.7,10.7,0,0,0,8-5.09l10-16.58a5.35,5.35,0,0,1,4-2.53l16.79-1.69a5.3,5.3,0,0,1,4.42,1.67l13.11,14.24a10.62,10.62,0,0,0,18.38-8.26l-4.33-42.84A14.42,14.42,0,0,0,1788.08,217.43Z"/><path class="cls-1" d="M1739.56,256.87l-3.11.31a.9.9,0,0,1-1-.81l-1.91-18.89a.9.9,0,0,1,.81-1l3.11-.32a.92.92,0,0,1,1,.82l1.91,18.89A.91.91,0,0,1,1739.56,256.87Zm-2.39-1.59,1.29-.13-1.73-17.08-1.28.13Z"/><path class="cls-1" d="M1736.36,258.14a1.87,1.87,0,0,1-1.86-1.67l-1.91-18.9a1.87,1.87,0,0,1,1.67-2l3.1-.32a1.87,1.87,0,0,1,2.05,1.67l1.91,18.89a1.87,1.87,0,0,1-.41,1.37,1.85,1.85,0,0,1-1.26.68l-3.1.31Z"/><path class="cls-1" d="M1746.65,248.18l-18.89,1.91a.91.91,0,0,1-1-.82l-.32-3.1a.92.92,0,0,1,.82-1l18.89-1.91a.9.9,0,0,1,1,.81l.32,3.11A.92.92,0,0,1,1746.65,248.18Zm-18.17,0,17.08-1.73-.13-1.29-17.08,1.73Z"/><path class="cls-1" d="M1727.67,251.05a1.87,1.87,0,0,1-1.86-1.68l-.31-3.11a1.87,1.87,0,0,1,1.67-2l18.89-1.91a1.76,1.76,0,0,1,1.36.41,1.85,1.85,0,0,1,.68,1.26l.31,3.1a1.85,1.85,0,0,1-1.66,2l-18.9,1.92Z"/><path class="cls-1" d="M1769.7,247.28a4.29,4.29,0,1,1,3.84-4.7A4.3,4.3,0,0,1,1769.7,247.28Zm-.68-6.73a2.47,2.47,0,1,0,2.7,2.21A2.47,2.47,0,0,0,1769,240.55Z"/><path class="cls-1" d="M1769.26,248.26a5.28,5.28,0,1,1,.53,0h0A4.58,4.58,0,0,1,1769.26,248.26Zm0-6.77h-.16a1.53,1.53,0,0,0-1,.55,1.51,1.51,0,0,0,1.33,2.47,1.52,1.52,0,0,0-.15-3Z"/><path class="cls-1" d="M1790.92,245.14a4.3,4.3,0,1,1,3.84-4.71A4.31,4.31,0,0,1,1790.92,245.14Zm-.68-6.73a2.47,2.47,0,1,0,2.7,2.2A2.46,2.46,0,0,0,1790.24,238.41Z"/><path class="cls-1" d="M1790.48,246.11a5.33,5.33,0,1,1,.53,0h0A4.71,4.71,0,0,1,1790.48,246.11Zm-.15-6.76a1.53,1.53,0,0,0-1,.55,1.52,1.52,0,0,0,1.33,2.47,1.52,1.52,0,0,0,1.36-1.66,1.54,1.54,0,0,0-1.67-1.36Z"/><path class="cls-1" d="M1779.23,235.6a4.3,4.3,0,1,1,3.84-4.71A4.3,4.3,0,0,1,1779.23,235.6Zm-.68-6.73a2.47,2.47,0,1,0,2.71,2.21A2.47,2.47,0,0,0,1778.55,228.87Z"/><path class="cls-1" d="M1778.8,236.57a5.26,5.26,0,0,1-5.22-4.72,5.25,5.25,0,0,1,4.69-5.74,5.25,5.25,0,1,1,1.06,10.44h0Zm0-6.76h-.15a1.47,1.47,0,0,0-1,.55,1.49,1.49,0,0,0-.34,1.11,1.52,1.52,0,1,0,1.51-1.67Z"/><path class="cls-1" d="M1781.38,256.82a4.3,4.3,0,1,1,3.84-4.71A4.29,4.29,0,0,1,1781.38,256.82Zm-.68-6.73a2.47,2.47,0,1,0,2.71,2.21A2.48,2.48,0,0,0,1780.7,250.09Z"/><path class="cls-1" d="M1781,257.79a5.24,5.24,0,0,1-4.06-8.56,5.17,5.17,0,0,1,3.53-1.9,5.25,5.25,0,1,1,1.06,10.44h0Zm-.15-6.75a1.45,1.45,0,0,0-1,.55,1.49,1.49,0,0,0-.34,1.11,1.51,1.51,0,0,0,1.66,1.36,1.53,1.53,0,0,0,1.36-1.67,1.51,1.51,0,0,0-1.66-1.35Z"/><path class="cls-1" d="M1767,261.67l-10.1,1a.91.91,0,0,1-1-.81l-.29-2.85a.92.92,0,0,1,.82-1l10.09-1a.9.9,0,0,1,1,.81l.29,2.85A.91.91,0,0,1,1767,261.67Zm-9.37-.89,8.27-.83-.1-1-8.28.83Z"/><path class="cls-1" d="M1756.85,263.65A1.86,1.86,0,0,1,1755,262l-.29-2.85a1.87,1.87,0,0,1,1.66-2l10.1-1a1.84,1.84,0,0,1,2,1.66l.29,2.85a1.88,1.88,0,0,1-1.67,2.05l-10.09,1Z"/><path class="cls-1" d="M1757.67,219.48a.91.91,0,0,1-1-.82l-1.31-12.94a.91.91,0,1,1,1.81-.18l1.31,12.94A.91.91,0,0,1,1757.67,219.48Z"/><path class="cls-1" d="M1757.57,220.44a1.87,1.87,0,0,1-1.85-1.68l-1.31-12.94a1.85,1.85,0,0,1,1.67-2,1.87,1.87,0,0,1,2,1.66l1.31,12.94a1.84,1.84,0,0,1-.41,1.37,1.87,1.87,0,0,1-1.26.68Z"/><path class="cls-1" d="M453.71,287.12a.87.87,0,0,1-.32-.06,40.2,40.2,0,0,1,0-75.12.91.91,0,0,1,.65,0,40.18,40.18,0,0,1,0,75.12A1,1,0,0,1,453.71,287.12Zm0-73.35a38.36,38.36,0,0,0,0,71.45,38.35,38.35,0,0,0,0-71.45Z"/><path class="cls-1" d="M453.71,288.07a1.74,1.74,0,0,1-.67-.13,41.15,41.15,0,0,1,0-76.89,1.9,1.9,0,0,1,1.33,0,41.13,41.13,0,0,1,0,76.9A1.85,1.85,0,0,1,453.71,288.07Zm0-73.28a37.42,37.42,0,0,0,0,69.41,37.4,37.4,0,0,0,0-69.41Z"/><path class="cls-1" d="M453.71,213.7a.86.86,0,0,1-.32,0,37.73,37.73,0,0,0-6.81-1.9.92.92,0,0,1,0-1.8,39.9,39.9,0,0,1,14.29,0,.91.91,0,0,1,0,1.8,38.2,38.2,0,0,0-6.83,1.9A1,1,0,0,1,453.71,213.7Zm-1.85-2.52c.62.2,1.24.41,1.85.64.62-.23,1.24-.44,1.86-.64C454.33,211.12,453.1,211.12,451.86,211.18Z"/><path class="cls-1" d="M453.71,214.66a1.85,1.85,0,0,1-.66-.13,37.45,37.45,0,0,0-6.64-1.84,1.86,1.86,0,0,1,0-3.67A40.87,40.87,0,0,1,461,209a1.86,1.86,0,0,1,0,3.67,37.71,37.71,0,0,0-6.66,1.84A1.9,1.9,0,0,1,453.71,214.66Zm-6.29-3.89-.67.12c.91.13,1.83.32,2.73.54Zm12.76,0-1.95.61c.82-.2,1.65-.38,2.48-.53Z"/><path class="cls-1" d="M453.73,289.69a40.46,40.46,0,0,1-7.15-.65.9.9,0,0,1-.75-.9.89.89,0,0,1,.75-.89,39.19,39.19,0,0,0,6.81-1.9.91.91,0,0,1,.65,0,38.58,38.58,0,0,0,6.83,1.9.9.9,0,0,1,.76.89.91.91,0,0,1-.76.9A40.34,40.34,0,0,1,453.73,289.69Zm-1.87-1.87c1.24.06,2.47.06,3.71,0-.62-.2-1.24-.41-1.86-.64C453.1,287.41,452.48,287.62,451.86,287.82Z"/><path class="cls-1" d="M453.73,290.64a41.51,41.51,0,0,1-7.32-.66,1.86,1.86,0,0,1,0-3.67,37.25,37.25,0,0,0,6.64-1.85,1.9,1.9,0,0,1,1.33,0,36.9,36.9,0,0,0,6.66,1.85,1.86,1.86,0,0,1,0,3.67A41.4,41.4,0,0,1,453.73,290.64Zm-4.51-3c-.82.21-1.65.38-2.47.53l.54.08Zm8.69-.09,2.11.66.69-.11C459.77,288,458.84,287.78,457.91,287.56Z"/><path class="cls-1" d="M460.71,289.06l-.16,0a40.57,40.57,0,0,1-7.16-2,.91.91,0,0,1,0-1.71,38.35,38.35,0,0,0,0-71.7.93.93,0,0,1-.59-.86.9.9,0,0,1,.59-.85,39.75,39.75,0,0,1,7.16-2,.86.86,0,0,1,.32,0,40.18,40.18,0,0,1,0,79.09Zm-4.43-2.94a39.26,39.26,0,0,0,4.43,1.1,38.36,38.36,0,0,0,0-75.44,39.22,39.22,0,0,0-4.43,1.09,40.18,40.18,0,0,1,0,73.25Z"/><path class="cls-1" d="M460.71,290l-.32,0a41.51,41.51,0,0,1-7.34-2,1.89,1.89,0,0,1-1.2-1.75,1.86,1.86,0,0,1,1.2-1.74,37.4,37.4,0,0,0,0-69.93,1.86,1.86,0,0,1,0-3.48,40.8,40.8,0,0,1,7.33-2,1.83,1.83,0,0,1,.66,0,41.13,41.13,0,0,1,0,81ZM459,285.87c.58.14,1.17.27,1.75.38a37.41,37.41,0,0,0,0-73.5c-.58.11-1.17.23-1.75.37a41.12,41.12,0,0,1,0,72.75Zm-5.15-73.07-.08,0c.39.14.77.3,1.16.46Z"/><path class="cls-1" d="M446.74,289.06l-.16,0a40.18,40.18,0,0,1,0-79.09.91.91,0,1,1,.32,1.8,38.36,38.36,0,0,0,0,75.5.91.91,0,0,1,.74,1.06A.92.92,0,0,1,446.74,289.06Z"/><path class="cls-1" d="M446.74,290l-.32,0a41.13,41.13,0,0,1,0-81,1.86,1.86,0,0,1,2.16,1.5,1.87,1.87,0,0,1-1.5,2.17,37.4,37.4,0,0,0,0,73.62,1.86,1.86,0,0,1,1.5,2.16A1.86,1.86,0,0,1,446.74,290Z"/><path class="cls-1" d="M453.73,289.69a.92.92,0,0,1-.92-.91V210.22a.92.92,0,0,1,1.83,0v78.56A.91.91,0,0,1,453.73,289.69Z"/><path class="cls-1" d="M453.73,290.64a1.87,1.87,0,0,1-1.87-1.86V210.22a1.87,1.87,0,0,1,3.73,0v78.56A1.87,1.87,0,0,1,453.73,290.64Z"/><path class="cls-1" d="M493,250.41H414.45a.92.92,0,1,1,0-1.83H493a.92.92,0,1,1,0,1.83Z"/><path class="cls-1" d="M493,251.36H414.45a1.87,1.87,0,1,1,0-3.73H493a1.87,1.87,0,1,1,0,3.73Z"/><path class="cls-1" d="M218.85,259.43l-44.74,17a1.86,1.86,0,0,1-2.11-.61l-35.71-47.38a8.67,8.67,0,0,0-9.95-2.87l-9.2,3.5a1.83,1.83,0,0,1-1.3-3.42l9.2-3.49a12.34,12.34,0,0,1,14.17,4.08l34.88,46.29L217.55,256a1.82,1.82,0,0,1,1.3,3.41Zm-.65-1.71.32.86-.32-.86Zm-83.53-33.1a10.53,10.53,0,0,1,3.08,2.73l35.71,47.38.61-.23a.91.91,0,0,1-1-.32l-35.3-46.83A10.27,10.27,0,0,0,134.67,224.62Zm-18.18,2.75,9.2-3.5Zm92.19,20.34L166,263.93a1.83,1.83,0,0,1-1.3-3.42l42.68-16.22a6.62,6.62,0,0,0,4.22-6.74L209.43,213a6.58,6.58,0,0,0-8.91-5.58l-44.06,16.75a1.82,1.82,0,1,1-1.3-3.41L199.22,204a10.26,10.26,0,0,1,13.85,8.68l2.18,24.57A10.3,10.3,0,0,1,208.68,247.71Zm-43.32,14.51L208,246Zm48.1-24.34A8.44,8.44,0,0,1,208,246,8.44,8.44,0,0,0,213.46,237.88Zm-57.65-15.44,44.06-16.75a8.37,8.37,0,0,1,6.94.43,8.37,8.37,0,0,0-6.94-.43Zm27.08,72.7a8.38,8.38,0,1,1,4.86-10.81A8.39,8.39,0,0,1,182.89,295.14Zm-9.11-5.5A6.56,6.56,0,0,0,186,285a6.56,6.56,0,0,1-12.26,4.67Zm4.45-6.76a4.73,4.73,0,1,0,6.1,2.74A4.75,4.75,0,0,0,178.23,282.88ZM221,280.65a8.38,8.38,0,1,1,4.86-10.82A8.41,8.41,0,0,1,221,280.65Zm-9.11-5.51a6.56,6.56,0,1,0,12.26-4.66,6.56,6.56,0,1,1-12.26,4.66Zm4.45-6.75a4.73,4.73,0,1,0,6.1,2.74A4.73,4.73,0,0,0,216.35,268.39Z"/><path class="cls-1" d="M2240.59,120.74l31.87,3.36-1.08,10.26-3.29-.34a1.86,1.86,0,0,0-2.05,1.65,1.87,1.87,0,0,0,.4,1.37,1.9,1.9,0,0,0,1.26.69l37.64,4h.2a1.88,1.88,0,0,0,1.17-.42,1.83,1.83,0,0,0,.68-1.25,1.85,1.85,0,0,0-.41-1.37,1.81,1.81,0,0,0-1.25-.68l-3.29-.35,1.08-10.26,31.87,3.36a7.25,7.25,0,0,0,.93,0,8.84,8.84,0,0,0,8.78-7.9L2352.26,55a8.84,8.84,0,0,0-7.85-9.71l-94.8-10a8.82,8.82,0,0,0-9.7,7.85l-5.85,55.41h0L2232.74,111A8.83,8.83,0,0,0,2240.59,120.74Zm35.58,3.75,23.65,2.5-1,9.48L2275.17,134Zm-27-85.49L2344,49a5.1,5.1,0,0,1,4.53,5.61l-5.65,53.56L2238,97.1l5.65-53.57a5.12,5.12,0,0,1,5.61-4.53Zm86.56,88L2241,117a5.1,5.1,0,0,1-4.54-5.6l1.12-10.63,104.94,11.08-1.12,10.62A5.13,5.13,0,0,1,2335.78,127Z"/><path class="cls-1" d="M1512.27,57.6a19.84,19.84,0,0,1,2.68,8.57l.49,6.55-1.82,1.07a6.47,6.47,0,0,0-2.28,8.85l23.89,40.46a6.45,6.45,0,0,0,8.85,2.28l1.37-.8h0l6.47,4.21a20,20,0,0,1,6.21,6.5l5.76,9.76a4.2,4.2,0,0,0,2.57,1.94,4.27,4.27,0,0,0,1.06.13,4.21,4.21,0,0,0,2.13-.58l9.64-5.69.23-.17.26-.12,9.63-5.69a4.22,4.22,0,0,0,1.49-5.76l-5.77-9.76a19.88,19.88,0,0,1-2.68-8.58l-.57-7.7,2.66-1.57a6.47,6.47,0,0,0,2.28-8.85l-7.62-12.92,1.3-.76a3.57,3.57,0,0,0,1.26-4.88l-6-10.18a3.57,3.57,0,0,0-4.88-1.26l-1.3.77-6.63-11.24a6.48,6.48,0,0,0-8.85-2.28L1551,51.74l-5.49-3.59a19.88,19.88,0,0,1-6.22-6.49l-5.76-9.77a4.22,4.22,0,0,0-5.76-1.48l-9.63,5.68a1.46,1.46,0,0,0-.24.17l-.26.13L1508,42.07a4.24,4.24,0,0,0-1.49,5.77Zm47.46-3.52,7,11.87a1.85,1.85,0,0,0,.24,1.17l7.73,13.1a1.85,1.85,0,0,0,.91.77l8,13.55a2.74,2.74,0,0,1-1,3.75l-40.46,23.88a2.74,2.74,0,0,1-3.75-1l-23.89-40.46a2.74,2.74,0,0,1,1-3.75l2.8-1.66h0l33.51-19.78h0l0,0,4.07-2.41A2.75,2.75,0,0,1,1559.73,54.08Zm18.73,21.76-1.16.68-5.84-9.89,1.16-.68Zm.27,35.21a23.59,23.59,0,0,0,3.19,10.19l5.77,9.76a.49.49,0,0,1-.17.66l-9.64,5.69a1.37,1.37,0,0,0-.23.17l-.26.12-9.63,5.68a.48.48,0,0,1-.66-.16l-5.76-9.76a23.61,23.61,0,0,0-7.38-7.73l-4.93-3.21,29.27-17.27ZM1519.52,39.6a1.37,1.37,0,0,0,.23-.17l.26-.12,9.63-5.69a.48.48,0,0,1,.37,0,.48.48,0,0,1,.29.22l5.76,9.76a23.61,23.61,0,0,0,7.39,7.72l4,2.58L1519,70.6l-.35-4.7a23.63,23.63,0,0,0-3.19-10.2l-5.76-9.76a.48.48,0,0,1,.16-.66Z"/><path class="cls-1" d="M1344.57,106.94a11.37,11.37,0,0,0,8.31,8.46L1434.14,136a11.41,11.41,0,0,0,2.77.34,11.53,11.53,0,0,0,8.74-4l3.88-4.57a3.8,3.8,0,0,0-2-6.15l-6.57-1.67,14.13-55.54a1.86,1.86,0,0,0-1.35-2.27l-84.72-21.48a1.84,1.84,0,0,0-1.41.21,1.82,1.82,0,0,0-.85,1.14l-14.09,55.56-4.93-1.25a3.8,3.8,0,0,0-4.64,4.55Zm106.49-41.65L1437.43,119l-81.15-20.58L1370,44.73Zm-63.43,45,16.27,4.16a3.57,3.57,0,0,1-3.48,1l-10.21-2.59A3.56,3.56,0,0,1,1387.63,110.26Zm1.66,6.19,10.22,2.59a7.23,7.23,0,0,0,1.78.22,7.34,7.34,0,0,0,6.43-3.87l39,10-3.88,4.57a7.73,7.73,0,0,1-7.75,2.48l-81.26-20.6a7.66,7.66,0,0,1-5.6-5.7l-1.43-6.08s0,0,0-.07l-.66-.68.73.66,37,9.37A7.28,7.28,0,0,0,1389.29,116.45Z"/><path class="cls-1" d="M210.45,146.06a7.49,7.49,0,0,0,1.55-.16l59.16-12.43a7.54,7.54,0,0,0,5.83-8.92L258.58,36.88a7.55,7.55,0,0,0-8.93-5.83L190.49,43.47a7.54,7.54,0,0,0-5.82,8.93l18.41,87.67A7.54,7.54,0,0,0,210.45,146.06ZM254.93,37.64l1.23,5.86-66.61,14-1.24-5.86a3.82,3.82,0,0,1,2.95-4.51L250.42,34.7a3.82,3.82,0,0,1,4.51,2.94Zm-48.2,101.67L205,130.9l66.61-14,1.77,8.41a3.75,3.75,0,0,1-.54,2.86,3.8,3.8,0,0,1-2.4,1.64l-59.17,12.43a3.8,3.8,0,0,1-4.5-2.94Zm50.2-92.16,13.88,66.11-66.61,14L190.31,61.14Z"/><rect class="cls-1" x="210.55" y="44.02" width="22.19" height="3.98" transform="translate(-4.73 46.46) rotate(-11.84)"/><path class="cls-1" d="M237.65,133.2a3.58,3.58,0,0,0,1.94.58,3.81,3.81,0,0,0,.74-.08,3.57,3.57,0,0,0,2.24-1.53,3.55,3.55,0,1,0-4.92,1Z"/><path class="cls-1" d="M789.26,78.55a16,16,0,1,0-9.82,28.57,14.85,14.85,0,0,0,2-.13,16,16,0,0,0,7.84-28.44Zm-22,14.11A12.27,12.27,0,0,1,777.94,79a13.07,13.07,0,0,1,1.52-.1,12.23,12.23,0,0,1,9.64,19.76,12.24,12.24,0,0,1-21.8-6Z"/><path class="cls-1" d="M814.46,60.88l-10.79,1.34a1.92,1.92,0,0,0-1.24.71,1.83,1.83,0,0,0-.38,1.37,1.87,1.87,0,0,0,1.85,1.64l.23,0,10.79-1.34a1.86,1.86,0,0,0,1.62-2.08A1.86,1.86,0,0,0,814.46,60.88Z"/><path class="cls-1" d="M813.65,66.46l-7.83,1a1.86,1.86,0,0,0,.23,3.71h.23l7.83-1a1.86,1.86,0,0,0-.46-3.7Z"/><path class="cls-1" d="M825.49,59.78a9.74,9.74,0,0,0-10.85-8.46l-14.75,1.83-7-5.47A8.41,8.41,0,0,0,786.64,46l-12.27,1.53a2.05,2.05,0,0,0-.34.07h-.35L761.42,49.1a8.48,8.48,0,0,0-5.62,3.19l-5.47,7-14.75,1.83A9.74,9.74,0,0,0,727.13,72l6.27,50.51A9.69,9.69,0,0,0,744.26,131l79-9.82a9.74,9.74,0,0,0,8.46-10.86Zm-34.91-9.16,4.08,3.18-39.1,4.86,3.18-4.08a4.73,4.73,0,0,1,3.14-1.78l12.26-1.52a2.21,2.21,0,0,0,.35-.08,2.08,2.08,0,0,0,.35,0l12.26-1.53A4.74,4.74,0,0,1,790.58,50.62Zm-51.21,75.43a6,6,0,0,1-2.27-4l-6.27-50.52a5.94,5.94,0,0,1,1.22-4.43,6,6,0,0,1,4-2.27L815.1,55a6.3,6.3,0,0,1,.75-.05,6,6,0,0,1,5.94,5.27l6.28,50.51a6,6,0,0,1-5.22,6.7l-79.05,9.82A6,6,0,0,1,739.37,126.05Zm60.19-71.93Z"/><path class="cls-1" d="M323,128.8l49.35,13.45a4.75,4.75,0,0,0,1.28.17,4.92,4.92,0,0,0,4.74-3.61l17.86-65.55a19.35,19.35,0,0,0-.11-10.59l-4.48-15.1a10.72,10.72,0,0,0-7.51-7.34l-19.52-5.32a10.7,10.7,0,0,0-10.19,2.51L342.89,48.17a19.36,19.36,0,0,0-5.47,9.06l-17.86,65.55a4.9,4.9,0,0,0,3.44,6Zm40.63-90.3,19.52,5.32a7,7,0,0,1,4.91,4.81l4.48,15.1a15.62,15.62,0,0,1,.1,8.55l-17.87,65.55a1.18,1.18,0,0,1-.55.71,1.16,1.16,0,0,1-.89.12L324,125.21a1.18,1.18,0,0,1-.83-1.45L341,58.21a15.56,15.56,0,0,1,4.42-7.32L357,40.15A7,7,0,0,1,363.63,38.5Z"/><path class="cls-1" d="M368.71,58.35a3.31,3.31,0,0,0,.93.13A3.55,3.55,0,1,0,366.21,54a3.56,3.56,0,0,0,2.5,4.36Z"/><path class="cls-1" d="M2076.81,133.9a7.87,7.87,0,0,0,7.39,5.18,7.68,7.68,0,0,0,2.65-.47l38.38-13.85,1.5,4.13-8.95,3.23a1.87,1.87,0,0,0,.64,3.62,1.74,1.74,0,0,0,.63-.11l38-13.72a1.87,1.87,0,0,0,1.13-2.39,1.84,1.84,0,0,0-1-1,1.87,1.87,0,0,0-1.43-.07l-9,3.24-1.46-4.15,38.38-13.85a7.85,7.85,0,0,0,4.71-10l-18.24-50.55a7.86,7.86,0,0,0-10-4.71l-96.9,35a7.85,7.85,0,0,0-4.72,10Zm89.91-89.59L2185,94.87a4.12,4.12,0,0,1-2.47,5.26l-96.9,35a4.06,4.06,0,0,1-3.15-.15,4.1,4.1,0,0,1-2.12-2.32l-18.24-50.56a4.11,4.11,0,0,1,2.47-5.26l96.91-35A4.11,4.11,0,0,1,2166.72,44.31ZM2142.3,120l.74,2-13.14,4.74-.73-2Z"/><path class="cls-1" d="M2001.24,112.3a1.82,1.82,0,0,0-.55-1.32l-1.71-1.71a1.86,1.86,0,0,0-2.64,0l-3.16,3.16a6.17,6.17,0,0,0-1.9-.33,6.53,6.53,0,0,0-6.52,6.52,6.17,6.17,0,0,0,.33,1.9l-2.75,2.75a1.88,1.88,0,0,0-.55,1.32,1.82,1.82,0,0,0,.55,1.32l1.71,1.71a1.86,1.86,0,0,0,2.64,0l2.76-2.78a6.37,6.37,0,0,0,1.83.3,6.53,6.53,0,0,0,6.52-6.52,6.18,6.18,0,0,0-.3-1.81l3.19-3.19A1.88,1.88,0,0,0,2001.24,112.3Zm-10,9.11a2.79,2.79,0,1,1,2.79-2.79A2.79,2.79,0,0,1,1991.28,121.41Z"/><path class="cls-1" d="M1968.33,65.8a1.9,1.9,0,0,0,1.4.22,1.87,1.87,0,0,0,1.15-.83,1.85,1.85,0,0,0,.24-1.41,21.83,21.83,0,0,1-.58-5,22.17,22.17,0,1,1,16.92,21.55,1.84,1.84,0,0,0-1.41.22,1.86,1.86,0,0,0-.85,1.15,1.84,1.84,0,0,0,.22,1.41,1.81,1.81,0,0,0,1.15.84,25.92,25.92,0,1,0-19.76-25.17,26.53,26.53,0,0,0,.67,5.89A1.91,1.91,0,0,0,1968.33,65.8Z"/><path class="cls-1" d="M1992.72,144.12A25.91,25.91,0,1,0,1986.84,93a1.87,1.87,0,0,0-1.4,2.24,1.94,1.94,0,0,0,.85,1.17,1.81,1.81,0,0,0,1.39.22,22.19,22.19,0,1,1-17.14,21.61,22.16,22.16,0,0,1,.63-5.27,1.86,1.86,0,0,0-1.37-2.25,1.84,1.84,0,0,0-2.25,1.37,25.91,25.91,0,0,0,25.17,32.06Z"/><path class="cls-1" d="M1991.34,52a6.47,6.47,0,0,0-1.9.32l-2.75-2.75a1.93,1.93,0,0,0-2.64,0l-1.71,1.72a1.85,1.85,0,0,0,0,2.63l2.78,2.77a6.37,6.37,0,0,0-.3,1.83,6.53,6.53,0,0,0,6.52,6.52,6.18,6.18,0,0,0,1.81-.3l3.19,3.19a1.88,1.88,0,0,0,1.32.55,1.84,1.84,0,0,0,1.32-.55l1.71-1.71a1.86,1.86,0,0,0,0-2.64l-3.16-3.16a6.22,6.22,0,0,0,.33-1.9A6.52,6.52,0,0,0,1991.34,52Zm0,3.73a2.79,2.79,0,1,1-2.79,2.79A2.79,2.79,0,0,1,1991.34,55.69Z"/><path class="cls-1" d="M1948.75,64.45l0,0-.1,0a1.84,1.84,0,0,0-2.1-.56,5.17,5.17,0,0,0-1.13-.15h-2.72a5.67,5.67,0,0,0-5.66,5.67v2.39a5.34,5.34,0,0,0,.15,1.15,1.84,1.84,0,0,0,.58,2.12v0h0a15.54,15.54,0,0,1,1.25,1l0,0h0l1.24-1.34h0l1.28-1.4h0l-.16-.16a2,2,0,0,1-.69-1.47V69.35a1.94,1.94,0,0,1,1.94-1.94h2.72a2.14,2.14,0,0,1,1.57.78l0,0,1.41-1.28h0l1.33-1.25A15.09,15.09,0,0,1,1948.75,64.45Z"/><path class="cls-1" d="M1972.22,65.68,1973.6,67h0l1.34,1.24.15-.15a2,2,0,0,1,1.45-.66h2.72a1.94,1.94,0,0,1,1.94,1.94v2.39a2,2,0,0,1-.68,1.46l-.17.18h0l.64.7h0l.64.7h0l.6.63h0l-.65-.69,1.29,1.4a14.64,14.64,0,0,1,1.29-1.07h0v0a1.81,1.81,0,0,0,.58-2.1,5.65,5.65,0,0,0,.16-1.17V69.35a5.68,5.68,0,0,0-5.67-5.67h-2.72a5.25,5.25,0,0,0-1.13.15,1.81,1.81,0,0,0-2,.48l-.19,0,.07.06h0A14.4,14.4,0,0,1,1972.22,65.68Z"/><path class="cls-1" d="M1932,125.14a6.59,6.59,0,0,0,1.86-.31l2.73,2.79a1.86,1.86,0,0,0,2.64,0l1.71-1.71a1.82,1.82,0,0,0,.55-1.32,1.88,1.88,0,0,0-.55-1.32l-2.75-2.75a6.17,6.17,0,0,0,.33-1.9,6.53,6.53,0,0,0-6.52-6.52,6.17,6.17,0,0,0-1.9.33l-3.16-3.16a1.86,1.86,0,0,0-2.64,0L1922.6,111a1.85,1.85,0,0,0-.54,1.32,1.91,1.91,0,0,0,.54,1.32l3.2,3.19a6.18,6.18,0,0,0-.3,1.81A6.53,6.53,0,0,0,1932,125.14Zm0-3.73a2.79,2.79,0,1,1,2.79-2.79A2.79,2.79,0,0,1,1932,121.41Z"/><path class="cls-1" d="M1973.54,110.79a1.8,1.8,0,0,0,2.18.6,5.26,5.26,0,0,0,1.14.15h2.41a5.68,5.68,0,0,0,5.67-5.67v-2.73a5,5,0,0,0-.16-1.16,1.82,1.82,0,0,0-.5-2l0-.15,0,.06,0,0h0a16.63,16.63,0,0,1-1.29-1.07l-1.29,1.4h0l-1.24,1.34,0,0h0l.13.14a2,2,0,0,1,.69,1.47v2.73a1.94,1.94,0,0,1-1.94,1.94h-2.41a2,2,0,0,1-1.48-.7l-.17-.17h0l-.71.64h0l-.7.63h0l-.65.58h0l-.71.63a15.18,15.18,0,0,1,1.07,1.33l0,0Z"/><path class="cls-1" d="M1922.6,66.18l1.72,1.72a1.87,1.87,0,0,0,2.64,0l3.19-3.19a6.18,6.18,0,0,0,1.81.3,6.53,6.53,0,0,0,6.52-6.52,6.46,6.46,0,0,0-.32-1.89l2.8-2.71a1.85,1.85,0,0,0,0-2.63l-1.71-1.72a2,2,0,0,0-2.64,0l-2.75,2.75a6.42,6.42,0,0,0-8.42,6.2,6.22,6.22,0,0,0,.33,1.9l-3.17,3.16A1.88,1.88,0,0,0,1922.6,66.18ZM1932,55.69a2.79,2.79,0,1,1-2.79,2.79A2.79,2.79,0,0,1,1932,55.69Z"/><path class="cls-1" d="M1949.57,109.44l-1.41-1.28h0l-1.36-1.22a2.09,2.09,0,0,0-.14.17h0a2,2,0,0,1-1.49.7h-2.41a1.94,1.94,0,0,1-1.94-1.94v-2.73a2,2,0,0,1,.68-1.47l.18-.18-1.29-1.39h0l-.6-.63.65.69-1.29-1.4a16.63,16.63,0,0,1-1.29,1.07l0,0v0a1.83,1.83,0,0,0-.58,2.11,5.52,5.52,0,0,0-.15,1.17v2.73a5.67,5.67,0,0,0,5.66,5.67h2.41a5.26,5.26,0,0,0,1.14-.15,1.82,1.82,0,0,0,.69.15,1.86,1.86,0,0,0,1.38-.66l.11,0,0,0s0,0,.07-.06A15,15,0,0,1,1949.57,109.44Z"/><path class="cls-1" d="M1957.14,112.06a1.89,1.89,0,0,0-.85-1.16,1.84,1.84,0,0,0-1.41-.21,1.86,1.86,0,0,0-1.37,2.25A22.19,22.19,0,1,1,1932,96a22.38,22.38,0,0,1,5,.57,1.83,1.83,0,0,0,1.41-.23,1.87,1.87,0,0,0-.56-3.4,25.91,25.91,0,1,0,20,25.24A26.39,26.39,0,0,0,1957.14,112.06Z"/><path class="cls-1" d="M1932,84.65a25.88,25.88,0,0,0,6.15-.74,1.79,1.79,0,0,0,1.15-.84,1.84,1.84,0,0,0,.22-1.41,1.89,1.89,0,0,0-.84-1.15,1.84,1.84,0,0,0-1.41-.22,22.19,22.19,0,1,1,16.91-21.55,22.38,22.38,0,0,1-.57,5,1.87,1.87,0,0,0,2.79,2,1.87,1.87,0,0,0,.84-1.16,26.4,26.4,0,0,0,.67-5.89A25.91,25.91,0,1,0,1932,84.65Z"/><path class="cls-1" d="M1190.09,102a21.38,21.38,0,0,1,21.34,21.34c0,.58,0,1.17-.07,1.74a1.87,1.87,0,0,0,1.86,2h48.66a1.87,1.87,0,0,0,1.37-.6,1.91,1.91,0,0,0,.49-1.42c0-.57-.07-1.15-.07-1.74A21.35,21.35,0,0,1,1286,102a2,2,0,0,0,1.34-.49,1.91,1.91,0,0,0,.62-1.29,1.88,1.88,0,0,0-1.78-1.95,24.33,24.33,0,0,0-4.23.18l-9.84-55.08h2.62a3.37,3.37,0,0,0,3.37-3.37V37.85a3.37,3.37,0,0,0-3.37-3.37h-11a3.37,3.37,0,0,0-3.37,3.37V40a3.37,3.37,0,0,0,3.37,3.37h4.55l10,55.82a25,25,0,0,0-17.72,18.6,2,2,0,0,0-.65-.11h-45.42a25,25,0,0,0-24.4-19.43,1.86,1.86,0,1,0,0,3.72Zm25,19.43H1260c0,.63-.07,1.27-.07,1.91v0h-44.78v0C1215.16,122.68,1215.13,122.05,1215.08,121.39Zm49-81.76V38.21h10.25v1.42Z"/><path class="cls-1" d="M1207.22,123.3a19.17,19.17,0,1,0-19.17,19.17A19.19,19.19,0,0,0,1207.22,123.3Zm-19.17,15.44a15.44,15.44,0,1,1,15.44-15.44A15.46,15.46,0,0,1,1188.05,138.74Z"/><path class="cls-1" d="M1188.05,112.84a10.46,10.46,0,1,0,10.45,10.46A10.47,10.47,0,0,0,1188.05,112.84Zm0,17.19a6.73,6.73,0,1,1,6.73-6.73A6.74,6.74,0,0,1,1188.05,130Z"/><path class="cls-1" d="M1267.14,123.3a19.17,19.17,0,1,0,19.17-19.17A19.19,19.19,0,0,0,1267.14,123.3Zm19.17,15.44a15.44,15.44,0,1,1,15.44-15.44A15.46,15.46,0,0,1,1286.31,138.74Z"/><path class="cls-1" d="M1286.31,112.84a10.46,10.46,0,1,0,10.46,10.46A10.47,10.47,0,0,0,1286.31,112.84Zm0,17.19a6.73,6.73,0,1,1,6.73-6.73A6.74,6.74,0,0,1,1286.31,130Z"/><path class="cls-1" d="M977.64,64.1l-14.08-4.52,1.58-4.91a17.73,17.73,0,1,0-33.77-10.84l-1.58,4.91-17.54-5.63a1.87,1.87,0,0,0-2.3,1.07l-30.27,73.88a1.87,1.87,0,0,0,1.16,2.48l77.28,24.8a1.77,1.77,0,0,0,.56.09A1.87,1.87,0,0,0,960.5,144l18.38-77.7A1.87,1.87,0,0,0,977.64,64.1ZM883.9,117.61l28.85-70.42,15.9,5.1-2.55,8-3.06-1a1.85,1.85,0,0,0-1.42.11,1.87,1.87,0,0,0,.28,3.44l10,3.22a1.9,1.9,0,0,0,.58.09,1.87,1.87,0,0,0,1.77-1.3,1.86,1.86,0,0,0-1.21-2.34l-3.42-1.1,2.55-8L958.87,62l-2.56,8-3.17-1A1.86,1.86,0,1,0,952,72.49l10,3.21a1.59,1.59,0,0,0,.57.1,1.84,1.84,0,0,0,.85-.21,1.87,1.87,0,0,0,.92-1.09,1.85,1.85,0,0,0-.12-1.42,1.79,1.79,0,0,0-1.08-.92l-3.31-1.06,2.56-8,12.44,4-17.53,74.06Zm68.63-81.7a14,14,0,0,1,9.06,17.62L960,58.44l-26.67-8.56L934.92,45A14,14,0,0,1,952.53,35.91Z"/><path class="cls-1" d="M1646,126.59a2.29,2.29,0,0,0,1.6-.66l71.7-71.71a2.25,2.25,0,0,0,0-3.2,2.27,2.27,0,0,0-3.2,0l-71.7,71.71a2.26,2.26,0,0,0,1.6,3.86Z"/><path class="cls-1" d="M1662,81.48a11.68,11.68,0,1,0-11.68-11.68A11.69,11.69,0,0,0,1662,81.48Zm-7.15-11.68A7.15,7.15,0,1,1,1662,77,7.16,7.16,0,0,1,1654.82,69.8Z"/><path class="cls-1" d="M1689.5,109a11.68,11.68,0,1,0,11.68-11.67A11.69,11.69,0,0,0,1689.5,109Zm4.53,0a7.15,7.15,0,1,1,7.15,7.16A7.16,7.16,0,0,1,1694,109Z"/><path class="cls-1" d="M476.38,96.17h0a1.9,1.9,0,0,0-1.26.67,1.85,1.85,0,0,0-.42,1.37l1.66,17.51A1.86,1.86,0,0,0,478,117.4h.38a1.86,1.86,0,0,0,1.26-.67,1.82,1.82,0,0,0,.42-1.36L478.4,97.85A1.87,1.87,0,0,0,476.38,96.17Z"/><path class="cls-1" d="M514.61,76.78l.2,0a1.87,1.87,0,0,0,.2-3.72l-33.84-3.67a1.89,1.89,0,0,0-1.37.4,1.85,1.85,0,0,0-.68,1.25,1.81,1.81,0,0,0,.4,1.38,1.84,1.84,0,0,0,1.25.68l33.84,3.66Z"/><path class="cls-1" d="M485.83,97.39a1.86,1.86,0,0,0-1.31.57,1.88,1.88,0,0,0-.51,1.33l.36,16.24a1.85,1.85,0,0,0,1.65,1.81l.19,0h.06a1.87,1.87,0,0,0,1.31-.58,1.82,1.82,0,0,0,.51-1.33l-.35-16.24a1.91,1.91,0,0,0-.58-1.31A1.79,1.79,0,0,0,485.83,97.39Z"/><path class="cls-1" d="M515,100.36a1.87,1.87,0,0,0-2.34,1.21l-5.36,16.75a1.87,1.87,0,0,0,.11,1.43,1.91,1.91,0,0,0,1.09.92l.37.07.2,0a1.89,1.89,0,0,0,1.78-1.3l5.36-16.75a1.87,1.87,0,0,0-.12-1.43A1.81,1.81,0,0,0,515,100.36Z"/><path class="cls-1" d="M468.08,73.86A1.86,1.86,0,0,0,466,75.51a1.86,1.86,0,0,0,1.65,2l10.47,1.14h.21a1.83,1.83,0,0,0,1.16-.41,1.88,1.88,0,0,0,.69-1.25A1.89,1.89,0,0,0,478.55,75l-3.06-.33.54-5A22.59,22.59,0,0,1,521,74.52l-.54,5-3.84-.41a1.87,1.87,0,0,0-2.06,1.65,1.89,1.89,0,0,0,1.66,2.06L526.64,84h.2a1.87,1.87,0,0,0,.2-3.72l-2.93-.31.54-5a26.31,26.31,0,1,0-52.32-5.67l-.54,5Z"/><path class="cls-1" d="M505.82,99.55a1.86,1.86,0,0,0-2.25,1.37l-3.83,15.79a1.84,1.84,0,0,0,.22,1.41,1.81,1.81,0,0,0,1.16.84l.23.05h.2a1.87,1.87,0,0,0,1.81-1.43l3.83-15.79a1.84,1.84,0,0,0-.22-1.41A1.89,1.89,0,0,0,505.82,99.55Z"/><path class="cls-1" d="M494.18,98.76a1.81,1.81,0,0,0-.68,1.25l-1.75,16.15a1.89,1.89,0,0,0,.4,1.37,1.83,1.83,0,0,0,1.25.68h.2a1.87,1.87,0,0,0,1.86-1.66l1.74-16.15a1.86,1.86,0,0,0-3-1.65Z"/><path class="cls-1" d="M519.06,94.72a1.83,1.83,0,0,0,1.16-.41,1.9,1.9,0,0,0,.69-1.26,1.87,1.87,0,0,0-1.66-2l-43.83-4.75A1.87,1.87,0,1,0,475,90l43.83,4.75Z"/><path class="cls-1" d="M460.93,124.61l60.26,6.52a5.32,5.32,0,0,0,.69,0,6.36,6.36,0,0,0,6-4.16l11.57-31.1a2,2,0,0,1,2.1-1.3l2.62.29A4.44,4.44,0,0,0,549,91l1-9.69a4.39,4.39,0,0,0-3.9-4.85l-16.79-1.82A1.89,1.89,0,0,0,528,75a1.87,1.87,0,0,0-.28,2.62,1.86,1.86,0,0,0,1.25.69l16.79,1.81a.68.68,0,0,1,.6.75l-1.05,9.69a.67.67,0,0,1-.75.6l-2.62-.29a5.76,5.76,0,0,0-6,3.71l-11.56,31.11a2.67,2.67,0,0,1-2.77,1.71l-60.26-6.53a2.64,2.64,0,0,1-2.33-2.26l-4.64-32.81a5.75,5.75,0,0,0-5-4.9l-.66-.08a.68.68,0,0,1-.59-.74l1.06-9.73a.67.67,0,0,1,.74-.6l16.48,1.79a1.88,1.88,0,0,0,2-1.66,1.8,1.8,0,0,0-.4-1.37,1.84,1.84,0,0,0-1.25-.68l-16.48-1.79A4.39,4.39,0,0,0,445.48,70l-1.05,9.73a4.42,4.42,0,0,0,3.83,4.84l.66.08a2,2,0,0,1,1.75,1.72l4.63,32.81A6.39,6.39,0,0,0,460.93,124.61Z"/><path class="cls-1" d="M2186.81,369.41l-94.8-10a8.83,8.83,0,0,0-9.71,7.85l-5.84,55.42-1.32,12.48a8.83,8.83,0,0,0,7.85,9.7l31.87,3.36-1.08,10.26-3.29-.34a1.84,1.84,0,0,0-2,1.66,1.87,1.87,0,0,0,1.66,2.05l37.63,4h.2a1.87,1.87,0,0,0,.2-3.72l-3.29-.35,1.08-10.26,31.87,3.36a7.5,7.5,0,0,0,.94.05,8.81,8.81,0,0,0,8.76-7.9l7.17-67.89a8.84,8.84,0,0,0-7.85-9.71Zm-45.59,91.19-23.66-2.5,1-9.48,23.65,2.49Zm37-9.44-94.8-10a5.1,5.1,0,0,1-4.53-5.6l1.12-10.63L2184.91,436l-1.12,10.62a5.11,5.11,0,0,1-5.61,4.54Zm-86.56-88,94.79,10a5.11,5.11,0,0,1,4.54,5.61l-5.65,53.56-104.94-11.07,5.65-53.57a5.12,5.12,0,0,1,5.61-4.53Z"/><path class="cls-1" d="M533.67,443.47a19.89,19.89,0,0,1-2.69-8.58l-.57-7.69h0l2.67-1.57a6.47,6.47,0,0,0,2.28-8.85l-7.63-12.92,1.3-.76a3.56,3.56,0,0,0,1.26-4.88l-6-10.18a3.57,3.57,0,0,0-4.88-1.26l-1.3.77-6.63-11.24a6.47,6.47,0,0,0-8.85-2.28l-3.11,1.84L494,372.27a19.76,19.76,0,0,1-6.21-6.49L482.05,356a4.22,4.22,0,0,0-5.77-1.49l-9.63,5.69a1.06,1.06,0,0,0-.23.17l-.27.12-9.63,5.68A4.22,4.22,0,0,0,455,372l5.76,9.76a19.85,19.85,0,0,1,2.69,8.57l.48,6.55-1.81,1.07a6.46,6.46,0,0,0-2.28,8.85l23.88,40.46a6.45,6.45,0,0,0,8.85,2.28l1.37-.81h0l6.46,4.22a19.66,19.66,0,0,1,6.21,6.49l5.76,9.76a4.22,4.22,0,0,0,5.77,1.49l9.62-5.69a1.46,1.46,0,0,0,.24-.17l.27-.12L538,459a4.21,4.21,0,0,0,1.48-5.76ZM467.2,390a23.46,23.46,0,0,0-3.19-10.2l-5.76-9.76a.49.49,0,0,1,.17-.66l9.63-5.68a1.46,1.46,0,0,0,.24-.17l.26-.12,9.63-5.69a.49.49,0,0,1,.66.17l5.76,9.76a23.48,23.48,0,0,0,7.38,7.72l3.95,2.58-28.38,16.75Zm21.45,56.56a2.7,2.7,0,0,1-1.68-1.25l-23.88-40.47a2.74,2.74,0,0,1,1-3.74l40.47-23.89a2.73,2.73,0,0,1,3.74,1l7,11.87a1.84,1.84,0,0,0,.23,1.17l7.74,13.1a1.8,1.8,0,0,0,.91.77l8,13.55a2.75,2.75,0,0,1,.29,2.08,2.72,2.72,0,0,1-1.26,1.67l-40.46,23.88A2.68,2.68,0,0,1,488.65,446.58ZM527,400l-1.16.68L520,390.75l1.16-.68Zm-.58,61.51a1.06,1.06,0,0,0-.23.17l-.27.12-9.63,5.69a.5.5,0,0,1-.66-.17l-5.76-9.76a23.51,23.51,0,0,0-7.38-7.73l-4.92-3.21,29.26-17.27.44,5.86a23.42,23.42,0,0,0,3.19,10.19l5.76,9.76a.48.48,0,0,1,0,.37.48.48,0,0,1-.22.29Z"/><path class="cls-1" d="M1291.85,386.25l-84.72-21.48a1.84,1.84,0,0,0-1.41.21,1.87,1.87,0,0,0-.86,1.14l-14.08,55.56-4.94-1.25a3.79,3.79,0,0,0-4.63,4.55l1.42,6.08a11.39,11.39,0,0,0,8.32,8.46l81.26,20.61a11.3,11.3,0,0,0,2.77.34,11.5,11.5,0,0,0,8.74-4l3.88-4.57a3.81,3.81,0,0,0-2-6.15l-6.58-1.67,14.14-55.54a1.84,1.84,0,0,0-.21-1.41A1.87,1.87,0,0,0,1291.85,386.25Zm-18.73,70.26-81.26-20.6a7.68,7.68,0,0,1-5.6-5.7l-1.33-6.17,37,9.38a7.3,7.3,0,0,0,5.47,7.15l10.21,2.59a7.23,7.23,0,0,0,1.78.22,7.33,7.33,0,0,0,6.45-3.9l38.92,9.86,0,.12h0l-3.88,4.57A7.73,7.73,0,0,1,1273.12,456.51Zm-34.63-17L1228.27,437a3.57,3.57,0,0,1-2.58-2.57l16.29,4.13A3.55,3.55,0,0,1,1238.49,439.54Zm-44.14-17L1208,368.85l81.11,20.56-13.63,53.75Z"/><path class="cls-1" d="M103.26,457.32a3.52,3.52,0,0,0,1.93.58,3.72,3.72,0,0,0,.74-.08,3.55,3.55,0,0,0,1.21-6.45,3.55,3.55,0,0,0-4.91,1,3.54,3.54,0,0,0,1,4.92Z"/><path class="cls-1" d="M124.18,361a7.53,7.53,0,0,0-8.92-5.83L56.1,367.59a7.55,7.55,0,0,0-5.83,8.93l18.41,87.67A7.55,7.55,0,0,0,77.61,470l59.16-12.43a7.52,7.52,0,0,0,5.82-8.92ZM72.33,463.43,70.57,455l66.61-14,1.77,8.41a3.84,3.84,0,0,1-.54,2.86,3.79,3.79,0,0,1-2.41,1.64L76.84,466.37A3.81,3.81,0,0,1,72.33,463.43Zm48.2-101.67,1.23,5.86-66.61,14-1.23-5.86a3.82,3.82,0,0,1,2.94-4.51L116,358.82a3.8,3.8,0,0,1,4.5,2.94Zm2,9.51,13.88,66.11-66.61,14L55.92,385.26Z"/><rect class="cls-1" x="76.15" y="368.14" width="22.19" height="3.98" transform="translate(-74.33 25.89) rotate(-11.88)"/><path class="cls-1" d="M1748.51,378.92a9.74,9.74,0,0,0-11.53-7.51l-14.54,3.07-7.46-4.86a8.36,8.36,0,0,0-6.35-1.18L1696.54,371a1.83,1.83,0,0,0-.33.11,1.47,1.47,0,0,0-.36,0l-12.08,2.55a8.51,8.51,0,0,0-5.34,3.66l-4.85,7.46L1659,387.88a9.74,9.74,0,0,0-7.51,11.53l10.52,49.8a9.77,9.77,0,0,0,9.51,7.73,10.09,10.09,0,0,0,2-.22l77.94-16.46a9.75,9.75,0,0,0,7.51-11.54ZM1713,372.75l4.33,2.82-38.54,8.14,2.82-4.33a4.76,4.76,0,0,1,3-2l12.08-2.55a1.93,1.93,0,0,0,.34-.11,2,2,0,0,0,.35,0l12.09-2.55A4.68,4.68,0,0,1,1713,372.75Zm-47.25,75.69-10.52-49.8a6,6,0,0,1,4.63-7.12l77.94-16.46a5.87,5.87,0,0,1,1.24-.13,6,6,0,0,1,5.88,4.76l10.52,49.8a6,6,0,0,1-4.64,7.12l-77.94,16.46A6,6,0,0,1,1665.7,448.44Z"/><path class="cls-1" d="M1726.34,386.59a1.87,1.87,0,0,0,1,.3,1.72,1.72,0,0,0,.39,0l10.63-2.25a1.85,1.85,0,0,0,1.44-2.21,1.88,1.88,0,0,0-2.21-1.44L1727,383.2a1.83,1.83,0,0,0-1.18.81,1.88,1.88,0,0,0,.54,2.58Z"/><path class="cls-1" d="M1737.28,386.58l-7.72,1.63a1.86,1.86,0,0,0-1.44,2.21,1.83,1.83,0,0,0,.81,1.18,1.81,1.81,0,0,0,1,.3,1.72,1.72,0,0,0,.39,0l7.72-1.63a1.87,1.87,0,1,0-.77-3.65Z"/><path class="cls-1" d="M1696.57,427.44a15.9,15.9,0,0,0,8.69,2.6,16.21,16.21,0,0,0,3.32-.35,16,16,0,1,0-12-2.25Zm20.69-15.9a12.24,12.24,0,0,1-24,5.06,12.25,12.25,0,0,1,9.44-14.51,12.21,12.21,0,0,1,14.51,9.45Z"/><path class="cls-1" d="M254.14,367.88a10.73,10.73,0,0,0-8.79-5.75l-20.18-1.44a10.73,10.73,0,0,0-9.51,4.45l-9.23,12.77a19.44,19.44,0,0,0-3.61,9.95L198,455.63a4.89,4.89,0,0,0,4.54,5.24l51,3.64h.35A4.92,4.92,0,0,0,258.8,460l4.82-67.77a19.31,19.31,0,0,0-2.16-10.36Zm.94,91.82a1.18,1.18,0,0,1-.41.8,1.15,1.15,0,0,1-.85.29l-51-3.64a1.18,1.18,0,0,1-1.09-1.25l4.83-67.77a15.62,15.62,0,0,1,2.92-8l9.22-12.78a7,7,0,0,1,5.71-2.92h.52l20.17,1.44a7,7,0,0,1,5.76,3.76l7.32,13.95a15.6,15.6,0,0,1,1.74,8.37Z"/><path class="cls-1" d="M234.24,375.82h0a3.55,3.55,0,1,0-.51,7.08H234a3.56,3.56,0,0,0,3.54-3.3,3.57,3.57,0,0,0-.86-2.58A3.49,3.49,0,0,0,234.24,375.82Z"/><path class="cls-1" d="M1603.12,380l-102.6-9.26a7.87,7.87,0,0,0-8.52,7.11l-4.83,53.53a7.87,7.87,0,0,0,7.11,8.51l40.64,3.67-.39,4.38-9.48-.86a1.82,1.82,0,0,0-1.36.43,1.85,1.85,0,0,0-.66,1.26,1.81,1.81,0,0,0,.42,1.36,1.86,1.86,0,0,0,1.27.67l40.27,3.63h.16a1.86,1.86,0,0,0,.17-3.72l-9.56-.86.49-4.37,40.63,3.67a7.87,7.87,0,0,0,8.52-7.11l4.83-53.53A7.85,7.85,0,0,0,1603.12,380Zm-50.7,66.4-.19,2.16-13.91-1.25.2-2.16Zm44.8-1-102.61-9.25a4.12,4.12,0,0,1-3.72-4.47l4.83-53.53a4.12,4.12,0,0,1,4.09-3.74l.37,0,102.61,9.25a4.12,4.12,0,0,1,3.72,4.47l-4.83,53.53a4.11,4.11,0,0,1-4.46,3.72Z"/><path class="cls-1" d="M1428.12,376.08a6.23,6.23,0,0,0-1.91.33l-2.75-2.76a1.93,1.93,0,0,0-2.64,0l-1.71,1.72a1.85,1.85,0,0,0,0,2.63l2.78,2.78a6.29,6.29,0,0,0-.29,1.82,6.53,6.53,0,0,0,6.52,6.52,6.29,6.29,0,0,0,1.81-.3l3.19,3.19a1.84,1.84,0,0,0,1.32.55,1.81,1.81,0,0,0,1.31-.55l1.72-1.71a1.88,1.88,0,0,0,0-2.64l-3.16-3.16a6.42,6.42,0,0,0-6.19-8.42Zm0,3.73a2.79,2.79,0,1,1-2.8,2.79A2.8,2.8,0,0,1,1428.12,379.81Z"/><path class="cls-1" d="M1374.5,399.05l0,.14,0-.06,0,0h0a13.44,13.44,0,0,1,1.3,1.07h0l1.28-1.41h0l.59-.64h0l.65-.7,0,0h0l-.14-.13a2,2,0,0,1-.68-1.47v-2.39a1.94,1.94,0,0,1,1.94-1.94h2.71a2,2,0,0,1,1.46.67l.14.14,1.39-1.3h0l1.34-1.25c-.36-.39-.71-.79-1-1.22l0,0-.11,0a1.82,1.82,0,0,0-2.08-.55,5.26,5.26,0,0,0-1.14-.15h-2.71a5.67,5.67,0,0,0-5.67,5.67v2.39A5.34,5.34,0,0,0,1374,397,1.83,1.83,0,0,0,1374.5,399.05Z"/><path class="cls-1" d="M1429.5,416.42a25.83,25.83,0,0,0-5.89.67,1.86,1.86,0,0,0-.54,3.41,1.78,1.78,0,0,0,1.38.22,22.47,22.47,0,0,1,5-.57,22.18,22.18,0,1,1-22.18,22.18,22.67,22.67,0,0,1,.62-5.27,1.86,1.86,0,1,0-3.62-.88,25.92,25.92,0,1,0,25.18-19.76Z"/><path class="cls-1" d="M1429.5,356.94a25.94,25.94,0,0,0-25.24,31.8,1.86,1.86,0,0,0,2.23,1.4,1.86,1.86,0,0,0,1.4-2.24A22.19,22.19,0,1,1,1429.5,405a22.09,22.09,0,0,1-5.27-.63,1.84,1.84,0,0,0-1.41.22,1.79,1.79,0,0,0-.84,1.15,1.84,1.84,0,0,0,.21,1.41,1.89,1.89,0,0,0,1.15.84,25.92,25.92,0,1,0,6.16-51.09Z"/><path class="cls-1" d="M1438,436.42a1.85,1.85,0,0,0-.54-1.32l-1.72-1.71a1.81,1.81,0,0,0-1.31-.55h0a1.81,1.81,0,0,0-1.31.55l-3.16,3.16a6.28,6.28,0,0,0-1.91-.33,6.42,6.42,0,0,0-6.19,8.42l-2.75,2.75a1.86,1.86,0,0,0,0,2.64l1.71,1.71a1.85,1.85,0,0,0,1.32.55,1.82,1.82,0,0,0,1.32-.55l2.76-2.78a6.37,6.37,0,0,0,1.83.3,6.42,6.42,0,0,0,6.23-8.33l3.19-3.19A1.87,1.87,0,0,0,1438,436.42Zm-10,9.11a2.79,2.79,0,1,1,2.79-2.79A2.8,2.8,0,0,1,1428.05,445.53Z"/><path class="cls-1" d="M1374.61,424v0l0,.06a1.78,1.78,0,0,0-.57,2.07,5.29,5.29,0,0,0-.16,1.2V430a5.67,5.67,0,0,0,5.67,5.67h2.4a5.26,5.26,0,0,0,1.14-.15,1.82,1.82,0,0,0,.69.15l.31,0a1.91,1.91,0,0,0,1.09-.64l.1,0,0,0,.06-.06h0a15,15,0,0,1,1.07-1.32l-1.42-1.27h0l-1.36-1.22h0l-.15.16a2,2,0,0,1-1.49.7h-2.4a1.94,1.94,0,0,1-1.94-1.94v-2.73a2,2,0,0,1,.68-1.47l.17-.17-1.24-1.34h0l-1.29-1.4A13.44,13.44,0,0,1,1374.61,424Z"/><path class="cls-1" d="M1409,389.8l1.39,1.31h0l1.33,1.24.15-.14a1.94,1.94,0,0,1,1.45-.67H1416a1.94,1.94,0,0,1,1.94,1.94v2.39a2,2,0,0,1-.67,1.46l-.18.18h0l1.23,1.34h0l1.29,1.4a13.44,13.44,0,0,1,1.3-1.07h0v0l0,0a1.84,1.84,0,0,0,.57-2.11,5,5,0,0,0,.16-1.17v-2.39a5.67,5.67,0,0,0-5.67-5.67h-2.72a5.25,5.25,0,0,0-1.13.15,1.82,1.82,0,0,0-2,.48l-.2.05.07.06h0A14.5,14.5,0,0,1,1409,389.8Z"/><path class="cls-1" d="M1368.79,449.26a6.59,6.59,0,0,0,1.86-.31l2.74,2.79a1.85,1.85,0,0,0,2.63,0l1.72-1.71a1.88,1.88,0,0,0,0-2.64l-2.75-2.75a6.42,6.42,0,0,0-6.2-8.42,6.17,6.17,0,0,0-1.9.33l-3.16-3.16a1.86,1.86,0,0,0-2.64,0l-1.71,1.71a1.82,1.82,0,0,0-.55,1.32,1.88,1.88,0,0,0,.55,1.32l3.19,3.19a6.18,6.18,0,0,0-.3,1.81A6.53,6.53,0,0,0,1368.79,449.26Zm0-3.73a2.79,2.79,0,1,1,2.79-2.79A2.79,2.79,0,0,1,1368.79,445.53Z"/><path class="cls-1" d="M1410.32,434.91a1.86,1.86,0,0,0,1.49.75,1.81,1.81,0,0,0,.68-.15,5.26,5.26,0,0,0,1.14.15H1416a5.67,5.67,0,0,0,5.67-5.67v-2.73a5.26,5.26,0,0,0-.15-1.15,1.83,1.83,0,0,0-.5-2l0-.16,0,.06,0,0h0a13.44,13.44,0,0,1-1.3-1.07h0l-1.24,1.34h0l-1.28,1.41,0,0h0l.14.14a2,2,0,0,1,.68,1.47V430a1.94,1.94,0,0,1-1.94,1.94h-2.41a2,2,0,0,1-1.48-.7l-.16-.16h0l-1.42,1.27h0l-.65.58h0l-.71.63c.38.43.74.86,1.08,1.33l0,0h0Z"/><path class="cls-1" d="M1393.06,435a1.82,1.82,0,0,0-1.4-.21,1.77,1.77,0,0,0-1.15.84,1.83,1.83,0,0,0-.22,1.41,22.67,22.67,0,0,1,.62,5.27,22.13,22.13,0,1,1-17.14-21.61,1.86,1.86,0,1,0,.85-3.63,25.86,25.86,0,1,0,19.29,19.09A1.86,1.86,0,0,0,1393.06,435Z"/><path class="cls-1" d="M1359.38,390.3l1.71,1.71a1.86,1.86,0,0,0,2.64,0l3.19-3.19a6.24,6.24,0,0,0,1.81.3,6.44,6.44,0,0,0,6.22-8.38l2.79-2.74a1.87,1.87,0,0,0,0-2.63l-1.72-1.72a1.89,1.89,0,0,0-2.63,0l-2.75,2.75a6.4,6.4,0,0,0-8.1,8.1l-3.16,3.16A1.86,1.86,0,0,0,1359.38,390.3Zm9.35-10.49a2.79,2.79,0,1,1-2.79,2.79A2.79,2.79,0,0,1,1368.73,379.81Z"/><path class="cls-1" d="M1368.73,356.94a25.92,25.92,0,1,0,6.16,51.09,1.87,1.87,0,0,0,1.37-2.25,1.88,1.88,0,0,0-2.26-1.37,22.19,22.19,0,1,1,16.91-21.55,22.45,22.45,0,0,1-.57,5,1.88,1.88,0,0,0,.23,1.41,1.84,1.84,0,0,0,1.15.82,1.8,1.8,0,0,0,1.41-.22,1.84,1.84,0,0,0,.84-1.17,25.68,25.68,0,0,0,.67-5.88A25.94,25.94,0,0,0,1368.73,356.94Z"/><path class="cls-1" d="M2326.43,431.26a21.29,21.29,0,0,1,13.89-5.18q.51,0,1,0a2,2,0,0,0,1.34-.49,1.91,1.91,0,0,0,.62-1.29,1.88,1.88,0,0,0-1.78-1.95,24.29,24.29,0,0,0-4.23.18l-9.84-55.08H2330a3.38,3.38,0,0,0,3.38-3.37V362a3.38,3.38,0,0,0-3.38-3.37h-11a3.38,3.38,0,0,0-3.37,3.37v2.14a3.38,3.38,0,0,0,3.37,3.37h4.55l10,55.82a25.32,25.32,0,0,0-9.61,5.13,25.06,25.06,0,0,0-8.11,13.47,2,2,0,0,0-.64-.11h-45.43a25,25,0,0,0-24.39-19.43,1.86,1.86,0,1,0,0,3.72,21.4,21.4,0,0,1,21.33,21.34c0,.58,0,1.17-.07,1.74a1.87,1.87,0,0,0,1.86,2h48.66a1.87,1.87,0,0,0,1.37-.6,1.89,1.89,0,0,0,.49-1.42c0-.57-.07-1.15-.07-1.74A21.28,21.28,0,0,1,2326.43,431.26Zm-56,14.25h44.93c0,.63-.07,1.27-.07,1.91v0h-44.78v0C2270.48,446.81,2270.45,446.18,2270.4,445.51Zm49-81.76v-1.42h10.25v1.42Z"/><path class="cls-1" d="M2341.63,428.25a19.17,19.17,0,1,0,19.17,19.17A19.19,19.19,0,0,0,2341.63,428.25Zm0,3.73a15.44,15.44,0,1,1-15.44,15.44A15.46,15.46,0,0,1,2341.63,432Z"/><path class="cls-1" d="M2243.37,428.25a19.17,19.17,0,1,0,19.17,19.17A19.19,19.19,0,0,0,2243.37,428.25Zm0,3.73a15.44,15.44,0,1,1-15.44,15.44A15.46,15.46,0,0,1,2243.37,432Z"/><path class="cls-1" d="M2243.37,457.88a10.46,10.46,0,1,0-10.45-10.46A10.48,10.48,0,0,0,2243.37,457.88Zm0-17.19a6.73,6.73,0,1,1-6.73,6.73A6.74,6.74,0,0,1,2243.37,440.69Z"/><path class="cls-1" d="M2341.63,457.88a10.46,10.46,0,1,0-10.45-10.46A10.48,10.48,0,0,0,2341.63,457.88Zm0-17.19a6.73,6.73,0,1,1-6.72,6.73A6.74,6.74,0,0,1,2341.63,440.69Z"/><path class="cls-1" d="M401.19,384.65l-14.63-2.12.74-5.1a17.73,17.73,0,1,0-35.09-5.09l-.74,5.11-18.24-2.65a1.88,1.88,0,0,0-2.08,1.44l-17.6,77.88a1.86,1.86,0,0,0,1.55,2.25L395.43,468h.25a1.86,1.86,0,0,0,1.87-1.74l5.24-79.67A1.89,1.89,0,0,0,401.19,384.65ZM317.63,453l16.77-74.23,16.53,2.4-1.2,8.28-3.17-.46a1.86,1.86,0,0,0-1.39.35,1.83,1.83,0,0,0-.72,1.23,1.86,1.86,0,0,0,1.57,2.11l10.43,1.51.27,0a1.87,1.87,0,0,0,1.49-3,1.84,1.84,0,0,0-1.23-.73l-3.56-.52,1.2-8.28,27.72,4-1.2,8.28-3.3-.48a1.86,1.86,0,1,0-.54,3.69l10.43,1.51a1.23,1.23,0,0,0,.27,0,1.87,1.87,0,0,0,1.11-.37,1.84,1.84,0,0,0,.73-1.22,1.87,1.87,0,0,0-1.58-2.12l-3.43-.49,1.2-8.29L399,388.1,394,464Zm43.75-89.3a14,14,0,0,1,22.23,13.22l-.74,5.11-27.71-4,.74-5.1A13.88,13.88,0,0,1,361.38,363.67Z"/><path class="cls-1" d="M948.58,421.46a11.68,11.68,0,1,0,11.68,11.67A11.69,11.69,0,0,0,948.58,421.46Zm0,18.83a7.16,7.16,0,1,1,7.15-7.16A7.16,7.16,0,0,1,948.58,440.29Z"/><polygon class="cls-1" points="963.49 375.14 963.49 375.14 963.49 375.14 963.49 375.14"/><path class="cls-1" d="M963.49,375.14l-71.7,71.71a2.22,2.22,0,0,0-.67,1.6,2.26,2.26,0,0,0,3.86,1.6l71.71-71.71a2.27,2.27,0,0,0,0-3.2A2.32,2.32,0,0,0,963.49,375.14Z"/><path class="cls-1" d="M897.69,393.92a11.68,11.68,0,1,0,11.68-11.68A11.69,11.69,0,0,0,897.69,393.92Zm4.52,0a7.16,7.16,0,1,1,7.16,7.15A7.16,7.16,0,0,1,902.21,393.92Z"/><path class="cls-1" d="M1861.92,418.84a1.83,1.83,0,0,0,1.16-.41,1.86,1.86,0,0,0-1-3.31l-43.83-4.74a1.84,1.84,0,0,0-2,1.65,1.86,1.86,0,0,0,1.65,2.05l43.83,4.75Z"/><path class="cls-1" d="M1857.89,424.48a1.85,1.85,0,0,0-2.33,1.21l-5.37,16.75a1.87,1.87,0,0,0,.12,1.43,1.78,1.78,0,0,0,1.07.91l.38.08.2,0a1.88,1.88,0,0,0,1.78-1.3l5.37-16.75a1.86,1.86,0,0,0-1.22-2.35Z"/><path class="cls-1" d="M1848.68,423.67a1.86,1.86,0,0,0-2.25,1.37l-3.83,15.79a1.83,1.83,0,0,0,.22,1.41,1.81,1.81,0,0,0,1.16.84l.23.05h.21a1.88,1.88,0,0,0,1.81-1.43l3.82-15.79a1.84,1.84,0,0,0-.22-1.41A1.89,1.89,0,0,0,1848.68,423.67Z"/><path class="cls-1" d="M1810.94,398a1.85,1.85,0,0,0-1.37.4,1.83,1.83,0,0,0-.68,1.25,1.88,1.88,0,0,0,1.65,2.06l10.47,1.13h.2a1.87,1.87,0,0,0,.2-3.72l-3.06-.33.55-5a22.59,22.59,0,0,1,44.91,4.87l-.54,5-3.84-.42a1.86,1.86,0,0,0-2,1.65,1.88,1.88,0,0,0,1.65,2.06l10.47,1.13h.2a1.87,1.87,0,0,0,.2-3.72l-2.93-.31.54-5a26.31,26.31,0,0,0-52.32-5.67l-.54,5Z"/><path class="cls-1" d="M1836.36,424.13l-1.75,16.15a1.87,1.87,0,0,0,.4,1.37,1.83,1.83,0,0,0,1.25.68h.21a1.88,1.88,0,0,0,1.16-.4,1.9,1.9,0,0,0,.69-1.26l1.75-16.15a1.87,1.87,0,0,0-3.71-.4Z"/><path class="cls-1" d="M1857.68,400.92a1.84,1.84,0,0,0,1.16-.42,1.86,1.86,0,0,0-1-3.3L1824,393.53a1.87,1.87,0,0,0-.4,3.71l33.84,3.66Z"/><path class="cls-1" d="M1889,400.57l-16.79-1.82a1.87,1.87,0,0,0-.4,3.71l16.79,1.81a.68.68,0,0,1,.6.75l-1,9.69a.69.69,0,0,1-.75.6l-2.62-.28a5.74,5.74,0,0,0-6,3.7l-11.56,31.11a2.65,2.65,0,0,1-2.77,1.71L1804.2,445a2.64,2.64,0,0,1-2.34-2.26L1797.23,410a5.78,5.78,0,0,0-5-4.9l-.66-.08a.69.69,0,0,1-.59-.74l1.06-9.73a.67.67,0,0,1,.74-.6l16.48,1.79a1.87,1.87,0,1,0,.4-3.71l-16.48-1.79a4.41,4.41,0,0,0-4.85,3.91l-1,9.73a4.42,4.42,0,0,0,3.84,4.84l.66.08a2,2,0,0,1,1.74,1.72l4.63,32.81a6.39,6.39,0,0,0,5.63,5.45l60.26,6.52a5.32,5.32,0,0,0,.69,0,6.35,6.35,0,0,0,6-4.16l11.57-31.1a2,2,0,0,1,2.1-1.3l2.62.29a4.41,4.41,0,0,0,4.86-3.91l1.05-9.69A4.42,4.42,0,0,0,1889,400.57Z"/><path class="cls-1" d="M1828.69,421.51a1.86,1.86,0,0,0-1.82,1.9l.36,16.24a1.85,1.85,0,0,0,1.63,1.81l.19,0h.08a1.88,1.88,0,0,0,1.83-1.91l-.36-16.24A1.87,1.87,0,0,0,1830,422,1.85,1.85,0,0,0,1828.69,421.51Z"/><path class="cls-1" d="M1819.24,420.29h0a1.9,1.9,0,0,0-1.27.67,1.88,1.88,0,0,0-.42,1.37l1.66,17.51a1.86,1.86,0,0,0,1.64,1.68h.39a1.87,1.87,0,0,0,1.68-2L1821.26,422A1.85,1.85,0,0,0,1819.24,420.29Z"/><path class="cls-1" d="M1408.77,209.55a8.75,8.75,0,0,0-5.94-3.23l-94.79-10a8.84,8.84,0,0,0-9.71,7.86l-7.16,67.89a8.84,8.84,0,0,0,7.85,9.71l31.87,3.36-1.09,10.26-3.28-.35a1.87,1.87,0,0,0-.4,3.71l37.64,4h.2a1.86,1.86,0,0,0,1.85-1.67h0a1.87,1.87,0,0,0-1.66-2.05l-3.28-.34,1.08-10.26,31.87,3.36c.31,0,.62.05.94.05a8.85,8.85,0,0,0,8.76-7.9l7.17-67.9A8.8,8.8,0,0,0,1408.77,209.55Zm-51.53,87.95-23.65-2.5,1-9.48,23.65,2.49Zm37-9.44-94.8-10a5.11,5.11,0,0,1-4.54-5.61l1.12-10.62,104.94,11.07-1.12,10.62a5.1,5.1,0,0,1-5.6,4.54Zm-86.57-88,94.8,10a5.11,5.11,0,0,1,4.54,5.61l-5.65,53.56-104.94-11.07,5.65-53.56a5.1,5.1,0,0,1,5.6-4.54Z"/><path class="cls-1" d="M615.53,280.37a19.84,19.84,0,0,1-2.68-8.57l-.57-7.7h0l2.66-1.58a6.47,6.47,0,0,0,2.28-8.85l-7.62-12.91,1.3-.77a3.57,3.57,0,0,0,1.26-4.88l-6-10.18a3.57,3.57,0,0,0-4.88-1.25l-1.3.76-6.63-11.23a6.47,6.47,0,0,0-8.86-2.28l-3.1,1.83-5.5-3.59a19.86,19.86,0,0,1-6.21-6.49l-5.76-9.76a4.22,4.22,0,0,0-5.76-1.49l-9.63,5.69a1.46,1.46,0,0,0-.24.17l-.26.12-9.63,5.69a4.22,4.22,0,0,0-1.49,5.76l5.77,9.76a19.88,19.88,0,0,1,2.68,8.58l.49,6.54L544,234.81a6.48,6.48,0,0,0-2.28,8.86l23.89,40.46a6.45,6.45,0,0,0,8.85,2.28l1.36-.81h0l6.47,4.22a19.89,19.89,0,0,1,6.21,6.5l5.76,9.76a4.22,4.22,0,0,0,3.63,2.06,4.12,4.12,0,0,0,2.13-.58l9.64-5.69a2.29,2.29,0,0,0,.23-.16,1.26,1.26,0,0,0,.26-.13l9.63-5.68a4.22,4.22,0,0,0,1.49-5.77Zm-66.46-53.45a23.59,23.59,0,0,0-3.19-10.19L540.12,207a.48.48,0,0,1,.17-.66l9.62-5.68.24-.18a2,2,0,0,0,.27-.12l9.62-5.68a.48.48,0,0,1,.66.17l5.76,9.76a23.61,23.61,0,0,0,7.39,7.72l3.95,2.58-28.38,16.75Zm19.77,55.31L545,241.77a2.75,2.75,0,0,1,1-3.75l2.8-1.65h0l37.65-22.22a2.74,2.74,0,0,1,3.75,1l7,11.88a1.75,1.75,0,0,0,.23,1.16l7.74,13.11a1.76,1.76,0,0,0,.9.76l8,13.56a2.72,2.72,0,0,1-1,3.74L572.59,283.2A2.74,2.74,0,0,1,568.84,282.23Zm40-45.37-1.16.69-5.83-9.9L603,227Zm-.58,61.51-.23.17a1.26,1.26,0,0,0-.26.13l-9.63,5.68a.48.48,0,0,1-.66-.17l-5.76-9.76a23.61,23.61,0,0,0-7.39-7.72l-4.92-3.21,29.27-17.28.43,5.86a23.59,23.59,0,0,0,3.19,10.2l5.77,9.76a.5.5,0,0,1-.17.66Z"/><rect class="cls-1" x="885.34" y="205.05" width="22.19" height="3.98" transform="translate(-23.41 188.37) rotate(-11.84)"/><path class="cls-1" d="M950.71,291.24a7.5,7.5,0,0,0,1.07-5.66L933.37,197.9a7.55,7.55,0,0,0-8.92-5.83L865.28,204.5a7.51,7.51,0,0,0-4.76,3.26,7.43,7.43,0,0,0-1.06,5.66l18.41,87.68a7.54,7.54,0,0,0,8.92,5.82L946,294.5A7.5,7.5,0,0,0,950.71,291.24Zm-69.19,9.09-1.77-8.41,66.62-14,1.76,8.41a3.82,3.82,0,0,1-2.94,4.51L886,303.27A3.81,3.81,0,0,1,881.52,300.33Zm48.2-101.67,1.23,5.87-66.61,14-1.23-5.86a3.8,3.8,0,0,1,2.94-4.51l59.16-12.43A3.82,3.82,0,0,1,929.72,198.66Zm2,9.52,13.88,66.1-66.61,14-13.89-66.1Z"/><path class="cls-1" d="M912.44,294.22a3.58,3.58,0,0,0,1.94.58,3.16,3.16,0,0,0,.74-.08,3.55,3.55,0,0,0-1.46-7h0a3.55,3.55,0,0,0-1.22,6.45Z"/><path class="cls-1" d="M91.42,291.24a7.5,7.5,0,0,0,1.07-5.66L74.07,197.9a7.54,7.54,0,0,0-8.92-5.83L6,204.5a7.55,7.55,0,0,0-5.83,8.92L18.58,301.1a7.54,7.54,0,0,0,8.92,5.82L86.66,294.5A7.5,7.5,0,0,0,91.42,291.24Zm-69.2,9.09-1.76-8.41,66.61-14,1.77,8.41a3.82,3.82,0,0,1-3,4.51L26.73,303.27a3.82,3.82,0,0,1-4.51-2.94Zm48.2-101.67,1.24,5.87L5,218.52l-1.23-5.86a3.81,3.81,0,0,1,2.94-4.51l59.17-12.43A3.81,3.81,0,0,1,70.42,198.66Zm2,9.52,13.88,66.1-66.61,14L5.81,222.17Z"/><path class="cls-1" d="M53.15,294.22a3.52,3.52,0,0,0,1.93.58,3.05,3.05,0,0,0,.74-.08,3.55,3.55,0,1,0-1.46-7h0a3.55,3.55,0,0,0-1.21,6.45Z"/><rect class="cls-1" x="26.05" y="205.05" width="22.19" height="3.98" transform="translate(-41.7 12.03) rotate(-11.84)"/><path class="cls-1" d="M1522.07,223.39a1.9,1.9,0,0,0,.4,0l10.61-2.36a1.84,1.84,0,0,0,1.17-.83,1.87,1.87,0,0,0,.25-1.4,1.87,1.87,0,0,0-2.23-1.41l-10.61,2.36a1.87,1.87,0,0,0,.41,3.69Z"/><path class="cls-1" d="M1491.75,264.28a15.95,15.95,0,1,0-7-10A15.91,15.91,0,0,0,1491.75,264.28Zm15.12-23.8a12.25,12.25,0,1,1-6.54-1.91A12.16,12.16,0,0,1,1506.87,240.48Z"/><path class="cls-1" d="M1533.4,223.21a1.86,1.86,0,0,0-1.4-.24l-7.7,1.71a1.87,1.87,0,0,0,.4,3.69,1.92,1.92,0,0,0,.41-.05l7.7-1.71a1.86,1.86,0,0,0,.59-3.4Z"/><path class="cls-1" d="M1552.94,272.2a9.68,9.68,0,0,0,1.29-7.34l-11.08-49.68a9.75,9.75,0,0,0-11.62-7.38L1517,211l-7.52-4.77a8.34,8.34,0,0,0-6.36-1.11l-12.06,2.69a1.35,1.35,0,0,0-.34.11,1.32,1.32,0,0,0-.34,0l-12.06,2.69a8.5,8.5,0,0,0-5.29,3.71l-4.78,7.52-14.5,3.23a9.74,9.74,0,0,0-7.38,11.62l11.08,49.68a9.74,9.74,0,0,0,9.5,7.61,9.62,9.62,0,0,0,2.12-.23l77.75-17.34A9.69,9.69,0,0,0,1552.94,272.2Zm-45.43-62.79,4.37,2.77-38.45,8.58,2.77-4.37a4.76,4.76,0,0,1,3-2.07l12.06-2.69a2.13,2.13,0,0,0,.33-.11,2.09,2.09,0,0,0,.35,0l12.06-2.69A4.62,4.62,0,0,1,1507.51,209.41Zm-46.39,76.22L1450,236a6,6,0,0,1,4.55-7.17l77.75-17.34a5.92,5.92,0,0,1,1.31-.15,6,6,0,0,1,5.86,4.7l11.08,49.68a6,6,0,0,1-4.55,7.17l-77.75,17.34h0a6,6,0,0,1-7.16-4.55Z"/><path class="cls-1" d="M372.55,278.49a9.64,9.64,0,0,0,2-7.17l-6.28-50.52a9.72,9.72,0,0,0-10.85-8.45l-14.75,1.83-7-5.47A8.36,8.36,0,0,0,329.4,207l-12.26,1.52a1.87,1.87,0,0,0-.34.08,1.45,1.45,0,0,0-.36,0l-12.26,1.52a8.56,8.56,0,0,0-5.62,3.19l-5.47,7-14.75,1.83A9.74,9.74,0,0,0,269.89,233l6.28,50.51a9.73,9.73,0,0,0,9.64,8.53A9.82,9.82,0,0,0,287,292l79.06-9.83A9.64,9.64,0,0,0,372.55,278.49Zm-39.21-66.84,4.08,3.18-39.1,4.86,3.18-4.08a4.81,4.81,0,0,1,3.14-1.79l12.26-1.52a2,2,0,0,0,.35-.08,1.38,1.38,0,0,0,.35,0l12.26-1.52A4.72,4.72,0,0,1,333.34,211.65Zm-53.48,71.43-6.27-50.51a6,6,0,0,1,5.21-6.7L357.86,216a6,6,0,0,1,6.7,5.22l6.27,50.52a6,6,0,0,1-5.21,6.69l-79.06,9.83A6,6,0,0,1,279.86,283.08Z"/><path class="cls-1" d="M320.24,236.32a16,16,0,0,0-7.84,28.44,15.8,15.8,0,0,0,9.79,3.38,16.73,16.73,0,0,0,2-.12,16,16,0,1,0-3.94-31.7Zm-10.18,17.36A12.26,12.26,0,0,1,320.7,240a13,13,0,0,1,1.52-.09,12.23,12.23,0,1,1-12.16,13.75Z"/><path class="cls-1" d="M357.22,221.91l-10.79,1.34a1.86,1.86,0,0,0,.23,3.71h.23l10.79-1.34a1.85,1.85,0,0,0,1.24-.7,1.87,1.87,0,0,0-1.7-3Z"/><path class="cls-1" d="M356.41,227.49l-7.83,1a1.87,1.87,0,0,0,.23,3.72l.23,0,7.84-1a1.86,1.86,0,0,0-.47-3.7Z"/><path class="cls-1" d="M1875.27,212.92a3.55,3.55,0,1,0-1.61,6.72,3.47,3.47,0,0,0,1.1-.18,3.55,3.55,0,0,0,.51-6.54Z"/><path class="cls-1" d="M1906,216.84a19.24,19.24,0,0,0-5.9-8.79l-12-10.18a10.75,10.75,0,0,0-10.31-2l-19.24,6.25a10.71,10.71,0,0,0-7.14,7.7l-3.75,15.3a19.32,19.32,0,0,0,.39,10.58l21,64.61a4.92,4.92,0,0,0,4.67,3.39,4.67,4.67,0,0,0,1.51-.24l48.65-15.81a4.9,4.9,0,0,0,3.14-6.18Zm-33.42,82.3-21-64.61a15.6,15.6,0,0,1-.32-8.54l3.75-15.31a7,7,0,0,1,4.67-5l19.24-6.26a7.32,7.32,0,0,1,2.2-.35,7,7,0,0,1,4.55,1.68l12,10.17a15.62,15.62,0,0,1,4.77,7.1l21,64.61a1.18,1.18,0,0,1-.76,1.49L1874,299.9A1.17,1.17,0,0,1,1872.53,299.14Z"/><path class="cls-1" d="M2404.6,254.63l-18.24-50.56a7.85,7.85,0,0,0-10-4.71l-96.9,35a7.86,7.86,0,0,0-4.72,10L2293,294.92a7.86,7.86,0,0,0,7.37,5.18,7.61,7.61,0,0,0,2.66-.47l38.39-13.84,1.5,4.13-9,3.23a1.87,1.87,0,0,0,.64,3.62,2,2,0,0,0,.63-.11l38-13.73a1.87,1.87,0,0,0,1.12-2.39,1.87,1.87,0,0,0-2.39-1.11l-9,3.23-1.46-4.14,38.38-13.85A7.85,7.85,0,0,0,2404.6,254.63Zm-108.15,39-18.24-50.55a4.11,4.11,0,0,1,2.47-5.26l96.91-35a4,4,0,0,1,1.39-.25,4.13,4.13,0,0,1,3.87,2.72l18.24,50.56A4,4,0,0,1,2401,259a4.12,4.12,0,0,1-2.33,2.12l-96.9,35A4.12,4.12,0,0,1,2296.45,293.65Zm62-12.68.74,2L2346,287.75l-.74-2Z"/><path class="cls-1" d="M747.08,226.68l0,0h0l1.39,1.31h0l1.33,1.25.15-.15a2,2,0,0,1,1.46-.67h2.71a2,2,0,0,1,1.94,1.95v2.38a2,2,0,0,1-.68,1.47l-.17.18,1.29,1.39h0l.59.64-.58-.64h0l.58.64h0l.65.71a14.75,14.75,0,0,1,1.29-1.08h0V236a1.82,1.82,0,0,0,.58-2.1,5.52,5.52,0,0,0,.15-1.17v-2.38a5.67,5.67,0,0,0-5.67-5.67h-2.71a5.22,5.22,0,0,0-1.14.14,1.82,1.82,0,0,0-2,.49l-.2,0,.08.05h0A15.35,15.35,0,0,1,747.08,226.68Z"/><path class="cls-1" d="M712.64,236v.06l0,0h0a14.5,14.5,0,0,1,1.28,1.07h0l1.28-1.4h0l1.23-1.34h0l-.16-.17a2,2,0,0,1-.69-1.47v-2.38a2,2,0,0,1,1.94-1.95h2.72a2,2,0,0,1,1.45.66l.15.15,1.33-1.25h0l1.38-1.3c-.36-.39-.71-.8-1-1.23l0,0-.11,0a1.85,1.85,0,0,0-1.18-.69,1.87,1.87,0,0,0-.91.13,5.2,5.2,0,0,0-1.13-.14h-2.72a5.68,5.68,0,0,0-5.67,5.67v2.38a4.9,4.9,0,0,0,.16,1.16A1.81,1.81,0,0,0,712.64,236Z"/><path class="cls-1" d="M766.18,213a6.48,6.48,0,0,0-1.9.33l-2.75-2.75a1.9,1.9,0,0,0-2.64,0l-1.72,1.71a1.88,1.88,0,0,0,0,2.64l2.79,2.76a6.37,6.37,0,0,0-.3,1.83,6.42,6.42,0,0,0,8.33,6.23l3.19,3.19a1.88,1.88,0,0,0,2.64,0l1.71-1.72a1.85,1.85,0,0,0,0-2.63l-3.16-3.17a6.17,6.17,0,0,0,.33-1.9A6.53,6.53,0,0,0,766.18,213Zm0,3.73a2.79,2.79,0,1,1-2.79,2.79A2.79,2.79,0,0,1,766.18,216.71Z"/><path class="cls-1" d="M767.56,193.85a25.94,25.94,0,0,0-25.91,25.91,26.4,26.4,0,0,0,.67,5.89,1.91,1.91,0,0,0,.85,1.17,1.79,1.79,0,0,0,1.39.22A1.86,1.86,0,0,0,746,224.8a22.12,22.12,0,1,1,16.35,16.52,1.78,1.78,0,0,0-1.41.21,1.86,1.86,0,0,0,.52,3.41,25.92,25.92,0,1,0,6.15-51.09Z"/><path class="cls-1" d="M767.56,253.32a26.38,26.38,0,0,0-5.88.67,1.88,1.88,0,0,0-1.4,2.24,1.84,1.84,0,0,0,.85,1.17,1.79,1.79,0,0,0,1.39.22A22.16,22.16,0,1,1,746,274a1.84,1.84,0,0,0-.22-1.41,1.89,1.89,0,0,0-1.15-.84,1.84,1.84,0,0,0-1.41.22,1.79,1.79,0,0,0-.84,1.15,25.92,25.92,0,1,0,25.17-19.76Z"/><path class="cls-1" d="M776.08,273.32a1.84,1.84,0,0,0-.55-1.32l-1.71-1.71a1.86,1.86,0,0,0-2.64,0L768,273.45a6.39,6.39,0,0,0-8.42,6.19,6.23,6.23,0,0,0,.33,1.91l-2.76,2.75a1.91,1.91,0,0,0-.54,1.32,1.85,1.85,0,0,0,.54,1.31l1.72,1.72a1.88,1.88,0,0,0,2.64,0l2.77-2.78a6.65,6.65,0,0,0,1.82.29,6.53,6.53,0,0,0,6.52-6.52,6.24,6.24,0,0,0-.3-1.81l3.19-3.19A1.88,1.88,0,0,0,776.08,273.32Zm-10,9.11a2.79,2.79,0,1,1,2.79-2.79A2.79,2.79,0,0,1,766.12,282.43Z"/><path class="cls-1" d="M714.61,260.48l-.64-.7a16.75,16.75,0,0,1-1.29,1.08h0v0l0,.06a1.81,1.81,0,0,0-.57,2.11,4.89,4.89,0,0,0-.16,1.15v2.74a5.68,5.68,0,0,0,5.67,5.67H720a5.26,5.26,0,0,0,1.14-.15,1.82,1.82,0,0,0,.69.15l.31,0a1.86,1.86,0,0,0,1.09-.64l.09,0,0,0s.05,0,.07-.06a15.14,15.14,0,0,1,1.06-1.31l-1.4-1.28h0L721.63,268l-.15.16a2,2,0,0,1-1.49.7h-2.41a1.94,1.94,0,0,1-1.94-1.94v-2.74a2,2,0,0,1,.68-1.46l.17-.17h0l-.64-.7h0l-.59-.65h0l-.64-.7.58.65h0l-.59-.65h0Z"/><path class="cls-1" d="M754.1,268.84h-2.4a2,2,0,0,1-1.48-.7l-.17-.17h0l-1.36,1.22h0l-1.41,1.27a15,15,0,0,1,1.07,1.32,1.88,1.88,0,0,0,1.52.79,1.69,1.69,0,0,0,.68-.16,4.75,4.75,0,0,0,1.15.16h2.4a5.68,5.68,0,0,0,5.67-5.67v-2.74a5.42,5.42,0,0,0-.15-1.15,1.82,1.82,0,0,0-.5-2l0-.14-.05.05,0,0a15.39,15.39,0,0,1-1.24-1l0-.05h0l-1.24,1.34h0l-1.28,1.41h0l.16.16a2,2,0,0,1,.68,1.47v2.74A1.94,1.94,0,0,1,754.1,268.84Z"/><path class="cls-1" d="M706.86,286.16a6.45,6.45,0,0,0,1.85-.3l2.74,2.79a1.88,1.88,0,0,0,2.64,0l1.71-1.72a1.81,1.81,0,0,0,.55-1.31,1.88,1.88,0,0,0-.55-1.32l-2.75-2.75a6.4,6.4,0,0,0-6.19-8.43,6.48,6.48,0,0,0-1.9.33l-3.17-3.16a1.85,1.85,0,0,0-2.63,0L697.45,272a1.82,1.82,0,0,0-.55,1.32,1.89,1.89,0,0,0,.54,1.32l3.2,3.19a6.24,6.24,0,0,0-.3,1.81A6.52,6.52,0,0,0,706.86,286.16Zm0-3.73a2.79,2.79,0,1,1,2.79-2.79A2.79,2.79,0,0,1,706.86,282.43Z"/><path class="cls-1" d="M697.44,227.2l1.72,1.72a1.87,1.87,0,0,0,2.63,0l3.19-3.19a6.65,6.65,0,0,0,1.82.29,6.53,6.53,0,0,0,6.52-6.52,6.46,6.46,0,0,0-.31-1.85l2.79-2.74a1.86,1.86,0,0,0,0-2.64l-1.71-1.71a1.88,1.88,0,0,0-1.32-.54h0a1.88,1.88,0,0,0-1.32.54l-2.75,2.75a6.41,6.41,0,0,0-8.1,8.09l-3.16,3.17A1.87,1.87,0,0,0,697.44,227.2Zm9.36-10.49A2.79,2.79,0,1,1,704,219.5,2.79,2.79,0,0,1,706.8,216.71Z"/><path class="cls-1" d="M706.8,193.85A25.91,25.91,0,1,0,713,244.94a1.86,1.86,0,0,0,.52-3.41,1.86,1.86,0,0,0-1.4-.22,22.12,22.12,0,1,1,16.34-16.51,1.79,1.79,0,0,0,.23,1.41,1.84,1.84,0,0,0,1.15.83,1.86,1.86,0,0,0,1.4-.22,1.91,1.91,0,0,0,.85-1.17,26.4,26.4,0,0,0,.67-5.89A25.94,25.94,0,0,0,706.8,193.85Z"/><path class="cls-1" d="M731.12,271.92a1.85,1.85,0,0,0-1.4-.21,1.89,1.89,0,0,0-1.15.84,1.84,1.84,0,0,0-.22,1.41,22.19,22.19,0,1,1-21.55-16.91,21.83,21.83,0,0,1,5,.58,1.85,1.85,0,0,0,1.41-.24,1.83,1.83,0,0,0,.83-1.16,1.88,1.88,0,0,0-1.4-2.24,26.38,26.38,0,0,0-5.88-.67A25.91,25.91,0,1,0,732,273.08,1.86,1.86,0,0,0,731.12,271.92Z"/><path class="cls-1" d="M2059.84,268.16a21.36,21.36,0,0,1,13.9-5.17l1,0a1.94,1.94,0,0,0,1.34-.49,1.81,1.81,0,0,0,.61-1.28,1.86,1.86,0,0,0-1.77-1.95,23.5,23.5,0,0,0-4.24.17l-9.83-55.08h2.62a3.37,3.37,0,0,0,3.37-3.37v-2.14a3.37,3.37,0,0,0-3.37-3.37h-11a3.37,3.37,0,0,0-3.37,3.37V201a3.37,3.37,0,0,0,3.37,3.37h4.55l10,55.83a25,25,0,0,0-17.73,18.59,1.91,1.91,0,0,0-.64-.11h-45.42a25.07,25.07,0,0,0-24.4-19.43,1.87,1.87,0,0,0,0,3.73,21.38,21.38,0,0,1,21.34,21.33c0,.58,0,1.17-.07,1.75a1.81,1.81,0,0,0,.49,1.41,1.86,1.86,0,0,0,1.36.6h48.67a1.9,1.9,0,0,0,1.37-.6,1.85,1.85,0,0,0,.48-1.42c0-.56-.06-1.15-.06-1.74A21.34,21.34,0,0,1,2059.84,268.16Zm-56,14.26h44.93c-.05.63-.08,1.26-.08,1.9v0H2003.9v0C2003.9,283.71,2003.87,283.08,2003.82,282.42Zm49-81.77v-1.42h10.24v1.42Z"/><path class="cls-1" d="M1976.79,273.87a10.46,10.46,0,1,0,10.45,10.45A10.47,10.47,0,0,0,1976.79,273.87Zm0,17.18a6.73,6.73,0,1,1,6.72-6.73A6.74,6.74,0,0,1,1976.79,291.05Z"/><path class="cls-1" d="M1976.79,265.15A19.17,19.17,0,1,0,1996,284.32,19.19,19.19,0,0,0,1976.79,265.15Zm0,34.61a15.44,15.44,0,1,1,15.44-15.44A15.45,15.45,0,0,1,1976.79,299.76Z"/><path class="cls-1" d="M2075.05,273.87a10.46,10.46,0,1,0,10.45,10.45A10.47,10.47,0,0,0,2075.05,273.87Zm0,17.18a6.73,6.73,0,1,1,6.72-6.73A6.74,6.74,0,0,1,2075.05,291.05Z"/><path class="cls-1" d="M2094.22,284.32a19.17,19.17,0,1,0-19.17,19.17A19.19,19.19,0,0,0,2094.22,284.32Zm-19.17,15.44a15.44,15.44,0,1,1,15.44-15.44A15.45,15.45,0,0,1,2075.05,299.76Z"/><path class="cls-1" d="M1591.63,302.07a1.86,1.86,0,0,0,1.36.6h0l81.16-.24a1.85,1.85,0,0,0,1.36-.6,1.87,1.87,0,0,0,.49-1.41l-6.47-79.58a1.88,1.88,0,0,0-1.86-1.71h0l-14.79,0V214a17.75,17.75,0,0,0-17.73-17.68h-.05a17.76,17.76,0,0,0-17.69,17.78l0,5.16-18.43,0a1.88,1.88,0,0,0-1.85,1.73l-6,79.61A1.92,1.92,0,0,0,1591.63,302.07Zm29.51-88a14,14,0,0,1,14-14h0a14,14,0,0,1,14,14v5.16l-28,.08Zm-3.68,17.27h-3.21a1.86,1.86,0,0,0-1.85,1.86,1.84,1.84,0,0,0,1.86,1.86h0l10.53,0a1.87,1.87,0,1,0,0-3.73h0l-3.6,0,0-8.37,28-.08,0,8.37h-3.34a1.87,1.87,0,1,0,0,3.73h0l10.53,0a1.86,1.86,0,0,0,1.86-1.87,1.87,1.87,0,0,0-1.86-1.86h-3.47l0-8.36,13.06,0,6.17,75.85-77.13.22,5.74-75.88,16.7-.05Z"/><path class="cls-1" d="M2228.88,270a11.68,11.68,0,1,0-11.68,11.68A11.69,11.69,0,0,0,2228.88,270Zm-4.52,0a7.16,7.16,0,1,1-7.16-7.16A7.16,7.16,0,0,1,2224.36,270Z"/><path class="cls-1" d="M2178,219.15a11.68,11.68,0,1,0,11.68,11.68A11.69,11.69,0,0,0,2178,219.15Zm7.15,11.68a7.15,7.15,0,1,1-7.15-7.16A7.16,7.16,0,0,1,2185.14,230.83Z"/><path class="cls-1" d="M2159.75,285.35a2.26,2.26,0,0,0,3.86,1.6l71.7-71.7a2.26,2.26,0,0,0,.67-1.6,2.22,2.22,0,0,0-.67-1.6,2.31,2.31,0,0,0-3.2,0l-71.7,71.7A2.25,2.25,0,0,0,2159.75,285.35Z"/><path class="cls-1" d="M1098.17,237.47l-16.79-1.81a1.8,1.8,0,0,0-1.37.4,1.84,1.84,0,0,0-.68,1.25,1.89,1.89,0,0,0,.4,1.37,1.87,1.87,0,0,0,1.25.68l16.79,1.82a.66.66,0,0,1,.45.25.63.63,0,0,1,.15.49l-1,9.69a.66.66,0,0,1-.74.6l-2.63-.28a5.74,5.74,0,0,0-6,3.71l-11.56,31.1a2.65,2.65,0,0,1-2.77,1.71l-60.25-6.52a2.64,2.64,0,0,1-2.34-2.27l-4.63-32.81a5.77,5.77,0,0,0-5-4.89l-.66-.08a.69.69,0,0,1-.59-.75l1.06-9.73a.71.71,0,0,1,.25-.45.66.66,0,0,1,.49-.14l16.48,1.78a1.83,1.83,0,0,0,1.37-.4,1.86,1.86,0,0,0-1-3.31l-16.48-1.78a4.41,4.41,0,0,0-4.85,3.9l-1,9.73a4.43,4.43,0,0,0,3.84,4.85l.66.08a2,2,0,0,1,1.74,1.71l4.64,32.81a6.35,6.35,0,0,0,5.62,5.45l60.26,6.53c.23,0,.46,0,.69,0a6.37,6.37,0,0,0,6-4.16l11.57-31.1a2,2,0,0,1,2.1-1.3l2.62.28A4.41,4.41,0,0,0,1101,252l1-9.7A4.41,4.41,0,0,0,1098.17,237.47Z"/><path class="cls-1" d="M1057.85,260.58a1.86,1.86,0,0,0-2.25,1.37l-3.83,15.79a1.86,1.86,0,0,0,1.38,2.25l.24,0h.19a1.88,1.88,0,0,0,1.82-1.42l3.82-15.79a1.86,1.86,0,0,0-1.37-2.25Z"/><path class="cls-1" d="M1037.86,258.41a1.88,1.88,0,0,0-1.82,1.91l.36,16.24a1.86,1.86,0,0,0,1.67,1.81h.23a1.87,1.87,0,0,0,1.83-1.9l-.36-16.25a1.85,1.85,0,0,0-.58-1.3A1.89,1.89,0,0,0,1037.86,258.41Z"/><path class="cls-1" d="M1028.41,257.2h0a1.89,1.89,0,0,0-1.27.66,1.93,1.93,0,0,0-.42,1.37l1.66,17.52a1.86,1.86,0,0,0,1.65,1.67h.38a1.9,1.9,0,0,0,1.26-.67,1.83,1.83,0,0,0,.42-1.37l-1.65-17.51A1.88,1.88,0,0,0,1028.41,257.2Z"/><path class="cls-1" d="M1046.21,259.78a1.87,1.87,0,0,0-.68,1.25l-1.75,16.16a1.86,1.86,0,0,0,1.65,2.05h.2a1.88,1.88,0,0,0,1.86-1.66l1.75-16.16a1.86,1.86,0,0,0-1.66-2.05A1.84,1.84,0,0,0,1046.21,259.78Z"/><path class="cls-1" d="M1066.65,237.81h.2a1.87,1.87,0,0,0,.2-3.72l-33.85-3.66a1.86,1.86,0,0,0-2,1.65,1.86,1.86,0,0,0,1.65,2l33.84,3.67Z"/><path class="cls-1" d="M1071.08,255.74a1.86,1.86,0,0,0,1.46-3,1.83,1.83,0,0,0-1.25-.68l-43.84-4.75a1.87,1.87,0,0,0-.4,3.71l43.84,4.74Z"/><path class="cls-1" d="M1020.11,234.88a1.88,1.88,0,0,0-2.05,1.66h0a1.86,1.86,0,0,0,1.65,2.05l10.47,1.13.21,0a1.84,1.84,0,0,0,1.16-.42,1.86,1.86,0,0,0,.69-1.25,1.89,1.89,0,0,0-.4-1.37,1.85,1.85,0,0,0-1.26-.68l-3.06-.33.55-5a22.59,22.59,0,0,1,44.91,4.86l-.54,5-3.84-.42a1.89,1.89,0,0,0-1.37.4,1.85,1.85,0,0,0-.68,1.26,1.8,1.8,0,0,0,.4,1.37,1.84,1.84,0,0,0,1.25.68l10.47,1.13.2,0a1.87,1.87,0,0,0,.2-3.72l-2.93-.32.54-5a26.31,26.31,0,1,0-52.32-5.67l-.54,5Z"/><path class="cls-1" d="M1067.06,261.38a1.88,1.88,0,0,0-2.34,1.21l-5.36,16.76a1.85,1.85,0,0,0,.12,1.42,1.82,1.82,0,0,0,1.08.92l.37.08h.2a1.88,1.88,0,0,0,1.78-1.3l5.36-16.75a1.8,1.8,0,0,0-.11-1.42A1.88,1.88,0,0,0,1067.06,261.38Z"/><path class="cls-1" d="M1229,222.23c-2.88.57-3.77-3.91-.89-4.48s3.77,3.9.89,4.48Zm0,0c2.88-.58,2-5-.89-4.48s-2,5.05.89,4.48Zm7.32,2.74-3.46-17.35a.9.9,0,0,0-1.07-.72l-76.54,15.23a.91.91,0,0,0-.71,1.07l3.45,17.35a.91.91,0,0,0,1.07.72l27.65-5.5a.93.93,0,0,0,.72-1.08.91.91,0,0,0-1.08-.71l-26.75,5.32-3.09-15.56,74.74-14.87,3.1,15.56-28.62,5.69a.91.91,0,0,0,.36,1.79l29.51-5.87A.92.92,0,0,0,1236.27,225Zm4.8,64.11-12.19-61.23a.9.9,0,0,0-1.07-.72.91.91,0,0,0-.72,1.08l12,60.33-59.44,11.83-12-60.34a.91.91,0,0,0-1.79.36l12.19,61.23a.92.92,0,0,0,1.07.72l61.23-12.19A.92.92,0,0,0,1241.07,289.08Zm-21.93,4-15.77-79.26a.92.92,0,0,0-1.07-.72l-19,3.79a.92.92,0,0,0-.72,1.08l15.77,79.25a.91.91,0,0,0,1.08.72l19-3.79A.91.91,0,0,0,1219.14,293.09Zm-34.64-74.57,17.26-3.44,15.41,77.47L1199.92,296Zm8.09-3a.91.91,0,0,0,.63-1.13c-2.6-9-7.18-11.84-10.57-12.6a11.57,11.57,0,0,0-10.78,3.46c-4.26,4.87,3.45,12.56,3.78,12.88a.91.91,0,0,0,1.28-1.3c-.07-.07-6.77-6.86-3.69-10.38a9.78,9.78,0,0,1,9-2.87c2.9.64,6.86,3.13,9.21,11.31a.91.91,0,0,0,1,.65Zm2.74-1.4c-1-8.45,1.73-12.26,4.17-14a9.76,9.76,0,0,1,9.43-.8c4.2,2.07.61,10.91.57,11a.91.91,0,1,0,1.68.71c.18-.42,4.36-10.48-1.45-13.35a11.54,11.54,0,0,0-11.28.94c-2.84,2-6,6.33-4.94,15.68a.91.91,0,0,0,1,.8h.08A.92.92,0,0,0,1195.33,214.09Zm-1.16,53.25-2.59-13a.9.9,0,0,0-1.07-.71l-20.23,4a.91.91,0,0,0-.71,1.07l2.58,13a.91.91,0,0,0,1.08.71l20.23-4A.91.91,0,0,0,1194.17,267.34Zm-22.64-8.09,18.44-3.66,2.23,11.22-18.43,3.66Zm63.59-.05-2.59-13a.91.91,0,0,0-1.07-.72l-21.4,4.26a.9.9,0,0,0-.72,1.07l2.59,13a.91.91,0,0,0,1.07.72l21.4-4.26A.91.91,0,0,0,1235.12,259.2Zm-23.81-7.86,19.61-3.9,2.23,11.22-19.61,3.9Zm25.85-26.55-3.45-17.35a1.82,1.82,0,0,0-2.15-1.43L1155,221.24a1.82,1.82,0,0,0-1.44,2.14l3.45,17.35a1.84,1.84,0,0,0,2.15,1.44l27.65-5.51a1.83,1.83,0,0,0-.72-3.58l-25.85,5.15-2.74-13.77,73-14.52,2.74,13.77-27.71,5.52a1.82,1.82,0,1,0,.71,3.58l29.51-5.87A1.83,1.83,0,0,0,1237.16,224.79Zm-2.68.53a.9.9,0,0,0,.71-1.07l-3.09-15.56A.91.91,0,0,0,1231,208l-74.74,14.87a.91.91,0,0,0-.72,1.07l3.1,15.56a.91.91,0,0,0,1.07.72l-.9.17L1155.38,223l76.54-15.23,3.45,17.35L1205.86,231ZM1242,288.9l-12.18-61.23a1.83,1.83,0,1,0-3.58.72L1238,287.82l-57.64,11.47-11.83-59.43a1.82,1.82,0,1,0-3.58.71l12.18,61.23a1.82,1.82,0,0,0,2.15,1.43l61.23-12.18A1.82,1.82,0,0,0,1242,288.9Zm-62.12,12.36,59.44-11.82a.91.91,0,0,0,.71-1.08L1228,228l12.18,61.23-61.23,12.18-.18-.89A.91.91,0,0,0,1179.84,301.26Zm40.2-8.35-15.77-79.26a1.82,1.82,0,0,0-2.15-1.43l-19,3.79a1.82,1.82,0,0,0-1.43,2.14l15.77,79.26a1.84,1.84,0,0,0,2.15,1.44l19-3.79A1.83,1.83,0,0,0,1220,292.91Zm-19.94,4,17.25-3.44a.9.9,0,0,0,.72-1.07l-15.41-77.47a.91.91,0,0,0-1.08-.71l.9-.18,15.77,79.26-19,3.79-.18-.9A.91.91,0,0,0,1200.1,296.88Zm-14.52-77.65,15.46-3.07,15.06,75.67-15.47,3.08Zm-1.26-1.61a.91.91,0,0,0-.71,1.07l-.18-.89Zm8.53-1.25a1.87,1.87,0,0,0,1.09-.88,1.79,1.79,0,0,0,.16-1.38c-2.72-9.47-7.62-12.43-11.25-13.24a12.54,12.54,0,0,0-11.67,3.74c-4.82,5.51,3.47,13.79,3.83,14.14a1.82,1.82,0,0,0,2.58,0,1.77,1.77,0,0,0,.52-1.29,1.78,1.78,0,0,0-.54-1.29c-1.61-1.61-5.73-6.74-3.64-9.13a8.82,8.82,0,0,1,8.13-2.58c2.66.59,6.3,2.93,8.53,10.67a1.82,1.82,0,0,0,2.11,1.29Zm-.51-1.76c-2-6.91-5.13-10-7.92-11.28,2.8,1.3,5.94,4.37,7.94,11.28l.16.9-.18-.9Zm-16,2.84h0Zm6-14.84a10.79,10.79,0,0,0-9.46,2.95,10.72,10.72,0,0,1,5.51-2.94A10.09,10.09,0,0,1,1182.26,202.61Zm14,11.38c-.91-8,1.56-11.56,3.79-13.13a8.81,8.81,0,0,1,8.5-.72c2.85,1.41,1,7.72.14,9.83a1.82,1.82,0,0,0,3.36,1.42c1.77-4.18,3.36-11.94-1.88-14.53a12.54,12.54,0,0,0-12.22,1c-3,2.14-6.43,6.74-5.32,16.53a1.86,1.86,0,0,0,.68,1.23,1.79,1.79,0,0,0,1.33.38l.17,0A1.84,1.84,0,0,0,1196.23,214Zm-1.81.21.18.89-.18-.89Zm4.8-15a10.67,10.67,0,0,1,9.66-.9,10.85,10.85,0,0,0-6.12-.52A9.91,9.91,0,0,0,1199.22,199.2Zm-4.15,68-2.59-13a1.83,1.83,0,0,0-2.15-1.44l-20.23,4a1.82,1.82,0,0,0-1.43,2.14l2.59,13a1.83,1.83,0,0,0,2.15,1.44l20.22-4A1.82,1.82,0,0,0,1195.07,267.17Zm-21.12,4.2,18.43-3.67a.91.91,0,0,0,.72-1.07l-2.23-11.22a.91.91,0,0,0-1.08-.72l.9-.18,2.59,13-20.23,4-.18-.9A.91.91,0,0,0,1174,271.37Zm-1.34-11.4,16.64-3.31,1.88,9.43-16.65,3.31Zm-1.25-1.61a.91.91,0,0,0-.72,1.07l-.18-.89ZM1236,259l-2.59-13a1.84,1.84,0,0,0-2.15-1.44l-21.4,4.26a1.82,1.82,0,0,0-1.43,2.15l2.59,13a1.81,1.81,0,0,0,2.14,1.43l21.4-4.25A1.84,1.84,0,0,0,1236,259Zm-22.3,4.43,19.61-3.9a.92.92,0,0,0,.72-1.07l-2.24-11.22a.9.9,0,0,0-1.07-.72l.9-.18,2.59,13-21.4,4.26-.18-.89A.91.91,0,0,0,1213.72,263.45Zm-1.34-11.39,17.82-3.55,1.88,9.43-17.82,3.55Zm-1.25-1.62a.91.91,0,0,0-.71,1.08l-.18-.9Z"/><path class="cls-1" d="M501.42,198.81l-1.85-7.14a18.25,18.25,0,0,0-12.94-13.06l-6.86-1.83,6.86-1.84a18.25,18.25,0,0,0,12.94-13.06l1.85-7.14,1.84,7.14a18.26,18.26,0,0,0,12.94,13.06l6.86,1.84-6.86,1.83a18.26,18.26,0,0,0-12.94,13.06Zm-9.14-22a22.1,22.1,0,0,1,9.14,9.18,22.1,22.1,0,0,1,9.14-9.18,22.18,22.18,0,0,1-9.14-9.19A22.18,22.18,0,0,1,492.28,176.78Z"/><path class="cls-1" d="M710.7,371.31l-1.84-7.14a18.26,18.26,0,0,0-12.94-13.06l-6.87-1.84,6.87-1.83a18.28,18.28,0,0,0,12.94-13.06l1.84-7.14,1.84,7.14a18.28,18.28,0,0,0,12.94,13.06l6.86,1.83-6.86,1.84a18.26,18.26,0,0,0-12.94,13.06Zm-9.14-22a22.18,22.18,0,0,1,9.14,9.19,22.18,22.18,0,0,1,9.14-9.19,22.1,22.1,0,0,1-9.14-9.18A22.1,22.1,0,0,1,701.56,349.27Z"/><path class="cls-1" d="M166.81,363.46,165,356.33A18.26,18.26,0,0,0,152,343.27l-6.87-1.84L152,339.6A18.28,18.28,0,0,0,165,326.54l1.84-7.14,1.84,7.14A18.28,18.28,0,0,0,181.6,339.6l6.86,1.83-6.86,1.84a18.26,18.26,0,0,0-12.95,13.06Zm-9.14-22a22.16,22.16,0,0,1,9.14,9.18,22.16,22.16,0,0,1,9.14-9.18,22.1,22.1,0,0,1-9.14-9.18A22.1,22.1,0,0,1,157.67,341.43Z"/><path class="cls-1" d="M1371.05,189.54l-1.84-7.14a18.25,18.25,0,0,0-12.94-13.05l-6.86-1.84,6.86-1.84a18.26,18.26,0,0,0,12.94-13.06l1.84-7.14,1.85,7.14a18.23,18.23,0,0,0,12.94,13.06l6.86,1.84-6.86,1.84a18.22,18.22,0,0,0-12.94,13.05Zm-9.14-22a22.1,22.1,0,0,1,9.14,9.18,22.1,22.1,0,0,1,9.14-9.18,22.16,22.16,0,0,1-9.14-9.18A22.16,22.16,0,0,1,1361.91,167.51Z"/><path class="cls-1" d="M1779.13,363.62l-1.84-7.14a18.26,18.26,0,0,0-12.94-13.06l-6.86-1.84,6.86-1.83a18.28,18.28,0,0,0,12.94-13.06l1.84-7.14,1.85,7.14a18.25,18.25,0,0,0,12.94,13.06l6.86,1.83-6.86,1.84A18.23,18.23,0,0,0,1781,356.48Zm-9.14-22a22.16,22.16,0,0,1,9.14,9.18,22.16,22.16,0,0,1,9.14-9.18,22.1,22.1,0,0,1-9.14-9.18A22.1,22.1,0,0,1,1770,341.58Z"/><path class="cls-1" d="M2036,372.18l-1.85-7.14A18.25,18.25,0,0,0,2021.18,352l-6.86-1.84,6.86-1.83a18.25,18.25,0,0,0,12.94-13.06l1.85-7.14,1.84,7.14a18.26,18.26,0,0,0,12.94,13.06l6.86,1.83-6.86,1.84A18.26,18.26,0,0,0,2037.81,365Zm-9.14-22a22.22,22.22,0,0,1,9.14,9.18,22.22,22.22,0,0,1,9.14-9.18A22.1,22.1,0,0,1,2036,341,22.1,22.1,0,0,1,2026.83,350.14Z"/><path class="cls-1" d="M1002.43,204.89l-1.85-7.14a18.27,18.27,0,0,0-12.94-13.05l-6.86-1.84,6.86-1.84A18.26,18.26,0,0,0,1000.58,168l1.85-7.13,1.84,7.13A18.26,18.26,0,0,0,1017.21,181l6.86,1.84-6.86,1.84a18.27,18.27,0,0,0-12.94,13.05Zm-9.15-22a22.12,22.12,0,0,1,9.15,9.18,22,22,0,0,1,9.14-9.18,22,22,0,0,1-9.14-9.18A22.12,22.12,0,0,1,993.28,182.86Z"/><path class="cls-1" d="M1431.14,341.87l-1.84-7.13a18.28,18.28,0,0,0-13-13.06l-6.86-1.84,6.86-1.83a18.29,18.29,0,0,0,13-13.06l1.84-7.14L1433,305A18.28,18.28,0,0,0,1445.92,318l6.86,1.83-6.86,1.84A18.26,18.26,0,0,0,1433,334.74Zm-9.14-22a22.18,22.18,0,0,1,9.14,9.19,22.12,22.12,0,0,1,9.14-9.19,22,22,0,0,1-9.14-9.18A22.1,22.1,0,0,1,1422,319.84Z"/><path class="cls-1" d="M1870.63,71.71l-1.84-7.14a18.27,18.27,0,0,0-12.94-13L1849,49.68l6.86-1.84a18.26,18.26,0,0,0,12.94-13.06l1.84-7.13,1.84,7.13a18.26,18.26,0,0,0,12.94,13.06l6.87,1.84-6.87,1.84a18.27,18.27,0,0,0-12.94,13Zm-9.14-22a22.16,22.16,0,0,1,9.14,9.18,22.16,22.16,0,0,1,9.14-9.18,22.16,22.16,0,0,1-9.14-9.18A22.16,22.16,0,0,1,1861.49,49.68Z"/><path class="cls-1" d="M303.55,44.07l-1.84-7.14a18.26,18.26,0,0,0-12.94-13.06L281.91,22l6.86-1.83A18.28,18.28,0,0,0,301.71,7.14L303.55,0l1.84,7.14A18.28,18.28,0,0,0,318.33,20.2L325.2,22l-6.87,1.84a18.26,18.26,0,0,0-12.94,13.06Zm-9.14-22a22.16,22.16,0,0,1,9.14,9.18A22.16,22.16,0,0,1,312.69,22a22.1,22.1,0,0,1-9.14-9.18A22.1,22.1,0,0,1,294.41,22Z"/><path class="cls-1" d="M264.57,194.91a10.78,10.78,0,1,1,10.78-10.78A10.79,10.79,0,0,1,264.57,194.91Zm0-17.76a7,7,0,1,0,7,7A7,7,0,0,0,264.57,177.15Z"/><path class="cls-1" d="M570.25,141.64A10.79,10.79,0,1,1,581,130.86,10.79,10.79,0,0,1,570.25,141.64Zm0-17.76a7,7,0,1,0,7,7A7,7,0,0,0,570.25,123.88Z"/><path class="cls-1" d="M829,175.88a10.78,10.78,0,1,1,10.78-10.78A10.78,10.78,0,0,1,829,175.88Zm0-17.75a7,7,0,1,0,7,7A7,7,0,0,0,829,158.13Z"/><path class="cls-1" d="M1158.78,75.68a10.78,10.78,0,1,1,10.78-10.78A10.79,10.79,0,0,1,1158.78,75.68Zm0-17.76a7,7,0,1,0,7,7A7,7,0,0,0,1158.78,57.92Z"/><path class="cls-1" d="M1147.36,361.07a10.79,10.79,0,1,1,10.78-10.79A10.8,10.8,0,0,1,1147.36,361.07Zm0-17.76a7,7,0,1,0,7,7A7,7,0,0,0,1147.36,343.31Z"/><path class="cls-1" d="M843.46,335.24a10.78,10.78,0,1,1,10.78-10.78A10.78,10.78,0,0,1,843.46,335.24Zm0-17.75a7,7,0,1,0,7,7A7,7,0,0,0,843.46,317.49Z"/><path class="cls-1" d="M1583.05,190.47a10.78,10.78,0,1,1,10.78-10.78A10.79,10.79,0,0,1,1583.05,190.47Zm0-17.76a7,7,0,1,0,7,7A7,7,0,0,0,1583.05,172.71Z"/><path class="cls-1" d="M2238.16,369.31A10.78,10.78,0,1,1,2249,358.53,10.8,10.8,0,0,1,2238.16,369.31Zm0-17.76a7,7,0,1,0,7,7A7,7,0,0,0,2238.16,351.55Z"/><path class="cls-1" d="M1956.58,207.59a10.78,10.78,0,1,1,10.79-10.78A10.79,10.79,0,0,1,1956.58,207.59Zm0-17.75a7,7,0,1,0,7,7A7,7,0,0,0,1956.58,189.84Z"/><path class="cls-1" d="M1895.7,350.28a10.78,10.78,0,1,1,10.78-10.78A10.79,10.79,0,0,1,1895.7,350.28Zm0-17.75a7,7,0,1,0,7,7A7,7,0,0,0,1895.7,332.53Z"/><path class="cls-1" d="M1650.74,352.36a10.78,10.78,0,1,1,10.78-10.78A10.78,10.78,0,0,1,1650.74,352.36Zm0-17.75a7,7,0,1,0,7,7A7,7,0,0,0,1650.74,334.61Z"/><path class="cls-1" d="M402.82,334.43a10.78,10.78,0,1,1,10.78-10.78A10.8,10.8,0,0,1,402.82,334.43Zm0-17.76a7,7,0,1,0,7,7A7,7,0,0,0,402.82,316.67Z"/><rect class="cls-1" x="566.6" y="334.35" width="3.8" height="28.38" transform="translate(-79.94 504.08) rotate(-45)"/><rect class="cls-1" x="554.32" y="346.64" width="28.38" height="3.8" transform="translate(-79.94 504.08) rotate(-45)"/><rect class="cls-1" x="1125.96" y="168.83" width="3.8" height="28.38" transform="translate(200.93 851.12) rotate(-45)"/><rect class="cls-1" x="1113.67" y="181.12" width="28.38" height="3.8" transform="translate(200.93 851.12) rotate(-45)"/><rect class="cls-1" x="1547.38" y="316.28" width="3.8" height="28.38" transform="translate(220.1 1192.3) rotate(-45)"/><rect class="cls-1" x="1535.09" y="328.56" width="28.38" height="3.8" transform="translate(220.1 1192.3) rotate(-45)"/><rect class="cls-1" x="2124.8" y="168.83" width="3.8" height="28.38" transform="translate(493.48 1557.41) rotate(-45)"/><rect class="cls-1" x="2112.52" y="181.12" width="28.38" height="3.8" transform="translate(493.48 1557.41) rotate(-45)"/><rect class="cls-1" x="275.51" y="315.33" width="3.81" height="28.38"/><rect class="cls-1" x="263.22" y="327.61" width="28.38" height="3.81"/><rect class="cls-1" x="979.46" y="309.62" width="3.81" height="28.38"/><rect class="cls-1" x="967.17" y="321.91" width="28.38" height="3.81"/><rect class="cls-1" x="1278.16" y="321.03" width="3.81" height="28.38"/><rect class="cls-1" x="1265.87" y="333.32" width="28.38" height="3.81"/><rect class="cls-1" x="2275.11" y="178.34" width="3.81" height="28.38"/><rect class="cls-1" x="2262.82" y="190.63" width="28.38" height="3.81"/><rect class="cls-1" x="1692.95" y="158.37" width="3.81" height="28.38"/><rect class="cls-1" x="1680.66" y="170.65" width="28.38" height="3.81"/><rect class="cls-1" x="1481.78" y="129.83" width="3.81" height="28.38"/><rect class="cls-1" x="1469.49" y="142.12" width="28.38" height="3.81"/><rect class="cls-1" x="1820.39" y="159.32" width="3.8" height="28.38" transform="translate(411.05 1339.38) rotate(-45)"/><rect class="cls-1" x="1808.11" y="171.6" width="28.38" height="3.8" transform="translate(411.05 1339.38) rotate(-45)"/></g></g></svg>